<?xml version="1.0" standalone="no"?>
  <!DOCTYPE svg PUBLIC "-//W3C//DTD SVG 1.1//EN" "http://www.w3.org/Graphics/SVG/1.1/DTD/svg11.dtd" >
  <svg>
  <metadata>
  Created by font-carrier
  </metadata>
  <defs>
  <font id="ClearSans" horiz-adv-x="2765" vert-adv-y="2765" >
    <font-face
      
      font-family="Clear Sans"
      
      font-weight="400"
      
      font-stretch="normal"
      
      units-per-em="2048"
      
      ascent="2206"
      
      descent="-563"
      
    />
      <missing-glyph />

      

      
      <glyph glyph-name="uni21" unicode="&#x21;" d="M352 399L207 399L178 1384L377 1384L352 399M399 98Q399 35 369.50 10.50Q340-14 276-14Q205-14 180.50 15.50Q156 45 156 98Q156 158 183.50 184.50Q211 211 276 211Q344 211 371.50 184.50Q399 158 399 98Z"  horiz-adv-x="555" vert-adv-y="2048"  />

      
      <glyph glyph-name="uni22" unicode="&#x22;" d="M709 834L582 834L541 1384L750 1384L709 834M342 834L215 834L174 1384L383 1384L342 834Z"  horiz-adv-x="924" vert-adv-y="2048"  />

      
      <glyph glyph-name="uni23" unicode="&#x23;" d="M1057 868L963 516L1227 516L1227 393L928 393L823 0L694 0L797 393L487 393L383 0L254 0L358 393L102 393L102 516L391 516L487 868L219 868L219 993L520 993L625 1384L754 1384L649 993L958 993L1065 1384L1194 1384L1090 993L1343 993L1343 868L1057 868M616 868L520 516L831 516L928 868L616 868Z"  horiz-adv-x="1446" vert-adv-y="2048"  />

      
      <glyph glyph-name="uni24" unicode="&#x24;" d="M1108 422Q1108 271 1004.50 178Q901 85 711 76L711-133L582-133L582 76Q311 89 174 313L313 395Q405 236 582 217L582 643Q365 692 283 767.50Q201 843 201 977Q201 1125 306 1213.50Q411 1302 582 1309L582 1413L711 1413L711 1309Q800 1305 870.50 1278Q941 1251 994 1207Q1047 1163 1100 1079L958 997Q871 1154 711 1167L711 776Q930 724 1019 641.50Q1108 559 1108 422M582 1167Q375 1152 375 983Q375 907 434.50 868Q494 829 582 807L582 1167M936 412Q936 489 882.50 535.50Q829 582 711 614L711 217Q814 227 875 277.50Q936 328 936 412Z"  horiz-adv-x="1264" vert-adv-y="2048"  />

      
      <glyph glyph-name="uni25" unicode="&#x25;" d="M1610-31Q1243-31 1243 410Q1243 852 1610 852Q1804 852 1890 736.50Q1976 621 1976 412Q1976-31 1610-31M580-51L1358 1436L1524 1436L743-51L580-51M479 530Q285 530 199 646Q113 762 113 971Q113 1413 479 1413Q672 1413 760 1294.50Q848 1176 848 971Q848 764 759 647Q670 530 479 530M1610 102Q1679 102 1720.50 133Q1762 164 1781 225Q1800 286 1800 412Q1800 537 1780.50 597.50Q1761 658 1719.50 688.50Q1678 719 1610 719Q1510 719 1464.50 650.50Q1419 582 1419 410Q1419 238 1464.50 170Q1510 102 1610 102M479 664Q580 664 625 731Q670 798 670 971Q670 1145 624 1212.50Q578 1280 479 1280Q410 1280 368.50 1249Q327 1218 309 1155Q291 1092 291 971Q291 845 309 785.50Q327 726 368 695Q409 664 479 664Z"  horiz-adv-x="2089" vert-adv-y="2048"  />

      
      <glyph glyph-name="uni26" unicode="&#x26;" d="M1120 0L1026 111Q924 32 829 1.50Q734-29 625-29Q397-29 267 77Q137 183 137 360Q137 449 165 514.50Q193 580 253.50 637.50Q314 695 459 780Q391 858 344 938Q297 1018 297 1098Q297 1413 668 1413Q831 1413 920.50 1337.50Q1010 1262 1010 1145Q1010 1034 938 939.50Q866 845 709 750L1040 358Q1132 466 1171 629L1327 590Q1264 359 1147 231L1343 0L1120 0M834 1143Q834 1202 791 1241Q748 1280 662 1280Q568 1280 520.50 1235Q473 1190 473 1106Q473 1053 514 992.50Q555 932 608 868Q714 927 774 998.50Q834 1070 834 1143M561 662Q457 594 409.50 550.50Q362 507 343 465Q324 423 324 356Q324 251 408.50 186Q493 121 629 121Q745 121 817 158Q889 195 928 227L561 662Z"  horiz-adv-x="1425" vert-adv-y="2048"  />

      
      <glyph glyph-name="uni27" unicode="&#x27;" d="M342 834L215 834L174 1384L383 1384L342 834Z"  horiz-adv-x="557" vert-adv-y="2048"  />

      
      <glyph glyph-name="uni28" unicode="&#x28;" d="M520-395Q330-177 242 53.50Q154 284 154 561Q154 844 242 1071.50Q330 1299 520 1520L715 1520Q520 1332 417.50 1087Q315 842 315 561Q315 277 419 34.50Q523-208 715-395L520-395Z"  horiz-adv-x="797" vert-adv-y="2048"  />

      
      <glyph glyph-name="uni29" unicode="&#x29;" d="M82-395Q278-202 379.50 39.50Q481 281 481 561Q481 817 388 1065Q295 1313 82 1520L276 1520Q465 1302 554 1074Q643 846 643 561Q643 286 557.50 60Q472-166 276-395L82-395Z"  horiz-adv-x="797" vert-adv-y="2048"  />

      
      <glyph glyph-name="uni2a" unicode="&#x2a;" d="M799 905L528 1063L530 795L418 795L420 1063L150 903L92 1001L377 1157L92 1313L150 1409L420 1251L418 1520L530 1520L526 1251L799 1409L856 1311L571 1157L856 1001L799 905Z"  horiz-adv-x="948" vert-adv-y="2048"  />

      
      <glyph glyph-name="uni2b" unicode="&#x2b;" d="M784 514L784 37L641 37L641 514L164 514L164 657L641 657L641 1137L784 1137L784 657L1264 657L1264 514L784 514Z"  horiz-adv-x="1427" vert-adv-y="2048"  />

      
      <glyph glyph-name="uni2c" unicode="&#x2c;" d="M182-293Q219-247 242.50-167.50Q266-88 266-14Q207-14 181.50 12.50Q156 39 156 98Q156 154 183.50 182.50Q211 211 276 211Q342 211 370.50 177Q399 143 399 78Q399-45 362.50-145.50Q326-246 287-293L182-293Z"  horiz-adv-x="555" vert-adv-y="2048"  />

      
      <glyph glyph-name="uni2d" unicode="&#x2d;" d="M102 440L102 612L725 612L725 440L102 440Z"  horiz-adv-x="827" vert-adv-y="2048"  />

      
      <glyph glyph-name="uni2e" unicode="&#x2e;" d="M399 98Q399 35 369.50 10.50Q340-14 276-14Q205-14 180.50 15.50Q156 45 156 98Q156 158 183.50 184.50Q211 211 276 211Q344 211 371.50 184.50Q399 158 399 98Z"  horiz-adv-x="555" vert-adv-y="2048"  />

      
      <glyph glyph-name="uni2f" unicode="&#x2f;" d="M174-299L8-299L723 1520L891 1520L174-299Z"  horiz-adv-x="991" vert-adv-y="2048"  />

      
      <glyph glyph-name="uni30" unicode="&#x30;" d="M1139 690Q1139 319 1015 144Q891-31 631-31Q371-31 248 143Q125 317 125 688Q125 1059 248 1233Q371 1407 631 1407Q893 1407 1016 1234Q1139 1061 1139 690M944 690Q944 979 868.50 1113Q793 1247 631 1247Q471 1247 395 1112Q319 977 319 688Q319 399 395 264Q471 129 631 129Q793 129 868.50 264Q944 399 944 690Z"  horiz-adv-x="1264" vert-adv-y="2048"  />

      
      <glyph glyph-name="uni31" unicode="&#x31;" d="M616 0L616 989L281 989L281 1118Q417 1126 486.50 1150Q556 1174 595 1223Q634 1272 664 1384L797 1384L797 0L616 0Z"  horiz-adv-x="1264" vert-adv-y="2048"  />

      
      <glyph glyph-name="uni32" unicode="&#x32;" d="M139 0L139 195Q384 403 494 507.50Q604 612 676 693.50Q748 775 787.50 852.50Q827 930 827 1022Q827 1125 759 1187Q691 1249 578 1249Q471 1249 403.50 1202Q336 1155 289 1079L135 1178Q207 1302 320 1357.50Q433 1413 586 1413Q787 1413 904.50 1313.50Q1022 1214 1022 1032Q1022 940 996 859.50Q970 779 914.50 706Q859 633 765.50 539Q672 445 348 168L1067 168L1067 0L139 0Z"  horiz-adv-x="1188" vert-adv-y="2048"  />

      
      <glyph glyph-name="uni33" unicode="&#x33;" d="M1024 395Q1024 182 895 76.50Q766-29 530-29Q389-29 272.50 26.50Q156 82 102 174L256 272Q293 215 363.50 174Q434 133 528 133Q684 133 756.50 199.50Q829 266 829 408Q829 655 512 655L410 655L410 815L496 815Q639 815 722 876.50Q805 938 805 1051Q805 1153 737.50 1202Q670 1251 559 1251Q369 1251 270 1098L115 1196Q177 1305 294 1359Q411 1413 571 1413Q705 1413 802 1372Q899 1331 949 1255.50Q999 1180 999 1079Q999 940 930.50 860Q862 780 721 745Q852 735 938 647Q1024 559 1024 395Z"  horiz-adv-x="1188" vert-adv-y="2048"  />

      
      <glyph glyph-name="uni34" unicode="&#x34;" d="M956 307L956 0L778 0L778 307L66 307L66 485L786 1384L956 1384L956 467L1147 467L1147 307L956 307M778 1120L248 467L778 467L778 1120Z"  horiz-adv-x="1264" vert-adv-y="2048"  />

      
      <glyph glyph-name="uni35" unicode="&#x35;" d="M1044 442Q1044 225 918.50 98Q793-29 545-29Q385-29 274.50 30.50Q164 90 113 174L266 274Q301 219 370.50 176Q440 133 541 133Q696 133 774 216Q852 299 852 442Q852 567 772 640Q692 713 543 713Q394 713 285 641L195 641L270 1384L995 1384L995 1217L422 1217L379 821Q422 844 481.50 856Q541 868 598 868Q811 868 927.50 760Q1044 652 1044 442Z"  horiz-adv-x="1188" vert-adv-y="2048"  />

      
      <glyph glyph-name="uni36" unicode="&#x36;" d="M606-29Q355-29 239 147.50Q123 324 123 666Q123 1022 267 1217.50Q411 1413 666 1413Q784 1413 870 1379.50Q956 1346 1028 1280L913 1137Q854 1194 798.50 1223.50Q743 1253 666 1253Q362 1253 324 780Q381 821 468 854Q555 887 657 887Q848 887 962.50 779.50Q1077 672 1077 449Q1077 217 952 94Q827-29 606-29M614 131Q752 131 821.50 211Q891 291 891 442Q891 725 610 725Q532 725 453.50 697.50Q375 670 322 637Q322 371 393.50 251Q465 131 614 131Z"  horiz-adv-x="1188" vert-adv-y="2048"  />

      
      <glyph glyph-name="uni37" unicode="&#x37;" d="M578 0L373 0L920 1217L139 1217L139 1384L1106 1384L1106 1212L578 0Z"  horiz-adv-x="1264" vert-adv-y="2048"  />

      
      <glyph glyph-name="uni38" unicode="&#x38;" d="M1079 356Q1079 162 948 66.50Q817-29 596-29Q356-29 233.50 69.50Q111 168 111 356Q111 623 410 735Q294 792 247 833.50Q200 875 171.50 930Q143 985 143 1059Q143 1227 258 1320Q373 1413 596 1413Q815 1413 931 1323Q1047 1233 1047 1061Q1047 989 1017 931.50Q987 874 937 830Q887 786 778 735Q936 666 1007.50 576Q1079 486 1079 356M862 1057Q862 1151 795.50 1208.50Q729 1266 596 1266Q455 1266 391.50 1208.50Q328 1151 328 1063Q328 1009 353 972.50Q378 936 432.50 899Q487 862 596 811Q721 862 791.50 919.50Q862 977 862 1057M895 356Q895 418 867 467Q839 516 782.50 558Q726 600 596 659Q468 606 413 565Q358 524 326.50 472Q295 420 295 354Q295 248 368.50 184.50Q442 121 596 121Q752 121 823.50 186.50Q895 252 895 356Z"  horiz-adv-x="1188" vert-adv-y="2048"  />

      
      <glyph glyph-name="uni39" unicode="&#x39;" d="M254 248Q313 190 374.50 160.50Q436 131 514 131Q672 131 758 244.50Q844 358 864 604Q805 563 718 530.50Q631 498 532 498Q340 498 225.50 604.50Q111 711 111 936Q111 1165 235.50 1289Q360 1413 578 1413Q838 1413 951.50 1240Q1065 1067 1065 739Q1065 492 1004 322.50Q943 153 820 62Q697-29 514-29Q286-29 141 106L254 248M578 659Q655 659 734 687Q813 715 866 748Q866 937 837.50 1036Q809 1135 747.50 1194Q686 1253 578 1253Q440 1253 367.50 1172.50Q295 1092 295 942Q295 659 578 659Z"  horiz-adv-x="1188" vert-adv-y="2048"  />

      
      <glyph glyph-name="uni3a" unicode="&#x3a;" d="M399 936Q399 872 369.50 847.50Q340 823 276 823Q205 823 180.50 853Q156 883 156 936Q156 995 183.50 1022Q211 1049 276 1049Q344 1049 371.50 1022Q399 995 399 936M399 98Q399 35 369.50 10.50Q340-14 276-14Q205-14 180.50 15.50Q156 45 156 98Q156 158 183.50 184.50Q211 211 276 211Q344 211 371.50 184.50Q399 158 399 98Z"  horiz-adv-x="555" vert-adv-y="2048"  />

      
      <glyph glyph-name="uni3b" unicode="&#x3b;" d="M399 936Q399 872 369.50 847.50Q340 823 276 823Q205 823 180.50 853Q156 883 156 936Q156 995 183.50 1022Q211 1049 276 1049Q344 1049 371.50 1022Q399 995 399 936M399 78Q399-45 362.50-145.50Q326-246 287-293L182-293Q218-247 242-165Q266-83 266-14Q207-14 181.50 12.50Q156 39 156 98Q156 154 183.50 182.50Q211 211 276 211Q344 211 371.50 177Q399 143 399 78Z"  horiz-adv-x="555" vert-adv-y="2048"  />

      
      <glyph glyph-name="uni3c" unicode="&#x3c;" d="M164 524L164 649L1264 1112L1264 956L362 586L1264 217L1264 61L164 524Z"  horiz-adv-x="1427" vert-adv-y="2048"  />

      
      <glyph glyph-name="uni3d" unicode="&#x3d;" d="M164 745L164 889L1264 889L1264 745L164 745M164 283L164 426L1264 426L1264 283L164 283Z"  horiz-adv-x="1427" vert-adv-y="2048"  />

      
      <glyph glyph-name="uni3e" unicode="&#x3e;" d="M164 61L164 217L1063 586L164 956L164 1112L1264 649L1264 524L164 61Z"  horiz-adv-x="1427" vert-adv-y="2048"  />

      
      <glyph glyph-name="uni3f" unicode="&#x3f;" d="M356 379L356 653Q579 759 662 843.50Q745 928 745 1030Q745 1133 678.50 1191Q612 1249 487 1249Q379 1249 316.50 1208Q254 1167 219 1108L68 1206Q119 1298 219 1355.50Q319 1413 485 1413Q693 1413 816.50 1318.50Q940 1224 940 1051Q940 955 899.50 879Q859 803 784.50 739Q710 675 530 578L530 379L356 379M567 98Q567 35 537.50 10.50Q508-14 444-14Q373-14 348.50 15.50Q324 45 324 98Q324 158 351.50 184.50Q379 211 444 211Q512 211 539.50 184.50Q567 158 567 98Z"  horiz-adv-x="1049" vert-adv-y="2048"  />

      
      <glyph glyph-name="uni40" unicode="&#x40;" d="M1815 569Q1815 303 1713 159.50Q1611 16 1432 16Q1325 16 1266.50 47Q1208 78 1188 158Q1042 43 891 43Q771 43 689 101Q607 159 563.50 268Q520 377 520 516Q520 756 631 889Q742 1022 940 1022Q1064 1022 1180 940L1180 993L1350 993L1350 270Q1350 205 1371.50 181.50Q1393 158 1446 158Q1543 158 1602 266.50Q1661 375 1661 561Q1661 904 1485.50 1088Q1310 1272 983 1272Q782 1272 619 1179Q456 1086 365 919Q274 752 274 551Q274 224 462.50 28Q651-168 979-168Q1220-168 1407-123L1440-266Q1255-309 977-309Q721-309 527-203.50Q333-98 227 98.50Q121 295 121 553Q121 792 231 990Q341 1188 540 1300.50Q739 1413 981 1413Q1377 1413 1596 1188.50Q1815 964 1815 569M1178 791Q1055 870 967 870Q819 870 756.50 781Q694 692 694 520Q694 203 930 203Q1031 203 1178 309L1178 791Z"  horiz-adv-x="1935" vert-adv-y="2048"  />

      
      <glyph glyph-name="uni41" unicode="&#x41;" d="M51 0L524 1384L764 1384L1237 0L1042 0L922 360L358 360L240 0L51 0M414 528L864 528L639 1202L414 528Z"  horiz-adv-x="1288" vert-adv-y="2048"  />

      
      <glyph glyph-name="uni42" unicode="&#x42;" d="M1157 406Q1157 193 1021 96.50Q885 0 633 0L182 0L182 1384L592 1384Q846 1384 958.50 1311.50Q1071 1239 1071 1069Q1071 930 1009.50 857Q948 784 856 756Q993 737 1075 655Q1157 573 1157 406M881 1028Q881 1134 815 1177.50Q749 1221 580 1221L367 1221L367 809L571 809Q737 809 809 862Q881 915 881 1028M965 414Q965 500 931.50 549.50Q898 599 828 622Q758 645 602 645L367 645L367 168L555 168Q731 168 810 191.50Q889 215 927 268.50Q965 322 965 414Z"  horiz-adv-x="1272" vert-adv-y="2048"  />

      
      <glyph glyph-name="uni43" unicode="&#x43;" d="M1243 242Q1177 136 1108.50 81.50Q1040 27 949-1Q858-29 735-29Q424-29 276.50 150.50Q129 330 129 692Q129 1053 275.50 1233Q422 1413 727 1413Q848 1413 943 1383Q1038 1353 1103.50 1300.50Q1169 1248 1223 1153L1071 1053Q1027 1127 982 1165.50Q937 1204 874 1226.50Q811 1249 727 1249Q519 1249 421.50 1110.50Q324 972 324 692Q324 416 420 275.50Q516 135 729 135Q847 135 934 181.50Q1021 228 1090 342L1243 242Z"  horiz-adv-x="1321" vert-adv-y="2048"  />

      
      <glyph glyph-name="uni44" unicode="&#x44;" d="M1174 692Q1174 438 1108.50 288Q1043 138 906.50 69Q770 0 522 0L170 0L170 1384L518 1384Q760 1384 900 1314.50Q1040 1245 1107 1094Q1174 943 1174 692M979 694Q979 892 935 1004Q891 1116 790 1166.50Q689 1217 508 1217L354 1217L354 168L508 168Q690 168 789.50 218.50Q889 269 934 380.50Q979 492 979 694Z"  horiz-adv-x="1292" vert-adv-y="2048"  />

      
      <glyph glyph-name="uni45" unicode="&#x45;" d="M182 0L182 1384L1028 1384L1028 1217L367 1217L367 813L932 813L932 645L367 645L367 168L1028 168L1028 0L182 0Z"  horiz-adv-x="1153" vert-adv-y="2048"  />

      
      <glyph glyph-name="uni46" unicode="&#x46;" d="M367 1217L367 813L922 813L922 645L367 645L367 0L182 0L182 1384L1020 1384L1020 1217L367 1217Z"  horiz-adv-x="1108" vert-adv-y="2048"  />

      
      <glyph glyph-name="uni47" unicode="&#x47;" d="M1075 1051Q1026 1141 945 1195Q864 1249 727 1249Q518 1249 421 1111Q324 973 324 688Q324 397 429 266Q534 135 741 135Q821 135 889.50 153.50Q958 172 1038 207L1038 535L702 535L702 702L1223 702L1223 106Q1110 43 998.50 7Q887-29 741-29Q429-29 279 150Q129 329 129 690Q129 1056 279.50 1234.50Q430 1413 729 1413Q899 1413 1022.50 1353Q1146 1293 1225 1153L1075 1051Z"  horiz-adv-x="1391" vert-adv-y="2048"  />

      
      <glyph glyph-name="uni48" unicode="&#x48;" d="M997 0L997 633L367 633L367 0L182 0L182 1384L367 1384L367 801L997 801L997 1384L1182 1384L1182 0L997 0Z"  horiz-adv-x="1364" vert-adv-y="2048"  />

      
      <glyph glyph-name="uni49" unicode="&#x49;" d="M668 0L102 0L102 160L293 160L293 1227L102 1227L102 1384L668 1384L668 1227L477 1227L477 160L668 160L668 0Z"  horiz-adv-x="770" vert-adv-y="2048"  />

      
      <glyph glyph-name="uni4a" unicode="&#x4a;" d="M700 377Q700 174 611 71.50Q522-31 311-31Q252-31 178-16.50Q104-2 51 20L119 178Q151 162 211 147.50Q271 133 309 133Q390 133 434 161Q478 189 497 253.50Q516 318 516 453L516 1384L700 1384L700 377Z"  horiz-adv-x="885" vert-adv-y="2048"  />

      
      <glyph glyph-name="uni4b" unicode="&#x4b;" d="M975 0L498 614L367 467L367 0L182 0L182 1384L367 1384L367 705L952 1384L1182 1384L616 748L1210 0L975 0Z"  horiz-adv-x="1264" vert-adv-y="2048"  />

      
      <glyph glyph-name="uni4c" unicode="&#x4c;" d="M182 0L182 1384L367 1384L367 168L993 168L993 0L182 0Z"  horiz-adv-x="1038" vert-adv-y="2048"  />

      
      <glyph glyph-name="uni4d" unicode="&#x4d;" d="M1235 0L1235 1147L852 377L737 377L358 1147L358 0L182 0L182 1384L432 1384L799 631L1169 1384L1411 1384L1411 0L1235 0Z"  horiz-adv-x="1593" vert-adv-y="2048"  />

      
      <glyph glyph-name="uni4e" unicode="&#x4e;" d="M985 0L360 1188L360 0L182 0L182 1384L453 1384L1026 297L1026 1384L1204 1384L1204 0L985 0Z"  horiz-adv-x="1386" vert-adv-y="2048"  />

      
      <glyph glyph-name="uni4f" unicode="&#x4f;" d="M1245 692Q1245 319 1104.50 145Q964-29 682-29Q396-29 257.50 148Q119 325 119 692Q119 1056 256 1234.50Q393 1413 682 1413Q967 1413 1106 1238Q1245 1063 1245 692M1051 692Q1051 979 964.50 1114Q878 1249 682 1249Q486 1249 399.50 1114Q313 979 313 692Q313 403 400.50 269Q488 135 682 135Q875 135 963 268Q1051 401 1051 692Z"  horiz-adv-x="1364" vert-adv-y="2048"  />

      
      <glyph glyph-name="uni50" unicode="&#x50;" d="M1083 942Q1083 692 965.50 580.50Q848 469 584 469L367 469L367 0L182 0L182 1384L592 1384Q851 1384 967 1277Q1083 1170 1083 942M889 938Q889 1083 817 1150Q745 1217 571 1217L367 1217L367 637L545 637Q691 637 758.50 665.50Q826 694 857.50 757.50Q889 821 889 938Z"  horiz-adv-x="1182" vert-adv-y="2048"  />

      
      <glyph glyph-name="uni51" unicode="&#x51;" d="M1249-293Q1146-328 1024-328Q834-328 733.50-248Q633-168 592-25Q346 2 232.50 180Q119 358 119 692Q119 1063 258 1238Q397 1413 684 1413Q965 1413 1105 1237.50Q1245 1062 1245 692Q1245 365 1136.50 189.50Q1028 14 801-23Q821-88 872.50-127Q924-166 1032-166Q1063-166 1110-159Q1157-152 1192-141L1249-293M1051 692Q1051 965 969 1107Q887 1249 684 1249Q490 1249 401.50 1115.50Q313 982 313 692Q313 400 402 267.50Q491 135 684 135Q876 135 963.50 269Q1051 403 1051 692Z"  horiz-adv-x="1364" vert-adv-y="2048"  />

      
      <glyph glyph-name="uni52" unicode="&#x52;" d="M961 0L608 565L367 565L367 0L182 0L182 1384L612 1384Q870 1384 982 1289Q1094 1194 1094 995Q1094 825 1025.50 726Q957 627 803 594L1178 0L961 0M903 981Q903 1118 833.50 1169.50Q764 1221 610 1221L367 1221L367 729L598 729Q714 729 780.50 753.50Q847 778 875 831.50Q903 885 903 981Z"  horiz-adv-x="1237" vert-adv-y="2048"  />

      
      <glyph glyph-name="uni53" unicode="&#x53;" d="M1112 379Q1112 185 984.50 78Q857-29 612-29Q425-29 300 37Q175 103 96 242L246 342Q363 135 608 135Q755 135 839.50 196.50Q924 258 924 365Q924 426 897 468Q870 510 826 538.50Q782 567 725 584.50Q668 602 606 618Q504 643 416 669.50Q328 696 263.50 738Q199 780 162 845.50Q125 911 125 1014Q125 1198 243.50 1305.50Q362 1413 598 1413Q786 1413 898 1343.50Q1010 1274 1075 1165L928 1061Q874 1151 796.50 1200Q719 1249 598 1249Q463 1249 388 1189.50Q313 1130 313 1030Q313 977 335.50 941Q358 905 400 880.50Q442 856 504.50 838.50Q567 821 647 801Q741 776 826 748.50Q911 721 974.50 676Q1038 631 1075 560Q1112 489 1112 379Z"  horiz-adv-x="1227" vert-adv-y="2048"  />

      
      <glyph glyph-name="uni54" unicode="&#x54;" d="M684 1217L684 0L500 0L500 1217L41 1217L41 1384L1143 1384L1143 1217L684 1217Z"  horiz-adv-x="1184" vert-adv-y="2048"  />

      
      <glyph glyph-name="uni55" unicode="&#x55;" d="M1223 578Q1223 351 1172 220Q1121 89 1011.50 29Q902-31 705-31Q509-31 396 30Q283 91 232.50 223Q182 355 182 578L182 1384L367 1384L367 598Q367 416 400 317.50Q433 219 504.50 176Q576 133 702 133Q829 133 901 175.50Q973 218 1005.50 311Q1038 404 1038 594L1038 1384L1223 1384L1223 578Z"  horiz-adv-x="1405" vert-adv-y="2048"  />

      
      <glyph glyph-name="uni56" unicode="&#x56;" d="M733 0L485 0L51 1384L244 1384L614 178L985 1384L1174 1384L733 0Z"  horiz-adv-x="1225" vert-adv-y="2048"  />

      
      <glyph glyph-name="uni57" unicode="&#x57;" d="M1356 0L1135 0L874 1108L612 0L395 0L68 1384L252 1384L510 266L772 1384L981 1384L1247 258L1509 1384L1690 1384L1356 0Z"  horiz-adv-x="1757" vert-adv-y="2048"  />

      
      <glyph glyph-name="uni58" unicode="&#x58;" d="M53 0L502 694L66 1384L283 1384L610 838L948 1384L1155 1384L713 700L1155 0L938 0L602 557L260 0L53 0Z"  horiz-adv-x="1208" vert-adv-y="2048"  />

      
      <glyph glyph-name="uni59" unicode="&#x59;" d="M666 535L666 0L479 0L479 526L41 1384L250 1384L575 711L907 1384L1106 1384L666 535Z"  horiz-adv-x="1147" vert-adv-y="2048"  />

      
      <glyph glyph-name="uni5a" unicode="&#x5a;" d="M92 0L92 176L821 1217L123 1217L123 1384L1040 1384L1040 1219L303 168L1057 168L1057 0L92 0Z"  horiz-adv-x="1163" vert-adv-y="2048"  />

      
      <glyph glyph-name="uni5b" unicode="&#x5b;" d="M195-395L195 1489L682 1489L682 1356L352 1356L352-262L682-262L682-395L195-395Z"  horiz-adv-x="805" vert-adv-y="2048"  />

      
      <glyph glyph-name="uni5c" unicode="&#x5c;" d="M817-299L100 1520L268 1520L983-299L817-299Z"  horiz-adv-x="991" vert-adv-y="2048"  />

      
      <glyph glyph-name="uni5d" unicode="&#x5d;" d="M123-395L123-262L453-262L453 1356L123 1356L123 1489L610 1489L610-395L123-395Z"  horiz-adv-x="805" vert-adv-y="2048"  />

      
      <glyph glyph-name="uni5e" unicode="&#x5e;" d="M948 594L623 1231L295 594L143 594L547 1384L696 1384L1100 594L948 594Z"  horiz-adv-x="1243" vert-adv-y="2048"  />

      
      <glyph glyph-name="uni5f" unicode="&#x5f;" d="M-10-256L-10-154L1034-154L1034-256L-10-256Z"  horiz-adv-x="1024" vert-adv-y="2048"  />

      
      <glyph glyph-name="uni60" unicode="&#x60;" d="M541 1208L268 1569L504 1569L682 1208L541 1208Z"  horiz-adv-x="1085" vert-adv-y="2048"  />

      
      <glyph glyph-name="uni61" unicode="&#x61;" d="M766 0L766 131Q686 61 605 15Q524-31 422-31Q272-31 190.50 60.50Q109 152 109 295Q109 403 151.50 474.50Q194 546 274.50 587.50Q355 629 508 647L766 670L766 721Q766 842 698.50 886Q631 930 512 930Q406 930 348.50 893Q291 856 266 813L125 899Q173 986 271.50 1032.50Q370 1079 516 1079Q742 1079 840 997Q938 915 938 713L938 0L766 0M766 532L598 516Q427 501 357 449.50Q287 398 287 299Q287 205 334 164Q381 123 475 123Q514 123 552 137.50Q590 152 627 173.50Q664 195 698.50 222.50Q733 250 766 276L766 532Z"  horiz-adv-x="1100" vert-adv-y="2048"  />

      
      <glyph glyph-name="uni62" unicode="&#x62;" d="M1057 532Q1057 267 948.50 118Q840-31 645-31Q561-31 481 3Q401 37 342 86L342 0L170 0L170 1489L342 1489L342 944Q401 1001 484 1040Q567 1079 662 1079Q856 1079 956.50 937Q1057 795 1057 532M879 528Q879 738 815 832Q751 926 629 926Q549 926 474 885Q399 844 342 791L342 236Q399 188 474 155.50Q549 123 621 123Q737 123 808 221Q879 319 879 528Z"  horiz-adv-x="1174" vert-adv-y="2048"  />

      
      <glyph glyph-name="uni63" unicode="&#x63;" d="M958 162Q909 78 822 23.50Q735-31 582-31Q351-31 234 108.50Q117 248 117 522Q117 796 233 937.50Q349 1079 575 1079Q834 1079 944 887L803 801Q764 862 711.50 896Q659 930 573 930Q422 930 358.50 820.50Q295 711 295 518Q295 371 325 289Q355 207 418.50 163Q482 119 580 119Q664 119 717 150.50Q770 182 817 248L958 162Z"  horiz-adv-x="1030" vert-adv-y="2048"  />

      
      <glyph glyph-name="uni64" unicode="&#x64;" d="M831 0L831 104Q772 47 689 8Q606-31 512-31Q323-31 220 111.50Q117 254 117 516Q117 773 229 926Q341 1079 539 1079Q698 1079 831 963L831 1489L1004 1489L1004 0L831 0M831 813Q694 926 561 926Q444 926 369.50 827.50Q295 729 295 520Q295 123 545 123Q627 123 701.50 164Q776 205 831 258L831 813Z"  horiz-adv-x="1174" vert-adv-y="2048"  />

      
      <glyph glyph-name="uni65" unicode="&#x65;" d="M295 504Q295 296 366 207.50Q437 119 594 119Q664 119 717 148.50Q770 178 819 244L961 156Q901 66 815 17.50Q729-31 582-31Q348-31 232.50 105Q117 241 117 516Q117 804 229.50 941.50Q342 1079 569 1079Q773 1079 875 961.50Q977 844 977 600L977 504L295 504M809 639Q807 780 749.50 858Q692 936 563 936Q440 936 378.50 865.50Q317 795 297 639L809 639Z"  horiz-adv-x="1081" vert-adv-y="2048"  />

      
      <glyph glyph-name="uni66" unicode="&#x66;" d="M676 1333Q647 1348 603 1359Q559 1370 524 1370Q437 1370 403 1325.50Q369 1281 369 1151L369 1049L602 1049L602 905L369 905L369 0L197 0L197 905L43 905L43 1049L197 1049L197 1151Q197 1341 268.50 1430.50Q340 1520 520 1520Q633 1520 723 1481L676 1333Z"  horiz-adv-x="633" vert-adv-y="2048"  />

      
      <glyph glyph-name="uni67" unicode="&#x67;" d="M1004 23Q1004-188 899.50-291.50Q795-395 553-395Q322-395 172-297L236-158Q371-252 553-252Q700-252 765.50-190.50Q831-129 831 12L831 135Q772 78 690 39Q608 0 512 0Q319 0 218 137.50Q117 275 117 535Q117 791 230 935Q343 1079 539 1079Q698 1079 831 963L831 1049L1004 1049L1004 23M831 813Q694 926 561 926Q430 926 362.50 824Q295 722 295 539Q295 337 358 245.50Q421 154 545 154Q689 154 831 289L831 813Z"  horiz-adv-x="1174" vert-adv-y="2048"  />

      
      <glyph glyph-name="uni68" unicode="&#x68;" d="M829 0L829 618Q829 768 814.50 817.50Q800 867 766 890Q732 913 666 913Q600 913 512 863Q424 813 342 741L342 0L170 0L170 1489L342 1489L342 893Q415 966 512 1022.50Q609 1079 707 1079Q859 1079 930 992.50Q1001 906 1001 700L1001 0L829 0Z"  horiz-adv-x="1163" vert-adv-y="2048"  />

      
      <glyph glyph-name="uni69" unicode="&#x69;" d="M369 1315Q369 1255 342 1233.50Q315 1212 256 1212Q193 1212 169 1239Q145 1266 145 1315Q145 1368 171 1392.50Q197 1417 256 1417Q317 1417 343 1393.50Q369 1370 369 1315M170 0L170 1049L342 1049L342 0L170 0Z"  horiz-adv-x="512" vert-adv-y="2048"  />

      
      <glyph glyph-name="uni6a" unicode="&#x6a;" d="M385 1315Q385 1255 358.50 1233.50Q332 1212 272 1212Q209 1212 185.50 1239Q162 1266 162 1315Q162 1368 187.50 1392.50Q213 1417 272 1417Q334 1417 359.50 1393.50Q385 1370 385 1315M358-45Q358-235 284-315Q210-395 45-395Q-55-395-143-365L-100-223Q-27-252 51-252Q135-252 160.50-193.50Q186-135 186-25L186 1049L358 1049L358-45Z"  horiz-adv-x="537" vert-adv-y="2048"  />

      
      <glyph glyph-name="uni6b" unicode="&#x6b;" d="M788 0L455 471L342 346L342 0L170 0L170 1489L342 1489L342 559L768 1049L979 1049L561 590L1001 0L788 0Z"  horiz-adv-x="1049" vert-adv-y="2048"  />

      
      <glyph glyph-name="uni6c" unicode="&#x6c;" d="M178 0L178 1489L350 1489L350 0L178 0Z"  horiz-adv-x="528" vert-adv-y="2048"  />

      
      <glyph glyph-name="uni6d" unicode="&#x6d;" d="M1378 0L1378 618Q1378 774 1366 824Q1354 874 1324 893.50Q1294 913 1233 913Q1181 913 1116 876Q1051 839 946 741L946 0L774 0L774 618Q774 766 762 818Q750 870 721 891.50Q692 913 631 913Q575 913 500 868.50Q425 824 342 741L342 0L170 0L170 1049L342 1049L342 893Q410 967 494 1023Q578 1079 674 1079Q780 1079 843.50 1030Q907 981 928 874Q1010 961 1095 1020Q1180 1079 1284 1079Q1380 1079 1438 1038.50Q1496 998 1523 921.50Q1550 845 1550 700L1550 0L1378 0Z"  horiz-adv-x="1712" vert-adv-y="2048"  />

      
      <glyph glyph-name="uni6e" unicode="&#x6e;" d="M829 0L829 618Q829 768 814 818Q799 868 765 890.50Q731 913 666 913Q600 913 512 863Q424 813 342 741L342 0L170 0L170 1049L342 1049L342 893Q415 966 512 1022.50Q609 1079 707 1079Q859 1079 930 992.50Q1001 906 1001 700L1001 0L829 0Z"  horiz-adv-x="1163" vert-adv-y="2048"  />

      
      <glyph glyph-name="uni6f" unicode="&#x6f;" d="M1040 522Q1040 249 922.50 109Q805-31 580-31Q355-31 236 107.50Q117 246 117 522Q117 803 236.50 941Q356 1079 580 1079Q806 1079 923 938.50Q1040 798 1040 522M862 522Q862 736 791.50 833Q721 930 580 930Q435 930 365 832.50Q295 735 295 522Q295 317 362.50 218Q430 119 580 119Q723 119 792.50 217Q862 315 862 522Z"  horiz-adv-x="1157" vert-adv-y="2048"  />

      
      <glyph glyph-name="uni70" unicode="&#x70;" d="M1057 532Q1057 274 944.50 121.50Q832-31 635-31Q478-31 342 86L342-395L170-395L170 1049L342 1049L342 944Q401 1001 484 1040Q567 1079 662 1079Q849 1079 953 937.50Q1057 796 1057 532M879 528Q879 926 629 926Q547 926 472 885Q397 844 342 791L342 236Q476 123 612 123Q729 123 804 221Q879 319 879 528Z"  horiz-adv-x="1174" vert-adv-y="2048"  />

      
      <glyph glyph-name="uni71" unicode="&#x71;" d="M831-395L831 104Q772 47 689 8Q606-31 512-31Q321-31 219 108Q117 247 117 516Q117 781 225 930Q333 1079 528 1079Q612 1079 692 1045.50Q772 1012 831 963L831 1049L1004 1049L1004-395L831-395M831 813Q774 860 699.50 893Q625 926 553 926Q436 926 365.50 827.50Q295 729 295 520Q295 311 358 217Q421 123 545 123Q686 123 831 258L831 813Z"  horiz-adv-x="1174" vert-adv-y="2048"  />

      
      <glyph glyph-name="uni72" unicode="&#x72;" d="M737 879Q709 891 657 891Q580 891 508.50 855.50Q437 820 342 725L342 0L170 0L170 1049L342 1049L342 879Q414 952 493.50 1008.50Q573 1065 670 1065Q735 1065 774 1044L737 879Z"  horiz-adv-x="811" vert-adv-y="2048"  />

      
      <glyph glyph-name="uni73" unicode="&#x73;" d="M887 283Q887 136 783 52.50Q679-31 487-31Q356-31 252 18.50Q148 68 100 158L238 242Q317 115 492 115Q606 115 662.50 158.50Q719 202 719 276Q719 320 699 347.50Q679 375 637 395.50Q595 416 465 451Q278 494 201.50 570Q125 646 125 772Q125 911 225 995Q325 1079 502 1079Q639 1079 732 1025Q825 971 868 895L731 811Q649 934 498 934Q412 934 352.50 896Q293 858 293 778Q293 707 345 675Q397 643 508 616Q686 570 754 530Q822 490 854.50 431.50Q887 373 887 283Z"  horiz-adv-x="991" vert-adv-y="2048"  />

      
      <glyph glyph-name="uni74" unicode="&#x74;" d="M694 0Q594-31 496-31Q336-31 266.50 53Q197 137 197 317L197 905L47 905L47 1049L197 1049L197 1341L369 1341L369 1049L635 1049L635 905L369 905L369 350Q369 223 394.50 168Q420 113 508 113Q584 113 649 141L694 0Z"  horiz-adv-x="729" vert-adv-y="2048"  />

      
      <glyph glyph-name="uni75" unicode="&#x75;" d="M821 0L821 156Q741 76 645 22.50Q549-31 457-31Q352-31 286.50 8.50Q221 48 191.50 127.50Q162 207 162 348L162 1049L334 1049L334 430Q334 280 349.50 230Q365 180 399 157.50Q433 135 498 135Q563 135 651 185.50Q739 236 821 307L821 1049L993 1049L993 0L821 0Z"  horiz-adv-x="1163" vert-adv-y="2048"  />

      
      <glyph glyph-name="uni76" unicode="&#x76;" d="M588 0L418 0L51 1049L236 1049L508 225L778 1049L956 1049L588 0Z"  horiz-adv-x="1008" vert-adv-y="2048"  />

      
      <glyph glyph-name="uni77" unicode="&#x77;" d="M1153 0L993 0L737 803L481 0L324 0L63 1049L242 1049L420 250L670 1049L813 1049L1069 250L1239 1049L1411 1049L1153 0Z"  horiz-adv-x="1475" vert-adv-y="2048"  />

      
      <glyph glyph-name="uni78" unicode="&#x78;" d="M741 0L500 399L250 0L55 0L403 518L59 1049L270 1049L512 651L760 1049L956 1049L608 530L956 0L741 0Z"  horiz-adv-x="1012" vert-adv-y="2048"  />

      
      <glyph glyph-name="uni79" unicode="&#x79;" d="M39-223Q104-252 190-252Q311-252 395-33L430 57L47 1049L233 1049L522 281L813 1049L993 1049L545-80Q474-253 393-324Q312-395 182-395Q135-395 82-386Q29-377-4-365L39-223Z"  horiz-adv-x="1040" vert-adv-y="2048"  />

      
      <glyph glyph-name="uni7a" unicode="&#x7a;" d="M82 0L82 131L629 905L94 905L94 1049L836 1049L836 924L287 145L852 145L852 0L82 0Z"  horiz-adv-x="934" vert-adv-y="2048"  />

      
      <glyph glyph-name="uni7b" unicode="&#x7b;" d="M805-395Q625-395 518.50-297Q412-199 412-14L412 133Q412 311 337.50 400Q263 489 121 489L102 489L102 637L121 637Q412 637 412 993L412 1139Q412 1327 519.50 1423.50Q627 1520 805 1520L874 1520L874 1386L823 1386Q692 1386 630.50 1320.50Q569 1255 569 1122L569 950Q569 793 495.50 700.50Q422 608 289 561Q569 466 569 174L569 2Q569-131 630.50-196.50Q692-262 823-262L874-262L874-395L805-395Z"  horiz-adv-x="977" vert-adv-y="2048"  />

      
      <glyph glyph-name="uni7c" unicode="&#x7c;" d="M348-395L348 1520L504 1520L504-395L348-395Z"  horiz-adv-x="852" vert-adv-y="2048"  />

      
      <glyph glyph-name="uni7d" unicode="&#x7d;" d="M102-395L102-262L154-262Q285-262 346.50-196.50Q408-131 408 2L408 174Q408 466 688 561Q555 608 481.50 700.50Q408 793 408 950L408 1122Q408 1255 346.50 1320.50Q285 1386 154 1386L102 1386L102 1520L172 1520Q365 1520 465 1421.50Q565 1323 565 1139L565 993Q565 637 856 637L874 637L874 489L856 489Q714 489 639.50 400Q565 311 565 133L565-14Q565-199 459.50-297Q354-395 172-395L102-395Z"  horiz-adv-x="977" vert-adv-y="2048"  />

      
      <glyph glyph-name="uni7e" unicode="&#x7e;" d="M164 774Q264 854 342 877.50Q420 901 469 901Q530 901 594.50 876.50Q659 852 723.50 822.50Q788 793 849.50 768Q911 743 967 743Q1014 743 1058.50 759Q1103 775 1143 797.50Q1183 820 1264 887L1264 727Q1247 715 1218.50 694.50Q1190 674 1152 652.50Q1114 631 1067 615.50Q1020 600 971 600Q909 600 840.50 624.50Q772 649 704.50 679Q637 709 574.50 733.50Q512 758 465 758Q399 758 321 720.50Q243 683 164 614L164 774Z"  horiz-adv-x="1427" vert-adv-y="2048"  />

      
      <glyph glyph-name="unia1" unicode="&#xa1;" d="M399 967Q399 907 371.50 880.50Q344 854 279 854Q211 854 183.50 880.50Q156 907 156 967Q156 1030 185.50 1054.50Q215 1079 279 1079Q350 1079 374.50 1049.50Q399 1020 399 967M178-395L203 692L348 692L377-395L178-395Z"  horiz-adv-x="555" vert-adv-y="2048"  />

      
      <glyph glyph-name="unia2" unicode="&#xa2;" d="M346-260L401-4Q248 47 182.50 186.50Q117 326 117 522Q117 796 233 937.50Q349 1079 575 1079Q607 1079 639 1075L686 1288L805 1288L752 1051Q877 1008 944 887L803 801Q762 862 717 891L549 119L580 119Q664 119 717 150.50Q770 182 817 248L958 162Q909 78 822 23.50Q735-31 582-31Q548-31 516-27L465-260L346-260M295 518Q295 389 324.50 293Q354 197 436 152L606 928L590 930L573 930Q422 930 358.50 820.50Q295 711 295 518Z"  horiz-adv-x="1030" vert-adv-y="2048"  />

      
      <glyph glyph-name="unia3" unicode="&#xa3;" d="M113 0L113 156Q182 170 220 226.50Q258 283 275.50 361.50Q293 440 293 588L137 588L137 719L287 719L277 768Q233 927 233 1044Q233 1217 360 1315Q487 1413 702 1413Q1008 1413 1145 1194L991 1104Q946 1176 872.50 1219Q799 1262 702 1262Q567 1262 495.50 1197.50Q424 1133 424 1016Q424 940 448 844Q473 740 475 719L856 719L856 588L483 588Q483 413 442 311.50Q401 210 322 156L1159 156L1159 0L113 0Z"  horiz-adv-x="1264" vert-adv-y="2048"  />

      
      <glyph glyph-name="unia4" unicode="&#xa4;" d="M211 74L119 164L313 362Q242 462 242 586Q242 721 311 811L119 1006L211 1098L403 907Q503 983 631 983Q764 983 860 909L1053 1098L1143 1006L956 815Q1030 719 1030 586Q1030 471 954 358L1143 164L1053 74L858 264Q799 223 744.50 209Q690 195 631 195Q504 195 408 266L211 74M885 586Q885 695 811.50 769.50Q738 844 631 844Q525 844 456 768.50Q387 693 387 586Q387 520 418 462Q449 404 506.50 369Q564 334 631 334Q740 334 812.50 408Q885 482 885 586Z"  horiz-adv-x="1264" vert-adv-y="2048"  />

      
      <glyph glyph-name="unia5" unicode="&#xa5;" d="M823 760L1126 760L1126 639L752 639L723 594L723 489L1126 489L1126 369L723 369L723 0L539 0L539 369L137 369L137 489L539 489L539 586L506 639L137 639L137 760L436 760L66 1384L274 1384L635 760L999 1384L1198 1384L823 760Z"  horiz-adv-x="1264" vert-adv-y="2048"  />

      
      <glyph glyph-name="unia6" unicode="&#xa6;" d="M348 883L348 1520L504 1520L504 883L348 883M348-395L348 242L504 242L504-395L348-395Z"  horiz-adv-x="852" vert-adv-y="2048"  />

      
      <glyph glyph-name="unia7" unicode="&#xa7;" d="M973 500Q973 399 913.50 329.50Q854 260 731 184Q831 117 873 56.50Q915-4 915-68Q915-219 806.50-293Q698-367 520-367Q257-367 137-219L264-123Q359-225 516-225Q631-225 683-188.50Q735-152 735-76Q735-23 684.50 21.50Q634 66 489 141Q328 228 258.50 283.50Q189 339 149 401.50Q109 464 109 545Q109 649 177.50 724Q246 799 352 862Q260 926 216 985Q172 1044 172 1116Q172 1251 270.50 1332Q369 1413 567 1413Q837 1413 950 1266L823 1169Q736 1270 571 1270Q352 1270 352 1124Q352 1065 407.50 1021Q463 977 580 911Q753 815 828 754.50Q903 694 938 632Q973 570 973 500M805 492Q805 534 775 575Q745 616 686.50 659.50Q628 703 483 784Q393 729 334.50 673.50Q276 618 276 551Q276 496 336.50 435Q397 374 501 318L602 262Q692 322 748.50 370Q805 418 805 492Z"  horiz-adv-x="1081" vert-adv-y="2048"  />

      
      <glyph glyph-name="unia8" unicode="&#xa8;" d="M852 1315Q852 1255 827.50 1231.50Q803 1208 743 1208Q680 1208 658.50 1237Q637 1266 637 1315Q637 1368 660.50 1394.50Q684 1421 743 1421Q805 1421 828.50 1395.50Q852 1370 852 1315M457 1315Q457 1255 432.50 1231.50Q408 1208 348 1208Q285 1208 263.50 1237Q242 1266 242 1315Q242 1368 265.50 1394.50Q289 1421 348 1421Q410 1421 433.50 1395.50Q457 1370 457 1315Z"  horiz-adv-x="1085" vert-adv-y="2048"  />

      
      <glyph glyph-name="unia9" unicode="&#xa9;" d="M928-197Q708-197 522.50-89.50Q337 18 230 204.50Q123 391 123 610Q123 831 229 1015.50Q335 1200 522.50 1306.50Q710 1413 928 1413Q1149 1413 1333.50 1307Q1518 1201 1624.50 1013.50Q1731 826 1731 610Q1731 389 1624.50 202Q1518 15 1332.50-91Q1147-197 928-197M928-68Q1107-68 1263.50 22.50Q1420 113 1509.50 270Q1599 427 1599 610Q1599 793 1508.50 950Q1418 1107 1262.50 1196.50Q1107 1286 928 1286Q747 1286 591.50 1195.50Q436 1105 346 948Q256 791 256 610Q256 427 345 271Q434 115 590 23.50Q746-68 928-68M952 170Q748 170 652.50 279.50Q557 389 557 612Q557 836 651 946.50Q745 1057 948 1057Q1071 1057 1148 1007.50Q1225 958 1266 881L1147 807Q1118 858 1074 896Q1030 934 946 934Q811 934 756.50 853Q702 772 702 612Q702 449 760.50 371Q819 293 948 293Q1084 293 1159 426L1278 354Q1221 258 1142 214Q1063 170 952 170Z"  horiz-adv-x="1855" vert-adv-y="2048"  />

      
      <glyph glyph-name="uniaa" unicode="&#xaa;" d="M518 817L518 889Q471 850 420 824.50Q369 799 305 799Q203 799 147.50 859.50Q92 920 92 1014Q92 1118 154.50 1174.50Q217 1231 360 1247L518 1260L518 1284Q518 1356 479 1380.50Q440 1405 365 1405Q252 1405 207 1327L98 1393Q129 1444 189.50 1482Q250 1520 367 1520Q514 1520 582.50 1467.50Q651 1415 651 1278L651 817L518 817M518 1153L420 1143Q328 1135 277.50 1110Q227 1085 227 1016Q227 963 255 939Q283 915 340 915Q387 915 431 944Q475 973 518 1008L518 1153Z"  horiz-adv-x="780" vert-adv-y="2048"  />

      
      <glyph glyph-name="uniab" unicode="&#xab;" d="M954 53L561 524L954 995L1151 995L758 524L1151 53L954 53M465 53L72 524L465 995L662 995L268 524L662 53L465 53Z"  horiz-adv-x="1225" vert-adv-y="2048"  />

      
      <glyph glyph-name="uniac" unicode="&#xac;" d="M1120 367L1120 827L164 827L164 971L1264 971L1264 367L1120 367Z"  horiz-adv-x="1427" vert-adv-y="2048"  />

      
      <glyph glyph-name="uniad" unicode="&#xad;" d="M102 440L102 612L725 612L725 440L102 440Z"  horiz-adv-x="827" vert-adv-y="2048"  />

      
      <glyph glyph-name="uniae" unicode="&#xae;" d="M928-197Q708-197 522.50-89.50Q337 18 230 204.50Q123 391 123 610Q123 831 229 1015.50Q335 1200 522.50 1306.50Q710 1413 928 1413Q1149 1413 1333.50 1307Q1518 1201 1624.50 1013.50Q1731 826 1731 610Q1731 389 1624.50 202Q1518 15 1332.50-91Q1147-197 928-197M928-68Q1107-68 1263.50 22.50Q1420 113 1509.50 270Q1599 427 1599 610Q1599 793 1508.50 950Q1418 1107 1262.50 1196.50Q1107 1286 928 1286Q747 1286 591.50 1195.50Q436 1105 346 948Q256 791 256 610Q256 427 345 271Q434 115 590 23.50Q746-68 928-68M643 201L643 1051L918 1051Q1069 1051 1150 998.50Q1231 946 1231 805Q1231 694 1185 637Q1139 580 1061 557L1294 201L1130 201L913 537L782 537L782 201L643 201M782 657L911 657Q1014 657 1049.50 689Q1085 721 1085 799Q1085 872 1048.50 902Q1012 932 918 932L782 932L782 657Z"  horiz-adv-x="1855" vert-adv-y="2048"  />

      
      <glyph glyph-name="uniaf" unicode="&#xaf;" d="M238 1255L238 1395L848 1395L848 1255L238 1255Z"  horiz-adv-x="1085" vert-adv-y="2048"  />

      
      <glyph glyph-name="unib0" unicode="&#xb0;" d="M713 1241Q713 1165 674 1098Q635 1031 571 994.50Q507 958 434 958Q315 958 233.50 1042Q152 1126 152 1241Q152 1353 232 1436.50Q312 1520 432 1520Q548 1520 630.50 1438.50Q713 1357 713 1241M594 1239Q594 1307 548 1354Q502 1401 434 1401Q362 1401 316 1353Q270 1305 270 1241Q270 1174 317.50 1125.50Q365 1077 434 1077Q502 1077 548 1125.50Q594 1174 594 1239Z"  horiz-adv-x="864" vert-adv-y="2048"  />

      
      <glyph glyph-name="unib1" unicode="&#xb1;" d="M784 809L784 330L641 330L641 809L164 809L164 952L641 952L641 1430L784 1430L784 952L1264 952L1264 809L784 809M164 0L164 143L1264 143L1264 0L164 0Z"  horiz-adv-x="1427" vert-adv-y="2048"  />

      
      <glyph glyph-name="unib2" unicode="&#xb2;" d="M115 655L115 793Q189 845 323.50 954Q458 1063 518.50 1134Q579 1205 575 1276Q575 1335 531 1365Q487 1395 428 1395Q320 1395 240 1284L106 1362Q212 1524 432 1524Q580 1524 662.50 1460.50Q745 1397 745 1280Q745 1195 706.50 1133Q668 1071 584 996Q500 921 324 786L774 786L774 655L115 655Z"  horiz-adv-x="889" vert-adv-y="2048"  />

      
      <glyph glyph-name="unib3" unicode="&#xb3;" d="M745 905Q745 772 653 704.50Q561 637 395 637Q293 637 209 676Q125 715 84 778L217 852Q244 817 290 791.50Q336 766 393 766Q487 766 530 802Q573 838 573 911Q573 981 525 1011.50Q477 1042 385 1042L295 1042L295 1169L373 1169Q459 1169 509 1201Q559 1233 559 1292Q559 1346 519 1371.50Q479 1397 414 1397Q297 1397 227 1298L94 1374Q134 1430 176.50 1459.50Q219 1489 282 1506.50Q345 1524 424 1524Q584 1524 657.50 1460.50Q731 1397 731 1309Q731 1169 592 1116Q659 1092 702 1037.50Q745 983 745 905Z"  horiz-adv-x="889" vert-adv-y="2048"  />

      
      <glyph glyph-name="unib4" unicode="&#xb4;" d="M623 1208L481 1208L659 1569L895 1569L623 1208Z"  horiz-adv-x="1085" vert-adv-y="2048"  />

      
      <glyph glyph-name="unib5" unicode="&#xb5;" d="M1018 0L852 0L842 119Q782 43 718.50 6Q655-31 571-31Q496-31 438.50-15.50Q381 0 313 51L313-395L139-395L139 1049L313 1049L313 256Q356 203 426 171Q496 139 569 139Q722 139 842 283L842 1049L1018 1049L1018 0Z"  horiz-adv-x="1169" vert-adv-y="2048"  />

      
      <glyph glyph-name="unib6" unicode="&#xb6;" d="M1004 1356L1004-395L844-395L844 1356L649 1356L649-395L489-395L489 645Q369 645 270 696.50Q171 748 115 844.50Q59 941 59 1069Q59 1260 191.50 1374.50Q324 1489 539 1489L1196 1489L1196 1356L1004 1356Z"  horiz-adv-x="1257" vert-adv-y="2048"  />

      
      <glyph glyph-name="unib7" unicode="&#xb7;" d="M399 745Q399 682 369.50 657.50Q340 633 276 633Q205 633 180.50 662.50Q156 692 156 745Q156 805 183.50 831.50Q211 858 276 858Q344 858 371.50 831.50Q399 805 399 745Z"  horiz-adv-x="555" vert-adv-y="2048"  />

      
      <glyph glyph-name="unib8" unicode="&#xb8;" d="M739-215Q739-301 670.50-348Q602-395 483-395Q406-395 336-377.50Q266-360 244-348L295-248Q324-258 380-269.50Q436-281 487-281Q608-281 608-203Q608-163 565.50-135Q523-107 432-100L494 18L600 18L575-31Q662-53 700.50-104.50Q739-156 739-215Z"  horiz-adv-x="1085" vert-adv-y="2048"  />

      
      <glyph glyph-name="unib9" unicode="&#xb9;" d="M406 655L406 1241L182 1241L182 1348Q311 1352 364.50 1385.50Q418 1419 442 1505L567 1505L567 655L406 655Z"  horiz-adv-x="889" vert-adv-y="2048"  />

      
      <glyph glyph-name="uniba" unicode="&#xba;" d="M723 1157Q723 981 643.50 890Q564 799 414 799Q260 799 181 890.50Q102 982 102 1157Q102 1337 182 1428.50Q262 1520 414 1520Q565 1520 644 1426.50Q723 1333 723 1157M588 1157Q588 1270 551 1337.50Q514 1405 414 1405Q323 1405 281.50 1346.50Q240 1288 240 1157Q240 1028 281.50 970.50Q323 913 414 913Q514 913 551 980Q588 1047 588 1157Z"  horiz-adv-x="825" vert-adv-y="2048"  />

      
      <glyph glyph-name="unibb" unicode="&#xbb;" d="M760 53L563 53L956 524L563 995L760 995L1153 524L760 53M270 53L74 53L467 524L74 995L270 995L664 524L270 53Z"  horiz-adv-x="1225" vert-adv-y="2048"  />

      
      <glyph glyph-name="unibc" unicode="&#xbc;" d="M645-51L481-51L1260 1436L1426 1436L645-51M385 540L385 1126L161 1126L161 1233Q290 1237 343.50 1270.50Q397 1304 421 1390L546 1390L546 540L385 540M1737 174L1737-9L1577-9L1577 174L1100 174L1100 299L1596 841L1737 841L1737 299L1864 299L1864 174L1737 174M1577 624L1278 299L1577 299L1577 624Z"  horiz-adv-x="1946" vert-adv-y="2048"  />

      
      <glyph glyph-name="unibd" unicode="&#xbd;" d="M561-51L397-51L1176 1436L1342 1436L561-51M308 540L308 1126L84 1126L84 1233Q213 1237 266.50 1270.50Q320 1304 344 1390L469 1390L469 540L308 540M1141-11L1141 127Q1215 179 1349.50 288Q1484 397 1544.50 468Q1605 539 1601 610Q1601 669 1557 699Q1513 729 1454 729Q1346 729 1266 618L1132 696Q1238 858 1458 858Q1606 858 1688.50 794.50Q1771 731 1771 614Q1771 529 1732.50 467Q1694 405 1610 330Q1526 255 1350 120L1800 120L1800-11L1141-11Z"  horiz-adv-x="1946" vert-adv-y="2048"  />

      
      <glyph glyph-name="unibe" unicode="&#xbe;" d="M749-51L585-51L1364 1436L1530 1436L749-51M1737 172L1737-11L1577-11L1577 172L1100 172L1100 297L1596 839L1737 839L1737 297L1864 297L1864 172L1737 172M1577 622L1278 297L1577 297L1577 622M765 790Q765 657 673 589.50Q581 522 415 522Q313 522 229 561Q145 600 104 663L237 737Q264 702 310 676.50Q356 651 413 651Q507 651 550 687Q593 723 593 796Q593 866 545 896.50Q497 927 405 927L315 927L315 1054L393 1054Q479 1054 529 1086Q579 1118 579 1177Q579 1231 539 1256.50Q499 1282 434 1282Q317 1282 247 1183L114 1259Q154 1315 196.50 1344.50Q239 1374 302 1391.50Q365 1409 444 1409Q604 1409 677.50 1345.50Q751 1282 751 1194Q751 1054 612 1001Q679 977 722 922.50Q765 868 765 790Z"  horiz-adv-x="1946" vert-adv-y="2048"  />

      
      <glyph glyph-name="unibf" unicode="&#xbf;" d="M725 967Q725 907 697.50 880.50Q670 854 604 854Q537 854 509 880.50Q481 907 481 967Q481 1030 511 1054.50Q541 1079 604 1079Q676 1079 700.50 1049.50Q725 1020 725 967M981-188Q867-395 563-395Q352-395 230.50-297Q109-199 109-14Q109 88 149 170Q189 252 264 322Q339 392 518 496L518 692L692 692L692 420Q513 314 439.50 254Q366 194 334.50 135.50Q303 77 303 0Q303-113 369.50-172Q436-231 561-231Q670-231 732.50-190.50Q795-150 829-90L981-188Z"  horiz-adv-x="1049" vert-adv-y="2048"  />

      
      <glyph glyph-name="unic0" unicode="&#xc0;" d="M51 0L524 1384L764 1384L1237 0L1042 0L922 360L358 360L240 0L51 0M414 528L864 528L639 1202L414 528M637 1544L364 1905L600 1905L778 1544L637 1544Z"  horiz-adv-x="1288" vert-adv-y="2048"  />

      
      <glyph glyph-name="unic1" unicode="&#xc1;" d="M51 0L524 1384L764 1384L1237 0L1042 0L922 360L358 360L240 0L51 0M414 528L864 528L639 1202L414 528M662 1544L520 1544L698 1905L934 1905L662 1544Z"  horiz-adv-x="1288" vert-adv-y="2048"  />

      
      <glyph glyph-name="unic2" unicode="&#xc2;" d="M51 0L524 1384L764 1384L1237 0L1042 0L922 360L358 360L240 0L51 0M414 528L864 528L639 1202L414 528M827 1544L643 1782L458 1544L309 1544L538 1905L749 1905L977 1544L827 1544Z"  horiz-adv-x="1288" vert-adv-y="2048"  />

      
      <glyph glyph-name="unic3" unicode="&#xc3;" d="M51 0L524 1384L764 1384L1237 0L1042 0L922 360L358 360L240 0L51 0M414 528L864 528L639 1202L414 528M266 1557Q272 1682 333.50 1750.50Q395 1819 495 1819Q551 1819 591.50 1796.50Q632 1774 667 1748Q702 1722 733 1699.50Q764 1677 800 1677Q888 1677 897 1806L1018 1806Q999 1544 786 1544Q721 1544 681 1566.50Q641 1589 610 1617Q579 1645 551.50 1667.50Q524 1690 483 1690Q432 1690 411.50 1654Q391 1618 387 1557L266 1557Z"  horiz-adv-x="1288" vert-adv-y="2048"  />

      
      <glyph glyph-name="unic4" unicode="&#xc4;" d="M51 0L524 1384L764 1384L1237 0L1042 0L922 360L358 360L240 0L51 0M414 528L864 528L639 1202L414 528M952 1651Q952 1591 927.50 1567.50Q903 1544 843 1544Q780 1544 758.50 1573Q737 1602 737 1651Q737 1704 760.50 1730.50Q784 1757 843 1757Q905 1757 928.50 1731.50Q952 1706 952 1651M557 1651Q557 1591 532.50 1567.50Q508 1544 448 1544Q385 1544 363.50 1573Q342 1602 342 1651Q342 1704 365.50 1730.50Q389 1757 448 1757Q510 1757 533.50 1731.50Q557 1706 557 1651Z"  horiz-adv-x="1288" vert-adv-y="2048"  />

      
      <glyph glyph-name="unic5" unicode="&#xc5;" d="M51 0L524 1384L764 1384L1237 0L1042 0L922 360L358 360L240 0L51 0M414 528L864 528L639 1202L414 528M841 1692Q841 1602 793 1548.50Q745 1495 643 1495Q538 1495 492 1550.50Q446 1606 446 1692Q446 1780 493 1834Q540 1888 643 1888Q747 1888 794 1835Q841 1782 841 1692M741 1692Q741 1792 643 1792Q546 1792 546 1692Q546 1591 643 1591Q741 1591 741 1692Z"  horiz-adv-x="1288" vert-adv-y="2048"  />

      
      <glyph glyph-name="unic6" unicode="&#xc6;" d="M834 0L834 383L381 383L236 0L45 0L578 1384L1622 1384L1622 1217L1018 1217L1018 809L1544 809L1544 641L1018 641L1018 168L1622 168L1622 0L834 0M834 1217L694 1217L442 551L834 551L834 1217Z"  horiz-adv-x="1747" vert-adv-y="2048"  />

      
      <glyph glyph-name="unic7" unicode="&#xc7;" d="M979-215Q979-301 910.50-348Q842-395 723-395Q645-395 575.50-377.50Q506-360 483-348L535-248Q563-258 619.50-269.50Q676-281 727-281Q848-281 848-203Q848-163 805.50-135Q763-107 672-100L709-29Q412-20 270.50 159Q129 338 129 692Q129 1053 275.50 1233Q422 1413 727 1413Q848 1413 943 1383Q1038 1353 1103.50 1300.50Q1169 1248 1223 1153L1071 1053Q1027 1127 982 1165.50Q937 1204 874 1226.50Q811 1249 727 1249Q519 1249 421.50 1110.50Q324 972 324 692Q324 416 420 275.50Q516 135 729 135Q847 135 934 181.50Q1021 228 1090 342L1243 242Q1165 111 1062.50 50.50Q960-10 817-25L815-31Q901-53 940-104.50Q979-156 979-215Z"  horiz-adv-x="1321" vert-adv-y="2048"  />

      
      <glyph glyph-name="unic8" unicode="&#xc8;" d="M182 0L182 1384L1028 1384L1028 1217L367 1217L367 813L932 813L932 645L367 645L367 168L1028 168L1028 0L182 0M613 1544L340 1905L576 1905L754 1544L613 1544Z"  horiz-adv-x="1153" vert-adv-y="2048"  />

      
      <glyph glyph-name="unic9" unicode="&#xc9;" d="M182 0L182 1384L1028 1384L1028 1217L367 1217L367 813L932 813L932 645L367 645L367 168L1028 168L1028 0L182 0M623 1544L481 1544L659 1905L895 1905L623 1544Z"  horiz-adv-x="1153" vert-adv-y="2048"  />

      
      <glyph glyph-name="unica" unicode="&#xca;" d="M182 0L182 1384L1028 1384L1028 1217L367 1217L367 813L932 813L932 645L367 645L367 168L1028 168L1028 0L182 0M788 1544L604 1782L419 1544L270 1544L499 1905L710 1905L938 1544L788 1544Z"  horiz-adv-x="1153" vert-adv-y="2048"  />

      
      <glyph glyph-name="unicb" unicode="&#xcb;" d="M182 0L182 1384L1028 1384L1028 1217L367 1217L367 813L932 813L932 645L367 645L367 168L1028 168L1028 0L182 0M897 1651Q897 1591 872.50 1567.50Q848 1544 788 1544Q725 1544 703.50 1573Q682 1602 682 1651Q682 1704 705.50 1730.50Q729 1757 788 1757Q850 1757 873.50 1731.50Q897 1706 897 1651M502 1651Q502 1591 477.50 1567.50Q453 1544 393 1544Q330 1544 308.50 1573Q287 1602 287 1651Q287 1704 310.50 1730.50Q334 1757 393 1757Q455 1757 478.50 1731.50Q502 1706 502 1651Z"  horiz-adv-x="1153" vert-adv-y="2048"  />

      
      <glyph glyph-name="unicc" unicode="&#xcc;" d="M668 0L102 0L102 160L293 160L293 1227L102 1227L102 1384L668 1384L668 1227L477 1227L477 160L668 160L668 0M365 1544L92 1905L328 1905L506 1544L365 1544Z"  horiz-adv-x="770" vert-adv-y="2048"  />

      
      <glyph glyph-name="unicd" unicode="&#xcd;" d="M668 0L102 0L102 160L293 160L293 1227L102 1227L102 1384L668 1384L668 1227L477 1227L477 160L668 160L668 0M437 1544L295 1544L473 1905L709 1905L437 1544Z"  horiz-adv-x="770" vert-adv-y="2048"  />

      
      <glyph glyph-name="unice" unicode="&#xce;" d="M668 0L102 0L102 160L293 160L293 1227L102 1227L102 1384L668 1384L668 1227L477 1227L477 160L668 160L668 0M575 1544L391 1782L206 1544L57 1544L286 1905L497 1905L725 1544L575 1544Z"  horiz-adv-x="770" vert-adv-y="2048"  />

      
      <glyph glyph-name="unicf" unicode="&#xcf;" d="M668 0L102 0L102 160L293 160L293 1227L102 1227L102 1384L668 1384L668 1227L477 1227L477 160L668 160L668 0M700 1651Q700 1591 675.50 1567.50Q651 1544 591 1544Q528 1544 506.50 1573Q485 1602 485 1651Q485 1704 508.50 1730.50Q532 1757 591 1757Q653 1757 676.50 1731.50Q700 1706 700 1651M305 1651Q305 1591 280.50 1567.50Q256 1544 196 1544Q133 1544 111.50 1573Q90 1602 90 1651Q90 1704 113.50 1730.50Q137 1757 196 1757Q258 1757 281.50 1731.50Q305 1706 305 1651Z"  horiz-adv-x="770" vert-adv-y="2048"  />

      
      <glyph glyph-name="unid0" unicode="&#xd0;" d="M1249 692Q1249 438 1179 288Q1109 138 962 69Q815 0 549 0L182 0L182 627L63 627L63 768L182 768L182 1384L547 1384Q808 1384 957.50 1313.50Q1107 1243 1178 1091Q1249 939 1249 692M1055 694Q1055 986 940 1101.50Q825 1217 539 1217L367 1217L367 768L702 768L702 627L367 627L367 168L539 168Q737 168 846 218.50Q955 269 1005 382.50Q1055 496 1055 694Z"  horiz-adv-x="1378" vert-adv-y="2048"  />

      
      <glyph glyph-name="unid1" unicode="&#xd1;" d="M985 0L360 1188L360 0L182 0L182 1384L453 1384L1026 297L1026 1384L1204 1384L1204 0L985 0M297 1557Q303 1682 364.50 1750.50Q426 1819 526 1819Q582 1819 622.50 1796.50Q663 1774 698 1748Q733 1722 764 1699.50Q795 1677 831 1677Q919 1677 928 1806L1049 1806Q1030 1544 817 1544Q752 1544 712 1566.50Q672 1589 641 1617Q610 1645 582.50 1667.50Q555 1690 514 1690Q463 1690 442.50 1654Q422 1618 418 1557L297 1557Z"  horiz-adv-x="1386" vert-adv-y="2048"  />

      
      <glyph glyph-name="unid2" unicode="&#xd2;" d="M1245 692Q1245 319 1104.50 145Q964-29 682-29Q396-29 257.50 148Q119 325 119 692Q119 1056 256 1234.50Q393 1413 682 1413Q967 1413 1106 1238Q1245 1063 1245 692M1051 692Q1051 979 964.50 1114Q878 1249 682 1249Q486 1249 399.50 1114Q313 979 313 692Q313 403 400.50 269Q488 135 682 135Q875 135 963 268Q1051 401 1051 692M717 1544L444 1905L680 1905L858 1544L717 1544Z"  horiz-adv-x="1364" vert-adv-y="2048"  />

      
      <glyph glyph-name="unid3" unicode="&#xd3;" d="M1245 692Q1245 319 1104.50 145Q964-29 682-29Q396-29 257.50 148Q119 325 119 692Q119 1056 256 1234.50Q393 1413 682 1413Q967 1413 1106 1238Q1245 1063 1245 692M1051 692Q1051 979 964.50 1114Q878 1249 682 1249Q486 1249 399.50 1114Q313 979 313 692Q313 403 400.50 269Q488 135 682 135Q875 135 963 268Q1051 401 1051 692M727 1544L585 1544L763 1905L999 1905L727 1544Z"  horiz-adv-x="1364" vert-adv-y="2048"  />

      
      <glyph glyph-name="unid4" unicode="&#xd4;" d="M1245 692Q1245 319 1104.50 145Q964-29 682-29Q396-29 257.50 148Q119 325 119 692Q119 1056 256 1234.50Q393 1413 682 1413Q967 1413 1106 1238Q1245 1063 1245 692M1051 692Q1051 979 964.50 1114Q878 1249 682 1249Q486 1249 399.50 1114Q313 979 313 692Q313 403 400.50 269Q488 135 682 135Q875 135 963 268Q1051 401 1051 692M866 1544L682 1782L497 1544L348 1544L577 1905L788 1905L1016 1544L866 1544Z"  horiz-adv-x="1364" vert-adv-y="2048"  />

      
      <glyph glyph-name="unid5" unicode="&#xd5;" d="M1245 692Q1245 319 1104.50 145Q964-29 682-29Q396-29 257.50 148Q119 325 119 692Q119 1056 256 1234.50Q393 1413 682 1413Q967 1413 1106 1238Q1245 1063 1245 692M1051 692Q1051 979 964.50 1114Q878 1249 682 1249Q486 1249 399.50 1114Q313 979 313 692Q313 403 400.50 269Q488 135 682 135Q875 135 963 268Q1051 401 1051 692M305 1557Q311 1682 372.50 1750.50Q434 1819 534 1819Q590 1819 630.50 1796.50Q671 1774 706 1748Q741 1722 772 1699.50Q803 1677 839 1677Q927 1677 936 1806L1057 1806Q1038 1544 825 1544Q760 1544 720 1566.50Q680 1589 649 1617Q618 1645 590.50 1667.50Q563 1690 522 1690Q471 1690 450.50 1654Q430 1618 426 1557L305 1557Z"  horiz-adv-x="1364" vert-adv-y="2048"  />

      
      <glyph glyph-name="unid6" unicode="&#xd6;" d="M1245 692Q1245 319 1104.50 145Q964-29 682-29Q396-29 257.50 148Q119 325 119 692Q119 1056 256 1234.50Q393 1413 682 1413Q967 1413 1106 1238Q1245 1063 1245 692M1051 692Q1051 979 964.50 1114Q878 1249 682 1249Q486 1249 399.50 1114Q313 979 313 692Q313 403 400.50 269Q488 135 682 135Q875 135 963 268Q1051 401 1051 692M991 1651Q991 1591 966.50 1567.50Q942 1544 882 1544Q819 1544 797.50 1573Q776 1602 776 1651Q776 1704 799.50 1730.50Q823 1757 882 1757Q944 1757 967.50 1731.50Q991 1706 991 1651M596 1651Q596 1591 571.50 1567.50Q547 1544 487 1544Q424 1544 402.50 1573Q381 1602 381 1651Q381 1704 404.50 1730.50Q428 1757 487 1757Q549 1757 572.50 1731.50Q596 1706 596 1651Z"  horiz-adv-x="1364" vert-adv-y="2048"  />

      
      <glyph glyph-name="unid7" unicode="&#xd7;" d="M1120 78L713 485L307 78L205 180L612 586L205 993L307 1094L713 688L1120 1094L1221 993L815 586L1221 180L1120 78Z"  horiz-adv-x="1427" vert-adv-y="2048"  />

      
      <glyph glyph-name="unid8" unicode="&#xd8;" d="M68-115L252 156Q119 326 119 692Q119 1056 256 1234.50Q393 1413 682 1413Q907 1413 1042 1303L1171 1489L1321 1489L1126 1206Q1245 1029 1245 692Q1245 319 1104.50 145Q964-29 682-29Q469-29 342 68L217-115L68-115M1051 692Q1051 903 1004 1030L444 217Q528 135 682 135Q875 135 963 268Q1051 401 1051 692M313 692Q313 455 371 326L936 1149Q848 1249 682 1249Q486 1249 399.50 1114Q313 979 313 692Z"  horiz-adv-x="1364" vert-adv-y="2048"  />

      
      <glyph glyph-name="unid9" unicode="&#xd9;" d="M1223 578Q1223 351 1172 220Q1121 89 1011.50 29Q902-31 705-31Q509-31 396 30Q283 91 232.50 223Q182 355 182 578L182 1384L367 1384L367 598Q367 416 400 317.50Q433 219 504.50 176Q576 133 702 133Q829 133 901 175.50Q973 218 1005.50 311Q1038 404 1038 594L1038 1384L1223 1384L1223 578M707 1544L434 1905L670 1905L848 1544L707 1544Z"  horiz-adv-x="1405" vert-adv-y="2048"  />

      
      <glyph glyph-name="unida" unicode="&#xda;" d="M1223 578Q1223 351 1172 220Q1121 89 1011.50 29Q902-31 705-31Q509-31 396 30Q283 91 232.50 223Q182 355 182 578L182 1384L367 1384L367 598Q367 416 400 317.50Q433 219 504.50 176Q576 133 702 133Q829 133 901 175.50Q973 218 1005.50 311Q1038 404 1038 594L1038 1384L1223 1384L1223 578M748 1544L606 1544L784 1905L1020 1905L748 1544Z"  horiz-adv-x="1405" vert-adv-y="2048"  />

      
      <glyph glyph-name="unidb" unicode="&#xdb;" d="M1223 578Q1223 351 1172 220Q1121 89 1011.50 29Q902-31 705-31Q509-31 396 30Q283 91 232.50 223Q182 355 182 578L182 1384L367 1384L367 598Q367 416 400 317.50Q433 219 504.50 176Q576 133 702 133Q829 133 901 175.50Q973 218 1005.50 311Q1038 404 1038 594L1038 1384L1223 1384L1223 578M887 1544L703 1782L518 1544L369 1544L598 1905L809 1905L1037 1544L887 1544Z"  horiz-adv-x="1405" vert-adv-y="2048"  />

      
      <glyph glyph-name="unidc" unicode="&#xdc;" d="M1223 578Q1223 351 1172 220Q1121 89 1011.50 29Q902-31 705-31Q509-31 396 30Q283 91 232.50 223Q182 355 182 578L182 1384L367 1384L367 598Q367 416 400 317.50Q433 219 504.50 176Q576 133 702 133Q829 133 901 175.50Q973 218 1005.50 311Q1038 404 1038 594L1038 1384L1223 1384L1223 578M1012 1651Q1012 1591 987.50 1567.50Q963 1544 903 1544Q840 1544 818.50 1573Q797 1602 797 1651Q797 1704 820.50 1730.50Q844 1757 903 1757Q965 1757 988.50 1731.50Q1012 1706 1012 1651M617 1651Q617 1591 592.50 1567.50Q568 1544 508 1544Q445 1544 423.50 1573Q402 1602 402 1651Q402 1704 425.50 1730.50Q449 1757 508 1757Q570 1757 593.50 1731.50Q617 1706 617 1651Z"  horiz-adv-x="1405" vert-adv-y="2048"  />

      
      <glyph glyph-name="unidd" unicode="&#xdd;" d="M666 535L666 0L479 0L479 526L41 1384L250 1384L575 711L907 1384L1106 1384L666 535M623 1544L481 1544L659 1905L895 1905L623 1544Z"  horiz-adv-x="1147" vert-adv-y="2048"  />

      
      <glyph glyph-name="unide" unicode="&#xde;" d="M1083 727Q1083 477 965.50 365.50Q848 254 584 254L367 254L367 0L182 0L182 1384L367 1384L367 1169L592 1169Q851 1169 967 1062Q1083 955 1083 727M889 723Q889 867 817.50 934Q746 1001 571 1001L367 1001L367 422L545 422Q691 422 758.50 450.50Q826 479 857.50 542.50Q889 606 889 723Z"  horiz-adv-x="1182" vert-adv-y="2048"  />

      
      <glyph glyph-name="unidf" unicode="&#xdf;" d="M170 0L170 1034Q170 1295 272 1407.50Q374 1520 580 1520Q750 1520 854 1442Q958 1364 958 1196Q958 1056 893.50 974Q829 892 705 872Q879 852 967 741.50Q1055 631 1055 459Q1055-31 647-31Q573-31 457 0L457 162Q556 121 641 121Q768 121 822.50 209Q877 297 877 467Q877 580 834 648.50Q791 717 711.50 747.50Q632 778 479 778L479 930Q639 930 711.50 991.50Q784 1053 784 1178Q784 1370 575 1370Q454 1370 398 1295Q342 1220 342 1042L342 0L170 0Z"  horiz-adv-x="1171" vert-adv-y="2048"  />

      
      <glyph glyph-name="unie0" unicode="&#xe0;" d="M766 0L766 131Q686 61 605 15Q524-31 422-31Q272-31 190.50 60.50Q109 152 109 295Q109 403 151.50 474.50Q194 546 274.50 587.50Q355 629 508 647L766 670L766 721Q766 842 698.50 886Q631 930 512 930Q406 930 348.50 893Q291 856 266 813L125 899Q173 986 271.50 1032.50Q370 1079 516 1079Q742 1079 840 997Q938 915 938 713L938 0L766 0M766 532L598 516Q427 501 357 449.50Q287 398 287 299Q287 205 334 164Q381 123 475 123Q514 123 552 137.50Q590 152 627 173.50Q664 195 698.50 222.50Q733 250 766 276L766 532M535 1208L262 1569L498 1569L676 1208L535 1208Z"  horiz-adv-x="1100" vert-adv-y="2048"  />

      
      <glyph glyph-name="unie1" unicode="&#xe1;" d="M766 0L766 131Q686 61 605 15Q524-31 422-31Q272-31 190.50 60.50Q109 152 109 295Q109 403 151.50 474.50Q194 546 274.50 587.50Q355 629 508 647L766 670L766 721Q766 842 698.50 886Q631 930 512 930Q406 930 348.50 893Q291 856 266 813L125 899Q173 986 271.50 1032.50Q370 1079 516 1079Q742 1079 840 997Q938 915 938 713L938 0L766 0M766 532L598 516Q427 501 357 449.50Q287 398 287 299Q287 205 334 164Q381 123 475 123Q514 123 552 137.50Q590 152 627 173.50Q664 195 698.50 222.50Q733 250 766 276L766 532M566 1208L424 1208L602 1569L838 1569L566 1208Z"  horiz-adv-x="1100" vert-adv-y="2048"  />

      
      <glyph glyph-name="unie2" unicode="&#xe2;" d="M766 0L766 131Q686 61 605 15Q524-31 422-31Q272-31 190.50 60.50Q109 152 109 295Q109 403 151.50 474.50Q194 546 274.50 587.50Q355 629 508 647L766 670L766 721Q766 842 698.50 886Q631 930 512 930Q406 930 348.50 893Q291 856 266 813L125 899Q173 986 271.50 1032.50Q370 1079 516 1079Q742 1079 840 997Q938 915 938 713L938 0L766 0M766 532L598 516Q427 501 357 449.50Q287 398 287 299Q287 205 334 164Q381 123 475 123Q514 123 552 137.50Q590 152 627 173.50Q664 195 698.50 222.50Q733 250 766 276L766 532M704 1208L520 1446L335 1208L186 1208L415 1569L626 1569L854 1208L704 1208Z"  horiz-adv-x="1100" vert-adv-y="2048"  />

      
      <glyph glyph-name="unie3" unicode="&#xe3;" d="M766 0L766 131Q686 61 605 15Q524-31 422-31Q272-31 190.50 60.50Q109 152 109 295Q109 403 151.50 474.50Q194 546 274.50 587.50Q355 629 508 647L766 670L766 721Q766 842 698.50 886Q631 930 512 930Q406 930 348.50 893Q291 856 266 813L125 899Q173 986 271.50 1032.50Q370 1079 516 1079Q742 1079 840 997Q938 915 938 713L938 0L766 0M766 532L598 516Q427 501 357 449.50Q287 398 287 299Q287 205 334 164Q381 123 475 123Q514 123 552 137.50Q590 152 627 173.50Q664 195 698.50 222.50Q733 250 766 276L766 532M156 1221Q162 1346 223.50 1414.50Q285 1483 385 1483Q441 1483 481.50 1460.50Q522 1438 557 1412Q592 1386 623 1363.50Q654 1341 690 1341Q778 1341 787 1470L908 1470Q889 1208 676 1208Q611 1208 571 1230.50Q531 1253 500 1281Q469 1309 441.50 1331.50Q414 1354 373 1354Q322 1354 301.50 1318Q281 1282 277 1221L156 1221Z"  horiz-adv-x="1100" vert-adv-y="2048"  />

      
      <glyph glyph-name="unie4" unicode="&#xe4;" d="M766 0L766 131Q686 61 605 15Q524-31 422-31Q272-31 190.50 60.50Q109 152 109 295Q109 403 151.50 474.50Q194 546 274.50 587.50Q355 629 508 647L766 670L766 721Q766 842 698.50 886Q631 930 512 930Q406 930 348.50 893Q291 856 266 813L125 899Q173 986 271.50 1032.50Q370 1079 516 1079Q742 1079 840 997Q938 915 938 713L938 0L766 0M766 532L598 516Q427 501 357 449.50Q287 398 287 299Q287 205 334 164Q381 123 475 123Q514 123 552 137.50Q590 152 627 173.50Q664 195 698.50 222.50Q733 250 766 276L766 532M829 1315Q829 1255 804.50 1231.50Q780 1208 720 1208Q657 1208 635.50 1237Q614 1266 614 1315Q614 1368 637.50 1394.50Q661 1421 720 1421Q782 1421 805.50 1395.50Q829 1370 829 1315M434 1315Q434 1255 409.50 1231.50Q385 1208 325 1208Q262 1208 240.50 1237Q219 1266 219 1315Q219 1368 242.50 1394.50Q266 1421 325 1421Q387 1421 410.50 1395.50Q434 1370 434 1315Z"  horiz-adv-x="1100" vert-adv-y="2048"  />

      
      <glyph glyph-name="unie5" unicode="&#xe5;" d="M766 0L766 131Q686 61 605 15Q524-31 422-31Q272-31 190.50 60.50Q109 152 109 295Q109 403 151.50 474.50Q194 546 274.50 587.50Q355 629 508 647L766 670L766 721Q766 842 698.50 886Q631 930 512 930Q406 930 348.50 893Q291 856 266 813L125 899Q173 986 271.50 1032.50Q370 1079 516 1079Q742 1079 840 997Q938 915 938 713L938 0L766 0M766 532L598 516Q427 501 357 449.50Q287 398 287 299Q287 205 334 164Q381 123 475 123Q514 123 552 137.50Q590 152 627 173.50Q664 195 698.50 222.50Q733 250 766 276L766 532M718 1354Q718 1264 670 1210.50Q622 1157 520 1157Q415 1157 369 1212.50Q323 1268 323 1354Q323 1442 370 1496Q417 1550 520 1550Q624 1550 671 1497Q718 1444 718 1354M618 1354Q618 1454 520 1454Q423 1454 423 1354Q423 1253 520 1253Q618 1253 618 1354Z"  horiz-adv-x="1100" vert-adv-y="2048"  />

      
      <glyph glyph-name="unie6" unicode="&#xe6;" d="M414-31Q274-31 191.50 59.50Q109 150 109 301Q109 453 204 539.50Q299 626 508 647L766 670L766 721Q766 842 698.50 886Q631 930 512 930Q406 930 348.50 893Q291 856 266 813L125 899Q228 1079 526 1079Q649 1079 743.50 1046.50Q838 1014 881 930Q930 1001 1007.50 1040Q1085 1079 1208 1079Q1416 1079 1518 961.50Q1620 844 1620 600L1620 504L938 504Q938 304 1006.50 211.50Q1075 119 1225 119Q1309 119 1360 148.50Q1411 178 1462 244L1604 156Q1544 66 1460 17.50Q1376-31 1235-31Q1106-31 1002.50 13Q899 57 844 152Q749 71 631 20Q513-31 414-31M463 123Q549 123 628 165Q707 207 791 272Q775 323 770.50 367.50Q766 412 766 532L598 516Q472 505 411 480.50Q350 456 318.50 410.50Q287 365 287 297Q287 205 336 164Q385 123 463 123M1452 639Q1450 780 1393.50 858Q1337 936 1204 936Q1083 936 1016.50 865.50Q950 795 940 639L1452 639Z"  horiz-adv-x="1724" vert-adv-y="2048"  />

      
      <glyph glyph-name="unie7" unicode="&#xe7;" d="M815-215Q815-301 746.50-348Q678-395 559-395Q481-395 411.50-377.50Q342-360 319-348L371-248Q399-258 455.50-269.50Q512-281 563-281Q684-281 684-203Q684-163 641.50-135Q599-107 508-100L545-29Q333-18 225 120.50Q117 259 117 522Q117 796 233 937.50Q349 1079 575 1079Q834 1079 944 887L803 801Q764 862 711.50 896Q659 930 573 930Q422 930 358.50 820.50Q295 711 295 518Q295 371 325 289Q355 207 418.50 163Q482 119 580 119Q664 119 717 150.50Q770 182 817 248L958 162Q915 88 843.50 37Q772-14 653-27L651-31Q737-53 776-104.50Q815-156 815-215Z"  horiz-adv-x="1030" vert-adv-y="2048"  />

      
      <glyph glyph-name="unie8" unicode="&#xe8;" d="M295 504Q295 296 366 207.50Q437 119 594 119Q664 119 717 148.50Q770 178 819 244L961 156Q901 66 815 17.50Q729-31 582-31Q348-31 232.50 105Q117 241 117 516Q117 804 229.50 941.50Q342 1079 569 1079Q773 1079 875 961.50Q977 844 977 600L977 504L295 504M809 639Q807 780 749.50 858Q692 936 563 936Q440 936 378.50 865.50Q317 795 297 639L809 639M553 1208L280 1569L516 1569L694 1208L553 1208Z"  horiz-adv-x="1081" vert-adv-y="2048"  />

      
      <glyph glyph-name="unie9" unicode="&#xe9;" d="M295 504Q295 296 366 207.50Q437 119 594 119Q664 119 717 148.50Q770 178 819 244L961 156Q901 66 815 17.50Q729-31 582-31Q348-31 232.50 105Q117 241 117 516Q117 804 229.50 941.50Q342 1079 569 1079Q773 1079 875 961.50Q977 844 977 600L977 504L295 504M809 639Q807 780 749.50 858Q692 936 563 936Q440 936 378.50 865.50Q317 795 297 639L809 639M586 1208L444 1208L622 1569L858 1569L586 1208Z"  horiz-adv-x="1081" vert-adv-y="2048"  />

      
      <glyph glyph-name="uniea" unicode="&#xea;" d="M295 504Q295 296 366 207.50Q437 119 594 119Q664 119 717 148.50Q770 178 819 244L961 156Q901 66 815 17.50Q729-31 582-31Q348-31 232.50 105Q117 241 117 516Q117 804 229.50 941.50Q342 1079 569 1079Q773 1079 875 961.50Q977 844 977 600L977 504L295 504M809 639Q807 780 749.50 858Q692 936 563 936Q440 936 378.50 865.50Q317 795 297 639L809 639M743 1208L559 1446L374 1208L225 1208L454 1569L665 1569L893 1208L743 1208Z"  horiz-adv-x="1081" vert-adv-y="2048"  />

      
      <glyph glyph-name="unieb" unicode="&#xeb;" d="M295 504Q295 296 366 207.50Q437 119 594 119Q664 119 717 148.50Q770 178 819 244L961 156Q901 66 815 17.50Q729-31 582-31Q348-31 232.50 105Q117 241 117 516Q117 804 229.50 941.50Q342 1079 569 1079Q773 1079 875 961.50Q977 844 977 600L977 504L295 504M809 639Q807 780 749.50 858Q692 936 563 936Q440 936 378.50 865.50Q317 795 297 639L809 639M868 1315Q868 1255 843.50 1231.50Q819 1208 759 1208Q696 1208 674.50 1237Q653 1266 653 1315Q653 1368 676.50 1394.50Q700 1421 759 1421Q821 1421 844.50 1395.50Q868 1370 868 1315M473 1315Q473 1255 448.50 1231.50Q424 1208 364 1208Q301 1208 279.50 1237Q258 1266 258 1315Q258 1368 281.50 1394.50Q305 1421 364 1421Q426 1421 449.50 1395.50Q473 1370 473 1315Z"  horiz-adv-x="1081" vert-adv-y="2048"  />

      
      <glyph glyph-name="uniec" unicode="&#xec;" d="M242 1208L-31 1569L205 1569L383 1208L242 1208M170 0L170 1049L342 1049L342 0L170 0Z"  horiz-adv-x="512" vert-adv-y="2048"  />

      
      <glyph glyph-name="unied" unicode="&#xed;" d="M283 1208L141 1208L319 1569L555 1569L283 1208M170 0L170 1049L342 1049L342 0L170 0Z"  horiz-adv-x="512" vert-adv-y="2048"  />

      
      <glyph glyph-name="uniee" unicode="&#xee;" d="M170 0L170 1049L342 1049L342 0L170 0M442 1208L258 1446L73 1208L-76 1208L153 1569L364 1569L592 1208L442 1208Z"  horiz-adv-x="512" vert-adv-y="2048"  />

      
      <glyph glyph-name="unief" unicode="&#xef;" d="M547 1315Q547 1255 522.50 1231.50Q498 1208 438 1208Q375 1208 353.50 1237Q332 1266 332 1315Q332 1368 355.50 1394.50Q379 1421 438 1421Q500 1421 523.50 1395.50Q547 1370 547 1315M152 1315Q152 1255 127.50 1231.50Q103 1208 43 1208Q-20 1208-41.50 1237Q-63 1266-63 1315Q-63 1368-39.50 1394.50Q-16 1421 43 1421Q105 1421 128.50 1395.50Q152 1370 152 1315M170 0L170 1049L342 1049L342 0L170 0Z"  horiz-adv-x="512" vert-adv-y="2048"  />

      
      <glyph glyph-name="unif0" unicode="&#xf0;" d="M1040 510Q1040 246 923 107.50Q806-31 580-31Q352-31 234.50 107.50Q117 246 117 508Q117 761 227.50 905Q338 1049 539 1049Q665 1049 774 969Q754 1034 693 1128Q632 1222 557 1296L362 1184L309 1268L492 1372Q419 1456 317 1520L483 1520Q563 1473 600 1436L748 1520L805 1438L680 1366Q1040 1006 1040 510M862 510Q862 712 792 805.50Q722 899 578 899Q430 899 362.50 807Q295 715 295 508Q295 310 364 214.50Q433 119 580 119Q722 119 792 212Q862 305 862 510Z"  horiz-adv-x="1157" vert-adv-y="2048"  />

      
      <glyph glyph-name="unif1" unicode="&#xf1;" d="M829 0L829 618Q829 768 814 818Q799 868 765 890.50Q731 913 666 913Q600 913 512 863Q424 813 342 741L342 0L170 0L170 1049L342 1049L342 893Q415 966 512 1022.50Q609 1079 707 1079Q859 1079 930 992.50Q1001 906 1001 700L1001 0L829 0M219 1221Q225 1346 286.50 1414.50Q348 1483 448 1483Q504 1483 544.50 1460.50Q585 1438 620 1412Q655 1386 686 1363.50Q717 1341 753 1341Q841 1341 850 1470L971 1470Q952 1208 739 1208Q674 1208 634 1230.50Q594 1253 563 1281Q532 1309 504.50 1331.50Q477 1354 436 1354Q385 1354 364.50 1318Q344 1282 340 1221L219 1221Z"  horiz-adv-x="1163" vert-adv-y="2048"  />

      
      <glyph glyph-name="unif2" unicode="&#xf2;" d="M1040 522Q1040 249 922.50 109Q805-31 580-31Q355-31 236 107.50Q117 246 117 522Q117 803 236.50 941Q356 1079 580 1079Q806 1079 923 938.50Q1040 798 1040 522M862 522Q862 736 791.50 833Q721 930 580 930Q435 930 365 832.50Q295 735 295 522Q295 317 362.50 218Q430 119 580 119Q723 119 792.50 217Q862 315 862 522M559 1208L286 1569L522 1569L700 1208L559 1208Z"  horiz-adv-x="1157" vert-adv-y="2048"  />

      
      <glyph glyph-name="unif3" unicode="&#xf3;" d="M1040 522Q1040 249 922.50 109Q805-31 580-31Q355-31 236 107.50Q117 246 117 522Q117 803 236.50 941Q356 1079 580 1079Q806 1079 923 938.50Q1040 798 1040 522M862 522Q862 736 791.50 833Q721 930 580 930Q435 930 365 832.50Q295 735 295 522Q295 317 362.50 218Q430 119 580 119Q723 119 792.50 217Q862 315 862 522M596 1208L454 1208L632 1569L868 1569L596 1208Z"  horiz-adv-x="1157" vert-adv-y="2048"  />

      
      <glyph glyph-name="unif4" unicode="&#xf4;" d="M1040 522Q1040 249 922.50 109Q805-31 580-31Q355-31 236 107.50Q117 246 117 522Q117 803 236.50 941Q356 1079 580 1079Q806 1079 923 938.50Q1040 798 1040 522M862 522Q862 736 791.50 833Q721 930 580 930Q435 930 365 832.50Q295 735 295 522Q295 317 362.50 218Q430 119 580 119Q723 119 792.50 217Q862 315 862 522M764 1208L580 1446L395 1208L246 1208L475 1569L686 1569L914 1208L764 1208Z"  horiz-adv-x="1157" vert-adv-y="2048"  />

      
      <glyph glyph-name="unif5" unicode="&#xf5;" d="M1040 522Q1040 249 922.50 109Q805-31 580-31Q355-31 236 107.50Q117 246 117 522Q117 803 236.50 941Q356 1079 580 1079Q806 1079 923 938.50Q1040 798 1040 522M862 522Q862 736 791.50 833Q721 930 580 930Q435 930 365 832.50Q295 735 295 522Q295 317 362.50 218Q430 119 580 119Q723 119 792.50 217Q862 315 862 522M203 1221Q209 1346 270.50 1414.50Q332 1483 432 1483Q488 1483 528.50 1460.50Q569 1438 604 1412Q639 1386 670 1363.50Q701 1341 737 1341Q825 1341 834 1470L955 1470Q936 1208 723 1208Q658 1208 618 1230.50Q578 1253 547 1281Q516 1309 488.50 1331.50Q461 1354 420 1354Q369 1354 348.50 1318Q328 1282 324 1221L203 1221Z"  horiz-adv-x="1157" vert-adv-y="2048"  />

      
      <glyph glyph-name="unif6" unicode="&#xf6;" d="M1040 522Q1040 249 922.50 109Q805-31 580-31Q355-31 236 107.50Q117 246 117 522Q117 803 236.50 941Q356 1079 580 1079Q806 1079 923 938.50Q1040 798 1040 522M862 522Q862 736 791.50 833Q721 930 580 930Q435 930 365 832.50Q295 735 295 522Q295 317 362.50 218Q430 119 580 119Q723 119 792.50 217Q862 315 862 522M889 1315Q889 1255 864.50 1231.50Q840 1208 780 1208Q717 1208 695.50 1237Q674 1266 674 1315Q674 1368 697.50 1394.50Q721 1421 780 1421Q842 1421 865.50 1395.50Q889 1370 889 1315M494 1315Q494 1255 469.50 1231.50Q445 1208 385 1208Q322 1208 300.50 1237Q279 1266 279 1315Q279 1368 302.50 1394.50Q326 1421 385 1421Q447 1421 470.50 1395.50Q494 1370 494 1315Z"  horiz-adv-x="1157" vert-adv-y="2048"  />

      
      <glyph glyph-name="unif7" unicode="&#xf7;" d="M623 948L623 1128L803 1128L803 948L623 948M164 514L164 657L1264 657L1264 514L164 514M623 43L623 223L803 223L803 43L623 43Z"  horiz-adv-x="1427" vert-adv-y="2048"  />

      
      <glyph glyph-name="unif8" unicode="&#xf8;" d="M102-76L231 113Q117 250 117 522Q117 803 236.50 941Q356 1079 580 1079Q741 1079 848 1008L928 1124L1069 1124L932 926Q1040 781 1040 522Q1040 249 922.50 109Q805-31 580-31Q422-31 319 35L244-76L102-76M295 522Q295 358 336 264L756 872Q688 930 580 930Q435 930 365 832.50Q295 735 295 522M862 522Q862 680 825 770L410 168Q473 119 580 119Q723 119 792.50 217Q862 315 862 522Z"  horiz-adv-x="1157" vert-adv-y="2048"  />

      
      <glyph glyph-name="unif9" unicode="&#xf9;" d="M821 0L821 156Q741 76 645 22.50Q549-31 457-31Q352-31 286.50 8.50Q221 48 191.50 127.50Q162 207 162 348L162 1049L334 1049L334 430Q334 280 349.50 230Q365 180 399 157.50Q433 135 498 135Q563 135 651 185.50Q739 236 821 307L821 1049L993 1049L993 0L821 0M576 1208L303 1569L539 1569L717 1208L576 1208Z"  horiz-adv-x="1163" vert-adv-y="2048"  />

      
      <glyph glyph-name="unifa" unicode="&#xfa;" d="M821 0L821 156Q741 76 645 22.50Q549-31 457-31Q352-31 286.50 8.50Q221 48 191.50 127.50Q162 207 162 348L162 1049L334 1049L334 430Q334 280 349.50 230Q365 180 399 157.50Q433 135 498 135Q563 135 651 185.50Q739 236 821 307L821 1049L993 1049L993 0L821 0M609 1208L467 1208L645 1569L881 1569L609 1208Z"  horiz-adv-x="1163" vert-adv-y="2048"  />

      
      <glyph glyph-name="unifb" unicode="&#xfb;" d="M821 0L821 156Q741 76 645 22.50Q549-31 457-31Q352-31 286.50 8.50Q221 48 191.50 127.50Q162 207 162 348L162 1049L334 1049L334 430Q334 280 349.50 230Q365 180 399 157.50Q433 135 498 135Q563 135 651 185.50Q739 236 821 307L821 1049L993 1049L993 0L821 0M766 1208L582 1446L397 1208L248 1208L477 1569L688 1569L916 1208L766 1208Z"  horiz-adv-x="1163" vert-adv-y="2048"  />

      
      <glyph glyph-name="unifc" unicode="&#xfc;" d="M821 0L821 156Q741 76 645 22.50Q549-31 457-31Q352-31 286.50 8.50Q221 48 191.50 127.50Q162 207 162 348L162 1049L334 1049L334 430Q334 280 349.50 230Q365 180 399 157.50Q433 135 498 135Q563 135 651 185.50Q739 236 821 307L821 1049L993 1049L993 0L821 0M887 1315Q887 1255 862.50 1231.50Q838 1208 778 1208Q715 1208 693.50 1237Q672 1266 672 1315Q672 1368 695.50 1394.50Q719 1421 778 1421Q840 1421 863.50 1395.50Q887 1370 887 1315M492 1315Q492 1255 467.50 1231.50Q443 1208 383 1208Q320 1208 298.50 1237Q277 1266 277 1315Q277 1368 300.50 1394.50Q324 1421 383 1421Q445 1421 468.50 1395.50Q492 1370 492 1315Z"  horiz-adv-x="1163" vert-adv-y="2048"  />

      
      <glyph glyph-name="unifd" unicode="&#xfd;" d="M39-223Q104-252 190-252Q311-252 395-33L430 57L47 1049L233 1049L522 281L813 1049L993 1049L545-80Q474-253 393-324Q312-395 182-395Q135-395 82-386Q29-377-4-365L39-223M547 1208L405 1208L583 1569L819 1569L547 1208Z"  horiz-adv-x="1040" vert-adv-y="2048"  />

      
      <glyph glyph-name="unife" unicode="&#xfe;" d="M1057 532Q1057 274 944.50 121.50Q832-31 635-31Q478-31 342 86L342-395L170-395L170 1489L342 1489L342 944Q401 1001 484 1040Q567 1079 662 1079Q849 1079 953 937.50Q1057 796 1057 532M879 528Q879 926 629 926Q547 926 472 885Q397 844 342 791L342 236Q476 123 612 123Q729 123 804 221Q879 319 879 528Z"  horiz-adv-x="1174" vert-adv-y="2048"  />

      
      <glyph glyph-name="uniff" unicode="&#xff;" d="M39-223Q104-252 190-252Q311-252 395-33L430 57L47 1049L233 1049L522 281L813 1049L993 1049L545-80Q474-253 393-324Q312-395 182-395Q135-395 82-386Q29-377-4-365L39-223M831 1315Q831 1255 806.50 1231.50Q782 1208 722 1208Q659 1208 637.50 1237Q616 1266 616 1315Q616 1368 639.50 1394.50Q663 1421 722 1421Q784 1421 807.50 1395.50Q831 1370 831 1315M436 1315Q436 1255 411.50 1231.50Q387 1208 327 1208Q264 1208 242.50 1237Q221 1266 221 1315Q221 1368 244.50 1394.50Q268 1421 327 1421Q389 1421 412.50 1395.50Q436 1370 436 1315Z"  horiz-adv-x="1040" vert-adv-y="2048"  />

      
      <glyph glyph-name="uni0100" unicode="&#x0100;" d="M51 0L524 1384L764 1384L1237 0L1042 0L922 360L358 360L240 0L51 0M414 528L864 528L639 1202L414 528M340 1591L340 1731L950 1731L950 1591L340 1591Z"  horiz-adv-x="1288" vert-adv-y="2048"  />

      
      <glyph glyph-name="uni0101" unicode="&#x0101;" d="M766 0L766 131Q686 61 605 15Q524-31 422-31Q272-31 190.50 60.50Q109 152 109 295Q109 403 151.50 474.50Q194 546 274.50 587.50Q355 629 508 647L766 670L766 721Q766 842 698.50 886Q631 930 512 930Q406 930 348.50 893Q291 856 266 813L125 899Q173 986 271.50 1032.50Q370 1079 516 1079Q742 1079 840 997Q938 915 938 713L938 0L766 0M766 532L598 516Q427 501 357 449.50Q287 398 287 299Q287 205 334 164Q381 123 475 123Q514 123 552 137.50Q590 152 627 173.50Q664 195 698.50 222.50Q733 250 766 276L766 532M226 1255L226 1395L836 1395L836 1255L226 1255Z"  horiz-adv-x="1100" vert-adv-y="2048"  />

      
      <glyph glyph-name="uni0102" unicode="&#x0102;" d="M51 0L524 1384L764 1384L1237 0L1042 0L922 360L358 360L240 0L51 0M414 528L864 528L639 1202L414 528M974 1804Q974 1680 888 1600.50Q802 1521 645 1521Q493 1521 406 1602Q319 1683 319 1804L446 1804Q460 1740 512.50 1709.50Q565 1679 643 1679Q745 1679 790 1709.50Q835 1740 847 1804L974 1804Z"  horiz-adv-x="1288" vert-adv-y="2048"  />

      
      <glyph glyph-name="uni0103" unicode="&#x0103;" d="M766 0L766 131Q686 61 605 15Q524-31 422-31Q272-31 190.50 60.50Q109 152 109 295Q109 403 151.50 474.50Q194 546 274.50 587.50Q355 629 508 647L766 670L766 721Q766 842 698.50 886Q631 930 512 930Q406 930 348.50 893Q291 856 266 813L125 899Q173 986 271.50 1032.50Q370 1079 516 1079Q742 1079 840 997Q938 915 938 713L938 0L766 0M766 532L598 516Q427 501 357 449.50Q287 398 287 299Q287 205 334 164Q381 123 475 123Q514 123 552 137.50Q590 152 627 173.50Q664 195 698.50 222.50Q733 250 766 276L766 532M862 1489Q862 1365 776 1285.50Q690 1206 533 1206Q381 1206 294 1287Q207 1368 207 1489L334 1489Q348 1425 400.50 1394.50Q453 1364 531 1364Q633 1364 678 1394.50Q723 1425 735 1489L862 1489Z"  horiz-adv-x="1100" vert-adv-y="2048"  />

      
      <glyph glyph-name="uni0104" unicode="&#x0104;" d="M1235-326Q1182-360 1136-377.50Q1090-395 1036-395Q946-395 894-349.50Q842-304 842-211Q842-58 1032 29L922 360L358 360L240 0L51 0L524 1384L764 1384L1237 0Q1109-40 1046-82Q983-124 983-184Q983-219 1002.50-237.50Q1022-256 1057-256Q1092-256 1120.50-244.50Q1149-233 1180-217L1235-326M414 528L864 528L639 1202L414 528Z"  horiz-adv-x="1288" vert-adv-y="2048"  />

      
      <glyph glyph-name="uni0105" unicode="&#x0105;" d="M936-326Q883-360 837-377.50Q791-395 737-395Q647-395 595-349.50Q543-304 543-211Q543-47 766 43L766 131Q686 61 605 15Q524-31 422-31Q272-31 190.50 60.50Q109 152 109 295Q109 403 151.50 474.50Q194 546 274.50 587.50Q355 629 508 647L766 670L766 721Q766 842 698.50 886Q631 930 512 930Q406 930 348.50 893Q291 856 266 813L125 899Q173 986 271.50 1032.50Q370 1079 516 1079Q742 1079 840 997Q938 915 938 713L938 0Q810-40 747-82Q684-124 684-184Q684-219 703.50-237.50Q723-256 758-256Q793-256 821.50-244.50Q850-233 881-217L936-326M766 532L598 516Q427 501 357 449.50Q287 398 287 299Q287 205 334 164Q381 123 475 123Q514 123 552 137.50Q590 152 627 173.50Q664 195 698.50 222.50Q733 250 766 276L766 532Z"  horiz-adv-x="1100" vert-adv-y="2048"  />

      
      <glyph glyph-name="uni0106" unicode="&#x0106;" d="M1243 242Q1177 136 1108.50 81.50Q1040 27 949-1Q858-29 735-29Q424-29 276.50 150.50Q129 330 129 692Q129 1053 275.50 1233Q422 1413 727 1413Q848 1413 943 1383Q1038 1353 1103.50 1300.50Q1169 1248 1223 1153L1071 1053Q1027 1127 982 1165.50Q937 1204 874 1226.50Q811 1249 727 1249Q519 1249 421.50 1110.50Q324 972 324 692Q324 416 420 275.50Q516 135 729 135Q847 135 934 181.50Q1021 228 1090 342L1243 242M729 1544L587 1544L765 1905L1001 1905L729 1544Z"  horiz-adv-x="1321" vert-adv-y="2048"  />

      
      <glyph glyph-name="uni0107" unicode="&#x0107;" d="M958 162Q909 78 822 23.50Q735-31 582-31Q351-31 234 108.50Q117 248 117 522Q117 796 233 937.50Q349 1079 575 1079Q834 1079 944 887L803 801Q764 862 711.50 896Q659 930 573 930Q422 930 358.50 820.50Q295 711 295 518Q295 371 325 289Q355 207 418.50 163Q482 119 580 119Q664 119 717 150.50Q770 182 817 248L958 162M594 1208L452 1208L630 1569L866 1569L594 1208Z"  horiz-adv-x="1030" vert-adv-y="2048"  />

      
      <glyph glyph-name="uni0108" unicode="&#x0108;" d="M1243 242Q1177 136 1108.50 81.50Q1040 27 949-1Q858-29 735-29Q424-29 276.50 150.50Q129 330 129 692Q129 1053 275.50 1233Q422 1413 727 1413Q848 1413 943 1383Q1038 1353 1103.50 1300.50Q1169 1248 1223 1153L1071 1053Q1027 1127 982 1165.50Q937 1204 874 1226.50Q811 1249 727 1249Q519 1249 421.50 1110.50Q324 972 324 692Q324 416 420 275.50Q516 135 729 135Q847 135 934 181.50Q1021 228 1090 342L1243 242M909 1544L725 1782L540 1544L391 1544L620 1905L831 1905L1059 1544L909 1544Z"  horiz-adv-x="1321" vert-adv-y="2048"  />

      
      <glyph glyph-name="uni0109" unicode="&#x0109;" d="M958 162Q909 78 822 23.50Q735-31 582-31Q351-31 234 108.50Q117 248 117 522Q117 796 233 937.50Q349 1079 575 1079Q834 1079 944 887L803 801Q764 862 711.50 896Q659 930 573 930Q422 930 358.50 820.50Q295 711 295 518Q295 371 325 289Q355 207 418.50 163Q482 119 580 119Q664 119 717 150.50Q770 182 817 248L958 162M766 1208L582 1446L397 1208L248 1208L477 1569L688 1569L916 1208L766 1208Z"  horiz-adv-x="1030" vert-adv-y="2048"  />

      
      <glyph glyph-name="uni010A" unicode="&#x010A;" d="M1243 242Q1177 136 1108.50 81.50Q1040 27 949-1Q858-29 735-29Q424-29 276.50 150.50Q129 330 129 692Q129 1053 275.50 1233Q422 1413 727 1413Q848 1413 943 1383Q1038 1353 1103.50 1300.50Q1169 1248 1223 1153L1071 1053Q1027 1127 982 1165.50Q937 1204 874 1226.50Q811 1249 727 1249Q519 1249 421.50 1110.50Q324 972 324 692Q324 416 420 275.50Q516 135 729 135Q847 135 934 181.50Q1021 228 1090 342L1243 242M821 1659Q821 1596 794.50 1570Q768 1544 705 1544Q635 1544 612.50 1575Q590 1606 590 1659Q590 1718 614.50 1746Q639 1774 705 1774Q770 1774 795.50 1746Q821 1718 821 1659Z"  horiz-adv-x="1321" vert-adv-y="2048"  />

      
      <glyph glyph-name="uni010B" unicode="&#x010B;" d="M958 162Q909 78 822 23.50Q735-31 582-31Q351-31 234 108.50Q117 248 117 522Q117 796 233 937.50Q349 1079 575 1079Q834 1079 944 887L803 801Q764 862 711.50 896Q659 930 573 930Q422 930 358.50 820.50Q295 711 295 518Q295 371 325 289Q355 207 418.50 163Q482 119 580 119Q664 119 717 150.50Q770 182 817 248L958 162M694 1323Q694 1260 667.50 1234Q641 1208 578 1208Q508 1208 485.50 1239Q463 1270 463 1323Q463 1382 487.50 1410Q512 1438 578 1438Q643 1438 668.50 1410Q694 1382 694 1323Z"  horiz-adv-x="1030" vert-adv-y="2048"  />

      
      <glyph glyph-name="uni010C" unicode="&#x010C;" d="M1243 242Q1177 136 1108.50 81.50Q1040 27 949-1Q858-29 735-29Q424-29 276.50 150.50Q129 330 129 692Q129 1053 275.50 1233Q422 1413 727 1413Q848 1413 943 1383Q1038 1353 1103.50 1300.50Q1169 1248 1223 1153L1071 1053Q1027 1127 982 1165.50Q937 1204 874 1226.50Q811 1249 727 1249Q519 1249 421.50 1110.50Q324 972 324 692Q324 416 420 275.50Q516 135 729 135Q847 135 934 181.50Q1021 228 1090 342L1243 242M809 1544L598 1544L371 1905L520 1905L705 1667L889 1905L1039 1905L809 1544Z"  horiz-adv-x="1321" vert-adv-y="2048"  />

      
      <glyph glyph-name="uni010D" unicode="&#x010D;" d="M958 162Q909 78 822 23.50Q735-31 582-31Q351-31 234 108.50Q117 248 117 522Q117 796 233 937.50Q349 1079 575 1079Q834 1079 944 887L803 801Q764 862 711.50 896Q659 930 573 930Q422 930 358.50 820.50Q295 711 295 518Q295 371 325 289Q355 207 418.50 163Q482 119 580 119Q664 119 717 150.50Q770 182 817 248L958 162M682 1208L471 1208L244 1569L393 1569L578 1331L762 1569L912 1569L682 1208Z"  horiz-adv-x="1030" vert-adv-y="2048"  />

      
      <glyph glyph-name="uni010E" unicode="&#x010E;" d="M1174 692Q1174 438 1108.50 288Q1043 138 906.50 69Q770 0 522 0L170 0L170 1384L518 1384Q760 1384 900 1314.50Q1040 1245 1107 1094Q1174 943 1174 692M979 694Q979 892 935 1004Q891 1116 790 1166.50Q689 1217 508 1217L354 1217L354 168L508 168Q690 168 789.50 218.50Q889 269 934 380.50Q979 492 979 694M721 1544L510 1544L283 1905L432 1905L617 1667L801 1905L951 1905L721 1544Z"  horiz-adv-x="1292" vert-adv-y="2048"  />

      
      <glyph glyph-name="uni010F" unicode="&#x010F;" d="M1202 1128L1083 1128L1147 1489L1362 1489L1202 1128M831 0L831 104Q772 47 689 8Q606-31 512-31Q323-31 220 111.50Q117 254 117 516Q117 773 229 926Q341 1079 539 1079Q698 1079 831 963L831 1489L1004 1489L1004 0L831 0M831 813Q694 926 561 926Q444 926 369.50 827.50Q295 729 295 520Q295 123 545 123Q627 123 701.50 164Q776 205 831 258L831 813Z"  horiz-adv-x="1251" vert-adv-y="2048"  />

      
      <glyph glyph-name="uni0110" unicode="&#x0110;" d="M1249 692Q1249 438 1179 288Q1109 138 962 69Q815 0 549 0L182 0L182 627L63 627L63 768L182 768L182 1384L547 1384Q808 1384 957.50 1313.50Q1107 1243 1178 1091Q1249 939 1249 692M1055 694Q1055 986 940 1101.50Q825 1217 539 1217L367 1217L367 768L702 768L702 627L367 627L367 168L539 168Q737 168 846 218.50Q955 269 1005 382.50Q1055 496 1055 694Z"  horiz-adv-x="1378" vert-adv-y="2048"  />

      
      <glyph glyph-name="uni0111" unicode="&#x0111;" d="M831 0L831 104Q772 47 689 8Q606-31 512-31Q323-31 220 111.50Q117 254 117 516Q117 773 229 926Q341 1079 539 1079Q698 1079 831 963L831 1194L530 1194L530 1333L831 1333L831 1489L1004 1489L1004 1333L1141 1333L1141 1194L1004 1194L1004 0L831 0M831 813Q694 926 561 926Q444 926 369.50 827.50Q295 729 295 520Q295 123 545 123Q627 123 701.50 164Q776 205 831 258L831 813Z"  horiz-adv-x="1174" vert-adv-y="2048"  />

      
      <glyph glyph-name="uni0112" unicode="&#x0112;" d="M182 0L182 1384L1028 1384L1028 1217L367 1217L367 813L932 813L932 645L367 645L367 168L1028 168L1028 0L182 0M304 1591L304 1731L914 1731L914 1591L304 1591Z"  horiz-adv-x="1153" vert-adv-y="2048"  />

      
      <glyph glyph-name="uni0113" unicode="&#x0113;" d="M295 504Q295 296 366 207.50Q437 119 594 119Q664 119 717 148.50Q770 178 819 244L961 156Q901 66 815 17.50Q729-31 582-31Q348-31 232.50 105Q117 241 117 516Q117 804 229.50 941.50Q342 1079 569 1079Q773 1079 875 961.50Q977 844 977 600L977 504L295 504M809 639Q807 780 749.50 858Q692 936 563 936Q440 936 378.50 865.50Q317 795 297 639L809 639M285 1255L285 1395L895 1395L895 1255L285 1255Z"  horiz-adv-x="1081" vert-adv-y="2048"  />

      
      <glyph glyph-name="uni0114" unicode="&#x0114;" d="M182 0L182 1384L1028 1384L1028 1217L367 1217L367 813L932 813L932 645L367 645L367 168L1028 168L1028 0L182 0M974 1825Q974 1701 888 1621.50Q802 1542 645 1542Q493 1542 406 1623Q319 1704 319 1825L446 1825Q460 1761 512.50 1730.50Q565 1700 643 1700Q745 1700 790 1730.50Q835 1761 847 1825L974 1825Z"  horiz-adv-x="1153" vert-adv-y="2048"  />

      
      <glyph glyph-name="uni0115" unicode="&#x0115;" d="M295 504Q295 296 366 207.50Q437 119 594 119Q664 119 717 148.50Q770 178 819 244L961 156Q901 66 815 17.50Q729-31 582-31Q348-31 232.50 105Q117 241 117 516Q117 804 229.50 941.50Q342 1079 569 1079Q773 1079 875 961.50Q977 844 977 600L977 504L295 504M809 639Q807 780 749.50 858Q692 936 563 936Q440 936 378.50 865.50Q317 795 297 639L809 639M901 1489Q901 1365 815 1285.50Q729 1206 572 1206Q420 1206 333 1287Q246 1368 246 1489L373 1489Q387 1425 439.50 1394.50Q492 1364 570 1364Q672 1364 717 1394.50Q762 1425 774 1489L901 1489Z"  horiz-adv-x="1081" vert-adv-y="2048"  />

      
      <glyph glyph-name="uni0116" unicode="&#x0116;" d="M182 0L182 1384L1028 1384L1028 1217L367 1217L367 813L932 813L932 645L367 645L367 168L1028 168L1028 0L182 0M714 1659Q714 1596 687.50 1570Q661 1544 598 1544Q528 1544 505.50 1575Q483 1606 483 1659Q483 1718 507.50 1746Q532 1774 598 1774Q663 1774 688.50 1746Q714 1718 714 1659Z"  horiz-adv-x="1153" vert-adv-y="2048"  />

      
      <glyph glyph-name="uni0117" unicode="&#x0117;" d="M295 504Q295 296 366 207.50Q437 119 594 119Q664 119 717 148.50Q770 178 819 244L961 156Q901 66 815 17.50Q729-31 582-31Q348-31 232.50 105Q117 241 117 516Q117 804 229.50 941.50Q342 1079 569 1079Q773 1079 875 961.50Q977 844 977 600L977 504L295 504M809 639Q807 780 749.50 858Q692 936 563 936Q440 936 378.50 865.50Q317 795 297 639L809 639M675 1323Q675 1260 648.50 1234Q622 1208 559 1208Q489 1208 466.50 1239Q444 1270 444 1323Q444 1382 468.50 1410Q493 1438 559 1438Q624 1438 649.50 1410Q675 1382 675 1323Z"  horiz-adv-x="1081" vert-adv-y="2048"  />

      
      <glyph glyph-name="uni0118" unicode="&#x0118;" d="M1026-326Q973-360 927-377.50Q881-395 827-395Q735-395 684-347.50Q633-300 633-211Q633-84 770 0L182 0L182 1384L1028 1384L1028 1217L367 1217L367 813L932 813L932 645L367 645L367 168L1028 168L1028 0Q897-41 835.50-83.50Q774-126 774-184Q774-219 793.50-237.50Q813-256 848-256Q883-256 911.50-244.50Q940-233 971-217L1026-326Z"  horiz-adv-x="1153" vert-adv-y="2048"  />

      
      <glyph glyph-name="uni0119" unicode="&#x0119;" d="M977 504L295 504Q295 296 366 207.50Q437 119 594 119Q664 119 717 148.50Q770 178 819 244L961 156Q919 94 887 68Q725-92 725-195Q725-256 799-256Q834-256 862.50-244.50Q891-233 922-217L977-326Q924-360 877.50-377.50Q831-395 778-395Q700-395 642-355Q584-315 584-225Q584-164 605-120Q626-76 674-27Q636-31 596-31Q356-31 236.50 102.50Q117 236 117 516Q117 804 229.50 941.50Q342 1079 569 1079Q773 1079 875 961.50Q977 844 977 600L977 504M809 639Q807 780 749.50 858Q692 936 563 936Q440 936 378.50 865.50Q317 795 297 639L809 639Z"  horiz-adv-x="1081" vert-adv-y="2048"  />

      
      <glyph glyph-name="uni011A" unicode="&#x011A;" d="M182 0L182 1384L1028 1384L1028 1217L367 1217L367 813L932 813L932 645L367 645L367 168L1028 168L1028 0L182 0M682 1544L471 1544L244 1905L393 1905L578 1667L762 1905L912 1905L682 1544Z"  horiz-adv-x="1153" vert-adv-y="2048"  />

      
      <glyph glyph-name="uni011B" unicode="&#x011B;" d="M295 504Q295 296 366 207.50Q437 119 594 119Q664 119 717 148.50Q770 178 819 244L961 156Q901 66 815 17.50Q729-31 582-31Q348-31 232.50 105Q117 241 117 516Q117 804 229.50 941.50Q342 1079 569 1079Q773 1079 875 961.50Q977 844 977 600L977 504L295 504M809 639Q807 780 749.50 858Q692 936 563 936Q440 936 378.50 865.50Q317 795 297 639L809 639M663 1208L452 1208L225 1569L374 1569L559 1331L743 1569L893 1569L663 1208Z"  horiz-adv-x="1081" vert-adv-y="2048"  />

      
      <glyph glyph-name="uni011C" unicode="&#x011C;" d="M1075 1051Q1026 1141 945 1195Q864 1249 727 1249Q518 1249 421 1111Q324 973 324 688Q324 397 429 266Q534 135 741 135Q821 135 889.50 153.50Q958 172 1038 207L1038 535L702 535L702 702L1223 702L1223 106Q1110 43 998.50 7Q887-29 741-29Q429-29 279 150Q129 329 129 690Q129 1056 279.50 1234.50Q430 1413 729 1413Q899 1413 1022.50 1353Q1146 1293 1225 1153L1075 1051M909 1544L725 1782L540 1544L391 1544L620 1905L831 1905L1059 1544L909 1544Z"  horiz-adv-x="1391" vert-adv-y="2048"  />

      
      <glyph glyph-name="uni011D" unicode="&#x011D;" d="M1004 23Q1004-188 899.50-291.50Q795-395 553-395Q322-395 172-297L236-158Q371-252 553-252Q700-252 765.50-190.50Q831-129 831 12L831 135Q772 78 690 39Q608 0 512 0Q319 0 218 137.50Q117 275 117 535Q117 791 230 935Q343 1079 539 1079Q698 1079 831 963L831 1049L1004 1049L1004 23M831 813Q694 926 561 926Q430 926 362.50 824Q295 722 295 539Q295 337 358 245.50Q421 154 545 154Q689 154 831 289L831 813M776 1208L592 1446L407 1208L258 1208L487 1569L698 1569L926 1208L776 1208Z"  horiz-adv-x="1174" vert-adv-y="2048"  />

      
      <glyph glyph-name="uni011E" unicode="&#x011E;" d="M1075 1051Q1026 1141 945 1195Q864 1249 727 1249Q518 1249 421 1111Q324 973 324 688Q324 397 429 266Q534 135 741 135Q821 135 889.50 153.50Q958 172 1038 207L1038 535L702 535L702 702L1223 702L1223 106Q1110 43 998.50 7Q887-29 741-29Q429-29 279 150Q129 329 129 690Q129 1056 279.50 1234.50Q430 1413 729 1413Q899 1413 1022.50 1353Q1146 1293 1225 1153L1075 1051M1056 1825Q1056 1701 970 1621.50Q884 1542 727 1542Q575 1542 488 1623Q401 1704 401 1825L528 1825Q542 1761 594.50 1730.50Q647 1700 725 1700Q827 1700 872 1730.50Q917 1761 929 1825L1056 1825Z"  horiz-adv-x="1391" vert-adv-y="2048"  />

      
      <glyph glyph-name="uni011F" unicode="&#x011F;" d="M1004 23Q1004-188 899.50-291.50Q795-395 553-395Q322-395 172-297L236-158Q371-252 553-252Q700-252 765.50-190.50Q831-129 831 12L831 135Q772 78 690 39Q608 0 512 0Q319 0 218 137.50Q117 275 117 535Q117 791 230 935Q343 1079 539 1079Q698 1079 831 963L831 1049L1004 1049L1004 23M831 813Q694 926 561 926Q430 926 362.50 824Q295 722 295 539Q295 337 358 245.50Q421 154 545 154Q689 154 831 289L831 813M888 1489Q888 1365 802 1285.50Q716 1206 559 1206Q407 1206 320 1287Q233 1368 233 1489L360 1489Q374 1425 426.50 1394.50Q479 1364 557 1364Q659 1364 704 1394.50Q749 1425 761 1489L888 1489Z"  horiz-adv-x="1174" vert-adv-y="2048"  />

      
      <glyph glyph-name="uni0120" unicode="&#x0120;" d="M1075 1051Q1026 1141 945 1195Q864 1249 727 1249Q518 1249 421 1111Q324 973 324 688Q324 397 429 266Q534 135 741 135Q821 135 889.50 153.50Q958 172 1038 207L1038 535L702 535L702 702L1223 702L1223 106Q1110 43 998.50 7Q887-29 741-29Q429-29 279 150Q129 329 129 690Q129 1056 279.50 1234.50Q430 1413 729 1413Q899 1413 1022.50 1353Q1146 1293 1225 1153L1075 1051M825 1659Q825 1596 798.50 1570Q772 1544 709 1544Q639 1544 616.50 1575Q594 1606 594 1659Q594 1718 618.50 1746Q643 1774 709 1774Q774 1774 799.50 1746Q825 1718 825 1659Z"  horiz-adv-x="1391" vert-adv-y="2048"  />

      
      <glyph glyph-name="uni0121" unicode="&#x0121;" d="M1004 23Q1004-188 899.50-291.50Q795-395 553-395Q322-395 172-297L236-158Q371-252 553-252Q700-252 765.50-190.50Q831-129 831 12L831 135Q772 78 690 39Q608 0 512 0Q319 0 218 137.50Q117 275 117 535Q117 791 230 935Q343 1079 539 1079Q698 1079 831 963L831 1049L1004 1049L1004 23M831 813Q694 926 561 926Q430 926 362.50 824Q295 722 295 539Q295 337 358 245.50Q421 154 545 154Q689 154 831 289L831 813M673 1323Q673 1260 646.50 1234Q620 1208 557 1208Q487 1208 464.50 1239Q442 1270 442 1323Q442 1382 466.50 1410Q491 1438 557 1438Q622 1438 647.50 1410Q673 1382 673 1323Z"  horiz-adv-x="1174" vert-adv-y="2048"  />

      
      <glyph glyph-name="uni0122" unicode="&#x0122;" d="M1075 1051Q1026 1141 945 1195Q864 1249 727 1249Q518 1249 421 1111Q324 973 324 688Q324 397 429 266Q534 135 741 135Q821 135 889.50 153.50Q958 172 1038 207L1038 535L702 535L702 702L1223 702L1223 106Q1110 43 998.50 7Q887-29 741-29Q429-29 279 150Q129 329 129 690Q129 1056 279.50 1234.50Q430 1413 729 1413Q899 1413 1022.50 1353Q1146 1293 1225 1153L1075 1051M661-530Q690-492 716.50-451Q743-410 743-369Q684-369 657.50-343Q631-317 631-258Q631-203 657.50-173Q684-143 749-143Q815-143 844.50-176Q874-209 874-274Q874-365 838.50-425Q803-485 766-530L661-530Z"  horiz-adv-x="1391" vert-adv-y="2048"  />

      
      <glyph glyph-name="uni0123" unicode="&#x0123;" d="M1004 23Q1004-188 899.50-291.50Q795-395 553-395Q322-395 172-297L236-158Q371-252 553-252Q700-252 765.50-190.50Q831-129 831 12L831 135Q772 78 690 39Q608 0 512 0Q319 0 218 137.50Q117 275 117 535Q117 791 230 935Q343 1079 539 1079Q698 1079 831 963L831 1049L1004 1049L1004 23M831 813Q694 926 561 926Q430 926 362.50 824Q295 722 295 539Q295 337 358 245.50Q421 154 545 154Q689 154 831 289L831 813M645 1552Q616 1513 589.50 1472.50Q563 1432 563 1391Q622 1391 648.50 1365Q675 1339 675 1280Q675 1225 648.50 1195Q622 1165 557 1165Q491 1165 461.50 1198Q432 1231 432 1296Q432 1358 454.50 1416.50Q477 1475 540 1552L645 1552Z"  horiz-adv-x="1174" vert-adv-y="2048"  />

      
      <glyph glyph-name="uni0124" unicode="&#x0124;" d="M997 0L997 633L367 633L367 0L182 0L182 1384L367 1384L367 801L997 801L997 1384L1182 1384L1182 0L997 0M870 1544L686 1782L501 1544L352 1544L581 1905L792 1905L1020 1544L870 1544Z"  horiz-adv-x="1364" vert-adv-y="2048"  />

      
      <glyph glyph-name="uni0125" unicode="&#x0125;" d="M829 0L829 618Q829 768 814.50 817.50Q800 867 766 890Q732 913 666 913Q600 913 512 863Q424 813 342 741L342 0L170 0L170 1489L342 1489L342 893Q415 966 512 1022.50Q609 1079 707 1079Q859 1079 930 992.50Q1001 906 1001 700L1001 0L829 0M815 1544L631 1782L446 1544L297 1544L526 1905L737 1905L965 1544L815 1544Z"  horiz-adv-x="1163" vert-adv-y="2048"  />

      
      <glyph glyph-name="uni0126" unicode="&#x0126;" d="M997 0L997 633L367 633L367 0L182 0L182 1022L31 1022L31 1165L182 1165L182 1384L367 1384L367 1165L997 1165L997 1384L1182 1384L1182 1165L1333 1165L1333 1022L1182 1022L1182 0L997 0M997 801L997 1022L367 1022L367 801L997 801Z"  horiz-adv-x="1364" vert-adv-y="2048"  />

      
      <glyph glyph-name="uni0127" unicode="&#x0127;" d="M829 0L829 618Q829 768 814.50 817.50Q800 867 766 890Q732 913 666 913Q600 913 512 863Q424 813 342 741L342 0L170 0L170 1194L2 1194L2 1333L170 1333L170 1489L342 1489L342 1333L612 1333L612 1194L342 1194L342 893Q415 966 512 1022.50Q609 1079 707 1079Q859 1079 930 992.50Q1001 906 1001 700L1001 0L829 0Z"  horiz-adv-x="1163" vert-adv-y="2048"  />

      
      <glyph glyph-name="uni0128" unicode="&#x0128;" d="M668 0L102 0L102 160L293 160L293 1227L102 1227L102 1384L668 1384L668 1227L477 1227L477 160L668 160L668 0M10 1557Q16 1682 77.50 1750.50Q139 1819 239 1819Q295 1819 335.50 1796.50Q376 1774 411 1748Q446 1722 477 1699.50Q508 1677 544 1677Q632 1677 641 1806L762 1806Q743 1544 530 1544Q465 1544 425 1566.50Q385 1589 354 1617Q323 1645 295.50 1667.50Q268 1690 227 1690Q176 1690 155.50 1654Q135 1618 131 1557L10 1557Z"  horiz-adv-x="770" vert-adv-y="2048"  />

      
      <glyph glyph-name="uni0129" unicode="&#x0129;" d="M-117 1221Q-111 1346-49.50 1414.50Q12 1483 112 1483Q168 1483 208.50 1460.50Q249 1438 284 1412Q319 1386 350 1363.50Q381 1341 417 1341Q505 1341 514 1470L635 1470Q616 1208 403 1208Q338 1208 298 1230.50Q258 1253 227 1281Q196 1309 168.50 1331.50Q141 1354 100 1354Q49 1354 28.50 1318Q8 1282 4 1221L-117 1221M170 0L170 1049L342 1049L342 0L170 0Z"  horiz-adv-x="512" vert-adv-y="2048"  />

      
      <glyph glyph-name="uni012A" unicode="&#x012A;" d="M668 0L102 0L102 160L293 160L293 1227L102 1227L102 1384L668 1384L668 1227L477 1227L477 160L668 160L668 0M88 1591L88 1731L698 1731L698 1591L88 1591Z"  horiz-adv-x="770" vert-adv-y="2048"  />

      
      <glyph glyph-name="uni012B" unicode="&#x012B;" d="M-47 1255L-47 1395L563 1395L563 1255L-47 1255M170 0L170 1049L342 1049L342 0L170 0Z"  horiz-adv-x="512" vert-adv-y="2048"  />

      
      <glyph glyph-name="uni012C" unicode="&#x012C;" d="M668 0L102 0L102 160L293 160L293 1227L102 1227L102 1384L668 1384L668 1227L477 1227L477 160L668 160L668 0M716 1825Q716 1701 630 1621.50Q544 1542 387 1542Q235 1542 148 1623Q61 1704 61 1825L188 1825Q202 1761 254.50 1730.50Q307 1700 385 1700Q487 1700 532 1730.50Q577 1761 589 1825L716 1825Z"  horiz-adv-x="770" vert-adv-y="2048"  />

      
      <glyph glyph-name="uni012D" unicode="&#x012D;" d="M585 1489Q585 1365 499 1285.50Q413 1206 256 1206Q104 1206 17 1287Q-70 1368-70 1489L57 1489Q71 1425 123.50 1394.50Q176 1364 254 1364Q356 1364 401 1394.50Q446 1425 458 1489L585 1489M170 0L170 1049L342 1049L342 0L170 0Z"  horiz-adv-x="512" vert-adv-y="2048"  />

      
      <glyph glyph-name="uni012E" unicode="&#x012E;" d="M666-326Q612-360 566-377.50Q520-395 467-395Q374-395 323-348Q272-301 272-211Q272-84 410 0L102 0L102 160L293 160L293 1227L102 1227L102 1384L668 1384L668 1227L477 1227L477 160L668 160L668 0Q537-41 475.50-82.50Q414-124 414-184Q414-219 433.50-237.50Q453-256 487-256Q537-256 610-217L666-326Z"  horiz-adv-x="770" vert-adv-y="2048"  />

      
      <glyph glyph-name="uni012F" unicode="&#x012F;" d="M342 0Q231-33 180-86Q129-139 129-184Q129-219 148.50-237.50Q168-256 203-256Q238-256 266.50-244.50Q295-233 326-217L381-326Q328-360 282-377.50Q236-395 182-395Q92-395 40-349.50Q-12-304-12-211Q-12-137 36-74.50Q84-12 170 29L170 1049L342 1049L342 0M369 1315Q369 1255 342 1233.50Q315 1212 256 1212Q193 1212 169 1239Q145 1266 145 1315Q145 1368 171 1392.50Q197 1417 256 1417Q317 1417 343 1393.50Q369 1370 369 1315Z"  horiz-adv-x="512" vert-adv-y="2048"  />

      
      <glyph glyph-name="uni0130" unicode="&#x0130;" d="M668 0L102 0L102 160L293 160L293 1227L102 1227L102 1384L668 1384L668 1227L477 1227L477 160L668 160L668 0M507 1659Q507 1596 480.50 1570Q454 1544 391 1544Q321 1544 298.50 1575Q276 1606 276 1659Q276 1718 300.50 1746Q325 1774 391 1774Q456 1774 481.50 1746Q507 1718 507 1659Z"  horiz-adv-x="770" vert-adv-y="2048"  />

      
      <glyph glyph-name="uni0131" unicode="&#x0131;" d="M170 0L170 1049L342 1049L342 0L170 0Z"  horiz-adv-x="512" vert-adv-y="2048"  />

      
      </font>
</defs>
</svg>
