<?xml version="1.0" standalone="no"?>
  <!DOCTYPE svg PUBLIC "-//W3C//DTD SVG 1.1//EN" "http://www.w3.org/Graphics/SVG/1.1/DTD/svg11.dtd" >
  <svg>
  <metadata>
  Created by font-carrier
  </metadata>
  <defs>
  <font id="Reef-Bold" horiz-adv-x="2048" vert-adv-y="2048" >
    <font-face
      
      font-family="Reef"
      
      font-weight="400"
      
      font-stretch="normal"
      
      units-per-em="2048"
      
      ascent="2189"
      
      descent="-600"
      
    />
      <missing-glyph />

      

      
      <glyph glyph-name="uni21" unicode="&#x21;" d="M216 1473Q254 1473 282 1446Q309 1419 309 1380L309 395Q309 356 282 329Q254 301 216 301Q177 301 149 329Q122 356 122 395L122 1380Q122 1419 149 1446Q177 1473 216 1473M110 106Q110 149 141 180Q172 211 216 211Q259 211 290 180Q321 149 321 106Q321 62 290 31Q259 0 216 0Q172 0 141 31Q110 62 110 106Z"  horiz-adv-x="431" vert-adv-y="2048"  />

      
      <glyph glyph-name="uni22" unicode="&#x22;" d="M144 1545Q182 1545 210 1518Q237 1491 237 1452L237 1233Q237 1194 210 1166Q182 1139 144 1139Q105 1139 77 1166Q50 1194 50 1233L50 1452Q50 1491 77 1518Q105 1545 144 1545M388 1545Q426 1545 454 1518Q481 1491 481 1452L481 1233Q481 1194 454 1166Q426 1139 388 1139Q349 1139 322 1166Q294 1194 294 1233L294 1452Q294 1491 322 1518Q349 1545 388 1545Z"  horiz-adv-x="531" vert-adv-y="2048"  />

      
      <glyph glyph-name="uni23" unicode="&#x23;" d="M498 603L683 603L683 418L498 418L498 603M870 418L870 603L1007 603Q1046 603 1073 630Q1100 657 1100 696Q1100 735 1073 762Q1046 790 1007 790L870 790L870 927Q870 966 842 993Q815 1020 776 1020Q737 1020 710 993Q683 966 683 927L683 790L498 790L498 927Q498 966 471 993Q443 1020 404 1020Q366 1020 338 993Q311 966 311 927L311 790L174 790Q135 790 107 762Q80 735 80 696Q80 657 107 630Q135 603 174 603L311 603L311 418L174 418Q135 418 107 391Q80 363 80 324Q80 286 107 258Q135 231 174 231L311 231L311 94Q311 55 338 27Q366 0 404 0Q443 0 471 27Q498 55 498 94L498 231L683 231L683 94Q683 55 710 27Q737 0 776 0Q815 0 842 27Q870 55 870 94L870 231L1007 231Q1046 231 1073 258Q1100 286 1100 324Q1100 363 1073 391Q1046 418 1007 418L870 418Z"  horiz-adv-x="1180" vert-adv-y="2048"  />

      
      <glyph glyph-name="uni24" unicode="&#x24;" d="M736 358Q708 253 605 206L605 641Q682 605 720 528Q759 448 736 358M314 1079Q314 1196 418 1252L418 878Q314 932 314 1048L314 1079M605 1252Q673 1215 698 1142Q719 1079 786 1079L787 1079Q835 1079 864 1118Q892 1157 877 1203Q810 1403 605 1454L605 1503Q605 1541 578 1569Q550 1596 511 1596Q473 1596 445 1569Q418 1541 418 1503L418 1456Q290 1425 208 1320Q124 1214 124 1079L124 1050Q124 915 208 811Q290 709 418 676L418 200Q307 242 274 357Q255 423 184 423Q136 423 108 384Q80 345 94 299Q127 185 215 105Q302 24 418 1L418-43Q418-82 445-110Q473-137 511-137Q550-137 578-110Q605-82 605-43L605 5Q725 34 811 121Q900 210 924 333Q960 510 864 659Q770 803 605 843L605 1252Z"  horiz-adv-x="1040" vert-adv-y="2048"  />

      
      <glyph glyph-name="uni25" unicode="&#x25;" d="M204 17Q172 38 164 76Q155 114 176 147L1005 1433Q1026 1466 1064 1474Q1101 1482 1134 1461Q1167 1440 1175 1402Q1183 1364 1162 1332L334 45Q313 13 275 5Q237-4 204 17M988 438Q931 438 891 398Q850 357 850 300Q850 243 891 203Q931 163 988 163Q1045 163 1085 203Q1125 243 1125 300Q1125 357 1085 398Q1045 438 988 438M988 0Q864 0 776 88Q688 176 688 300Q688 425 776 513Q864 601 988 601Q1112 601 1200 513Q1288 425 1288 300Q1288 176 1200 88Q1112 0 988 0M380 1312Q323 1312 283 1272Q243 1231 243 1174Q243 1118 283 1077Q323 1037 380 1037Q437 1037 477 1077Q518 1118 518 1174Q518 1231 477 1272Q437 1312 380 1312M380 874Q256 874 168 962Q80 1050 80 1174Q80 1299 168 1387Q256 1475 380 1475Q504 1475 593 1387Q681 1299 681 1174Q681 1050 593 962Q504 874 380 874Z"  horiz-adv-x="1368" vert-adv-y="2048"  />

      
      <glyph glyph-name="uni26" unicode="&#x26;" d="M699 268Q629 191 527 191L523 191Q443 191 379 238Q314 287 294 364Q271 451 308 530Q344 605 419 642L760 328L699 268M384 932Q325 986 321 1067Q317 1149 371 1208Q429 1274 514 1274L520 1274Q600 1274 656 1217Q713 1160 713 1079L713 1048Q713 968 655 912Q599 856 518 856L470 853L384 932M1034 335L1100 401Q1128 429 1128 468Q1128 507 1100 535Q1073 563 1033 563Q994 563 966 535L895 463L647 691Q760 732 829 828Q901 927 901 1051L901 1079Q901 1239 789 1351Q678 1464 520 1464L514 1464Q345 1464 231 1335L230 1335Q229 1333 227 1331Q225 1328 224 1327Q207 1307 206 1304Q118 1186 132 1039Q146 891 256 791L274 775Q174 702 128 588Q80 468 106 338Q136 190 256 94Q374 0 526 0L527 0Q708 0 833 134L900 200L1083 32Q1112 5 1152 7Q1191 8 1218 38Q1244 67 1243 106Q1241 145 1212 171L1034 335Z"  horiz-adv-x="1274" vert-adv-y="2048"  />

      
      <glyph glyph-name="uni27" unicode="&#x27;" d="M144 1545Q182 1545 210 1518Q237 1491 237 1452L237 1233Q237 1194 210 1166Q182 1139 144 1139Q105 1139 77 1166Q50 1194 50 1233L50 1452Q50 1491 77 1518Q105 1545 144 1545Z"  horiz-adv-x="287" vert-adv-y="2048"  />

      
      <glyph glyph-name="uni28" unicode="&#x28;" d="M526-14Q431-14 364 53Q297 120 297 215L297 1247Q297 1342 364 1409Q431 1476 526 1476L527 1476Q566 1476 593 1504Q621 1531 621 1570Q621 1608 593 1636Q566 1663 527 1663L526 1663Q354 1663 232 1541Q110 1419 110 1247L110 215Q110 43 232-79Q354-201 526-201L527-201Q566-201 593-174Q621-146 621-107Q621-69 593-41Q566-14 527-14L526-14Z"  horiz-adv-x="641" vert-adv-y="2048"  />

      
      <glyph glyph-name="uni29" unicode="&#x29;" d="M114-14Q75-14 47-41Q20-69 20-107Q20-146 47-174Q75-201 114-201L115-201Q287-201 409-79Q531 43 531 215L531 1247Q531 1419 409 1541Q287 1663 115 1663L114 1663Q75 1663 47 1636Q20 1608 20 1570Q20 1531 47 1504Q75 1476 114 1476L115 1476Q210 1476 277 1409Q344 1342 344 1247L344 215Q344 120 277 53Q210-14 115-14L114-14Z"  horiz-adv-x="641" vert-adv-y="2048"  />

      
      <glyph glyph-name="uni2a" unicode="&#x2a;" d="M843 1152Q843 1190 816 1218Q788 1245 749 1245L672 1245L727 1300Q754 1327 754 1366Q754 1405 727 1432Q699 1459 661 1459Q622 1459 595 1432L540 1377L540 1454Q540 1493 513 1521Q485 1548 446 1548Q408 1548 380 1521Q353 1493 353 1454L353 1377L298 1432Q271 1459 232 1459Q194 1459 166 1432Q139 1405 139 1366Q139 1327 166 1300L221 1245L144 1245Q105 1245 77 1218Q50 1190 50 1152Q50 1113 77 1085Q105 1058 144 1058L221 1058L166 1003Q139 976 139 937Q139 899 166 871Q194 844 232 844Q271 844 298 871L353 926L353 849Q353 810 380 782Q408 755 446 755Q485 755 513 782Q540 810 540 849L540 926L595 871Q622 844 661 844Q699 844 727 871Q754 899 754 937Q754 976 727 1003L672 1058L749 1058Q788 1058 816 1085Q843 1113 843 1152Z"  horiz-adv-x="893" vert-adv-y="2048"  />

      
      <glyph glyph-name="uni2b" unicode="&#x2b;" d="M540 819L540 1028Q540 1067 513 1095Q485 1122 447 1122Q408 1122 380 1095Q353 1067 353 1028L353 819L144 819Q105 819 77 792Q50 764 50 726Q50 687 77 659Q105 632 144 632L353 632L353 423Q353 384 380 356Q408 329 447 329Q485 329 513 356Q540 384 540 423L540 632L749 632Q788 632 816 659Q843 687 843 726Q843 764 816 792Q788 819 749 819L540 819Z"  horiz-adv-x="893" vert-adv-y="2048"  />

      
      <glyph glyph-name="uni2c" unicode="&#x2c;" d="M296 133Q330 115 342 78Q354 41 336 7L234-188Q216-222 179-233Q142-245 107-227Q73-209 62-172Q50-135 68-101L170 94Q188 128 225 139Q262 151 296 133Z"  horiz-adv-x="404" vert-adv-y="2048"  />

      
      <glyph glyph-name="uni2d" unicode="&#x2d;" d="M843 728Q843 689 816 661Q788 634 749 634L144 634Q105 634 77 661Q50 689 50 728Q50 766 77 794Q105 821 144 821L749 821Q788 821 816 794Q843 766 843 728Z"  horiz-adv-x="893" vert-adv-y="2048"  />

      
      <glyph glyph-name="uni2e" unicode="&#x2e;" d="M261 106Q261 62 230 31Q199 0 156 0Q112 0 81 31Q50 62 50 106Q50 149 81 180Q112 211 156 211Q199 211 230 180Q261 149 261 106Z"  horiz-adv-x="311" vert-adv-y="2048"  />

      
      <glyph glyph-name="uni2f" unicode="&#x2f;" d="M87 7Q51 20 35 56Q20 91 34 127L536 1434Q550 1470 586 1486Q621 1502 657 1488Q693 1474 709 1439Q725 1403 711 1367L208 60Q194 24 159 8Q123-7 87 7Z"  horiz-adv-x="745" vert-adv-y="2048"  />

      
      <glyph glyph-name="uni30" unicode="&#x30;" d="M676 386Q676 303 620 245Q564 187 485 187L479 187Q399 187 343 245Q287 303 287 386L287 1085Q287 1167 343 1226Q399 1284 479 1284L485 1284Q564 1284 620 1226Q676 1167 676 1085L676 386M863 1085Q863 1245 752 1358Q641 1471 485 1471L479 1471Q322 1471 211 1358Q100 1245 100 1085L100 386Q100 226 211 113Q322 0 479 0L485 0Q641 0 752 113Q863 226 863 386L863 1085Z"  horiz-adv-x="963" vert-adv-y="2048"  />

      
      <glyph glyph-name="uni31" unicode="&#x31;" d="M473 1475Q434 1475 407 1448L107 1148Q80 1121 80 1082Q80 1044 107 1016Q135 989 174 989Q212 989 240 1016L380 1156L380 94Q380 55 407 27Q434 0 473 0Q512 0 539 27Q567 55 567 94L567 1382Q567 1421 539 1448Q512 1475 473 1475Z"  horiz-adv-x="677" vert-adv-y="2048"  />

      
      <glyph glyph-name="uni32" unicode="&#x32;" d="M356 187L767 849Q847 960 837 1099Q827 1238 728 1337L723 1342Q612 1453 454 1452L454 1452Q450 1452 434 1452Q426 1451 428 1451Q313 1443 221 1372Q132 1302 95 1195Q80 1151 109 1112Q137 1074 185 1074Q252 1074 272 1135Q297 1208 365 1243Q419 1265 457 1265Q535 1265 591 1209L596 1205Q644 1157 650 1089Q657 1023 621 967Q619 964 105 143Q84 110 93 73Q102 35 134 14Q156 1 182 0Q183 0 745 0Q784 0 811 27Q838 55 838 94Q838 132 811 160Q784 187 745 187L356 187Z"  horiz-adv-x="927" vert-adv-y="2048"  />

      
      <glyph glyph-name="uni33" unicode="&#x33;" d="M873 1067L873 1073Q873 1236 763 1353Q653 1470 496 1474L486 1474Q362 1471 263 1393Q166 1318 128 1199Q114 1153 142 1113Q171 1073 218 1073Q286 1073 306 1137Q325 1199 376 1239Q427 1279 491 1280Q572 1278 629 1218Q686 1158 686 1073L686 1067Q686 1002 651 949Q616 898 560 874Q486 844 486 765L486 763Q486 682 564 651Q629 626 669 567Q710 507 710 434L710 430Q710 349 663 284Q615 219 540 201Q449 179 372 227Q297 274 272 360Q252 427 183 427Q135 427 107 387Q80 347 94 299Q142 141 281 58Q426-29 593 15Q727 50 813 167Q897 284 897 430L897 434Q897 638 742 767Q873 887 873 1067Z"  horiz-adv-x="987" vert-adv-y="2048"  />

      
      <glyph glyph-name="uni34" unicode="&#x34;" d="M316 698L531 1051L531 698L316 698M718 698L718 1385Q718 1424 691 1451Q664 1478 625 1478Q580 1478 551 1442Q550 1441 549 1440Q547 1437 546 1436Q546 1435 546 1435Q545 1434 545 1434L70 654Q50 621 59 583Q68 545 101 525Q121 513 146 512Q147 512 148 511Q149 511 150 511L531 511L531 94Q531 55 559 27Q586 0 625 0Q664 0 691 27Q718 55 718 94L718 511L799 511Q838 511 865 539Q893 566 893 605Q893 644 865 671Q838 698 799 698L718 698Z"  horiz-adv-x="973" vert-adv-y="2048"  />

      
      <glyph glyph-name="uni35" unicode="&#x35;" d="M487 846Q483 846 315 846L315 1269L740 1269Q777 1269 804 1294Q832 1320 834 1357Q836 1398 810 1427Q783 1456 745 1456L226 1456Q189 1456 163 1429Q137 1401 137 1362L137 753Q137 714 163 686Q189 659 226 659L477 659Q563 659 629 601Q696 542 707 454Q720 347 652 267Q586 187 485 187L478 187Q402 187 342 235Q283 283 263 358Q245 422 178 422Q133 422 107 384Q80 346 93 301Q131 169 236 85Q344 0 478 0L482 0Q620 0 729 86Q840 174 873 312Q924 518 801 683Q681 845 487 846Z"  horiz-adv-x="1004" vert-adv-y="2048"  />

      
      <glyph glyph-name="uni36" unicode="&#x36;" d="M676 379Q676 299 620 243Q564 187 485 187L479 187Q399 187 343 243Q287 299 287 379L287 508Q287 587 343 643Q399 699 479 699L485 699Q564 699 620 643Q676 587 676 508L676 379M863 512Q863 521 862 529Q854 679 745 782Q635 886 485 886L479 886Q376 886 287 834L287 1095Q287 1174 343 1230Q399 1286 479 1286L485 1286Q547 1286 597 1250Q647 1214 666 1156Q687 1095 754 1095Q801 1095 830 1133Q858 1172 843 1216Q805 1330 707 1401Q608 1473 485 1473L479 1473Q322 1473 211 1362Q100 1251 100 1095L100 379Q100 222 211 111Q322 0 479 0L485 0Q641 0 752 111Q863 222 863 379Q863 510 863 512Z"  horiz-adv-x="943" vert-adv-y="2048"  />

      
      <glyph glyph-name="uni37" unicode="&#x37;" d="M810 1327Q813 1336 815 1346Q817 1355 817 1363Q817 1402 789 1429Q762 1457 723 1457L174 1457Q135 1457 107 1429Q80 1402 80 1363Q80 1325 107 1297Q135 1270 174 1270L583 1270L107 130Q92 94 106 58Q121 22 157 8Q193-7 228 7Q264 22 279 58L809 1327Q809 1327 810 1327Z"  horiz-adv-x="867" vert-adv-y="2048"  />

      
      <glyph glyph-name="uni38" unicode="&#x38;" d="M497 192Q402 192 335 264Q267 336 267 437Q267 538 335 609Q402 681 497 681L504 681Q599 681 666 609Q734 538 734 437Q734 336 666 264Q599 192 504 192L497 192M504 1281Q583 1281 639 1221Q695 1162 695 1077Q695 993 639 933Q583 873 504 873L497 873Q418 873 362 933Q306 993 306 1077Q306 1162 362 1221Q418 1281 497 1281L504 1281M757 783Q882 902 882 1077Q882 1241 771 1357Q660 1473 504 1473L497 1473Q341 1473 230 1357Q119 1241 119 1077Q119 902 245 783Q80 652 80 437Q80 256 202 128Q325 0 497 0L504 0Q676 0 799 128Q921 256 921 437Q921 652 757 783Z"  horiz-adv-x="1001" vert-adv-y="2048"  />

      
      <glyph glyph-name="uni39" unicode="&#x39;" d="M267 1095Q267 1174 323 1230Q379 1286 459 1286L465 1286Q544 1286 600 1230Q656 1174 656 1095L656 953Q656 874 600 818Q544 762 465 762L459 762Q379 762 323 818Q267 874 267 953L267 1095M80 949Q80 940 81 931Q90 782 199 678Q308 574 459 574L465 574Q567 574 656 627L656 379Q656 299 600 243Q544 187 465 187L459 187Q396 187 346 224Q297 260 277 317Q256 379 189 379Q142 379 113 340Q85 302 100 257Q139 144 236 73Q335 0 459 0L465 0Q621 0 732 111Q843 222 843 379L843 1095Q843 1251 732 1362Q621 1473 465 1473L459 1473Q302 1473 191 1362Q80 1251 80 1095Q80 950 80 949Z"  horiz-adv-x="943" vert-adv-y="2048"  />

      
      <glyph glyph-name="uni3a" unicode="&#x3a;" d="M261 1000Q261 957 230 926Q199 895 156 895Q112 895 81 926Q50 957 50 1000Q50 1044 81 1075Q112 1106 156 1106Q199 1106 230 1075Q261 1044 261 1000M261 419Q261 375 230 344Q199 313 156 313Q112 313 81 344Q50 375 50 419Q50 462 81 493Q112 524 156 524Q199 524 230 493Q261 462 261 419Z"  horiz-adv-x="311" vert-adv-y="2048"  />

      
      <glyph glyph-name="uni3b" unicode="&#x3b;" d="M286 554Q320 536 332 499Q344 462 326 428L224 233Q206 199 169 188Q132 176 97 194Q63 212 52 249Q40 286 58 320L160 515Q178 549 215 560Q252 572 286 554M301 1000Q301 957 270 926Q239 895 196 895Q152 895 121 926Q90 957 90 1000Q90 1044 121 1075Q152 1106 196 1106Q239 1106 270 1075Q301 1044 301 1000Z"  horiz-adv-x="384" vert-adv-y="2048"  />

      
      <glyph glyph-name="uni3c" unicode="&#x3c;" d="M301 659L687 947Q718 970 723 1009Q729 1047 706 1078Q683 1109 644 1115Q606 1120 575 1097L89 735Q63 715 55 682Q50 660 55 636Q63 603 89 583L575 221Q606 198 644 203Q683 209 706 240Q729 271 723 309Q718 347 687 371L301 659Z"  horiz-adv-x="779" vert-adv-y="2048"  />

      
      <glyph glyph-name="uni3d" unicode="&#x3d;" d="M843 536Q843 497 816 469Q788 442 749 442L144 442Q105 442 77 469Q50 497 50 536Q50 574 77 602Q105 629 144 629L749 629Q788 629 816 602Q843 574 843 536M843 910Q843 871 816 844Q788 816 749 816L144 816Q105 816 77 844Q50 871 50 910Q50 948 77 976Q105 1003 144 1003L749 1003Q788 1003 816 976Q843 948 843 910Z"  horiz-adv-x="893" vert-adv-y="2048"  />

      
      <glyph glyph-name="uni3e" unicode="&#x3e;" d="M92 371Q61 347 55 309Q50 271 73 240Q96 209 134 203Q173 198 204 221L689 583Q716 603 724 636Q729 660 724 682Q716 715 689 735L204 1097Q173 1120 134 1115Q96 1109 73 1078Q50 1047 55 1009Q61 970 92 947L478 659L92 371Z"  horiz-adv-x="779" vert-adv-y="2048"  />

      
      <glyph glyph-name="uni3f" unicode="&#x3f;" d="M528 106Q528 62 497 31Q466 0 423 0Q379 0 348 31Q317 62 317 106Q317 149 348 180Q379 211 423 211Q466 211 497 180Q528 149 528 106M429 1474Q304 1474 203 1399Q104 1327 65 1210Q50 1164 79 1125Q108 1086 156 1086L156 1086Q224 1086 245 1149Q265 1208 314 1244Q365 1282 429 1282L435 1282Q515 1282 572 1225Q629 1167 629 1086L629 1055Q629 951 542 894Q446 838 388 742Q327 642 327 530L327 385Q327 346 354 318Q382 291 421 291Q459 291 487 318Q514 346 514 385L514 530Q514 659 624 726Q818 838 818 1058L818 1086Q818 1246 706 1360Q594 1474 435 1474L429 1474Z"  horiz-adv-x="868" vert-adv-y="2048"  />

      
      <glyph glyph-name="uni40" unicode="&#x40;" d="M1158 705Q1158 610 1090 543Q1023 476 929 476L922 476Q827 476 760 543Q693 610 693 705L693 784Q693 879 760 946Q827 1013 922 1013L929 1013Q1023 1013 1090 946Q1158 879 1158 784L1158 705M886 1575Q568 1560 339 1331Q110 1101 95 784Q80 456 292 207Q502-40 822-80Q863-85 894-57Q925-28 925 14Q925 50 901 77Q877 103 840 108Q603 139 444 320Q283 502 283 745Q283 1020 483 1210Q684 1401 960 1386Q1223 1372 1403 1170Q1582 968 1566 705Q1558 570 1511 476L1345 476L1345 1106Q1345 1145 1317 1173Q1290 1200 1251 1200Q1178 1200 1161 1129Q1056 1200 929 1200L922 1200Q750 1200 628 1078Q506 956 506 784L506 705Q506 533 628 411Q750 289 922 289L929 289Q1056 289 1161 360Q1162 357 1163 355Q1183 293 1248 289Q1251 289 1251 289L1568 289Q1609 289 1637 319Q1635 317 1641 324Q1646 331 1647 332Q1647 332 1648 334Q1649 335 1650 336Q1756 512 1756 745Q1756 1099 1500 1345Q1242 1591 886 1575Z"  horiz-adv-x="1836" vert-adv-y="2048"  />

      
      <glyph glyph-name="uni41" unicode="&#x41;" d="M297 881L297 1095Q297 1133 312 1168Q313 1171 313 1170Q323 1195 340 1216Q341 1216 342 1217Q342 1218 343 1219Q352 1229 363 1239Q368 1244 369 1244Q375 1249 381 1253Q386 1257 394 1261Q399 1264 408 1268Q414 1271 421 1274L431 1277Q442 1281 454 1283Q456 1283 462 1284Q476 1286 487 1286L496 1286Q507 1286 521 1284Q527 1283 529 1283Q541 1281 552 1277Q553 1277 561 1274Q568 1271 575 1268Q583 1264 589 1261Q596 1257 602 1253Q608 1249 614 1244Q616 1242 620 1239Q631 1229 640 1219Q643 1215 642 1216Q659 1195 670 1170L671 1168Q686 1133 686 1095L686 881L297 881M854 1213Q854 1215 853 1216Q791 1399 607 1456Q606 1456 605 1457Q590 1461 574 1465L570 1465Q568 1466 567 1466Q553 1469 538 1471L530 1472Q511 1473 495 1473L488 1473Q472 1473 452 1472L445 1471Q430 1469 416 1466Q415 1466 412 1465L409 1465Q393 1461 378 1457Q376 1456 375 1456Q191 1399 129 1216Q131 1221 128 1211Q110 1154 110 1095L110 94Q110 55 137 27Q165 0 204 0Q242 0 270 27Q297 55 297 94L297 694L686 694L686 94Q686 55 713 27Q740 0 779 0Q818 0 845 27Q873 55 873 94L873 1095Q873 1154 854 1211L854 1213Z"  horiz-adv-x="983" vert-adv-y="2048"  />

      
      <glyph glyph-name="uni42" unicode="&#x42;" d="M738 428Q738 331 671 262Q603 193 509 193L297 193L297 671L509 671Q603 671 671 602Q738 533 738 436L738 428M702 1061Q702 980 646 922Q589 864 510 864L297 864L297 1265L510 1265Q589 1265 645 1207Q702 1149 702 1067L702 1061M889 1061L889 1067Q889 1229 778 1343Q667 1457 510 1457L204 1457Q165 1457 137 1429Q110 1401 110 1361L110 96Q110 56 137 28Q165 0 204 0L511 0Q683 1 804 127Q925 252 925 428L925 436Q925 644 764 773Q889 889 889 1061Z"  horiz-adv-x="1005" vert-adv-y="2048"  />

      
      <glyph glyph-name="uni43" unicode="&#x43;" d="M734 379Q667 379 646 317Q627 260 577 224Q527 187 465 187L459 187Q379 187 323 243Q267 299 267 379L267 1095Q267 1174 323 1230Q379 1286 459 1286L465 1286Q527 1286 577 1250Q627 1214 646 1156Q667 1095 734 1095Q781 1095 810 1133Q838 1172 823 1216Q785 1330 687 1401Q588 1473 465 1473L459 1473Q302 1473 191 1362Q80 1251 80 1095L80 379Q80 222 191 111Q302 0 459 0L465 0Q588 0 687 73Q785 144 823 257Q838 302 810 340Q781 379 734 379Z"  horiz-adv-x="888" vert-adv-y="2048"  />

      
      <glyph glyph-name="uni44" unicode="&#x44;" d="M702 379Q702 299 645 243Q589 187 510 187L297 187L297 1251L510 1251Q589 1251 645 1195Q702 1139 702 1060L702 379M204 1438Q165 1438 137 1411Q110 1383 110 1345L110 94Q110 55 137 27Q165 0 204 0L510 0Q667 0 778 111Q889 222 889 379L889 1060Q889 1216 778 1327Q667 1438 510 1438L204 1438Z"  horiz-adv-x="969" vert-adv-y="2048"  />

      
      <glyph glyph-name="uni45" unicode="&#x45;" d="M297 187L297 676L637 676Q676 676 704 704Q731 731 731 770Q731 809 704 836Q676 863 637 863L297 863L297 1251L697 1251Q736 1251 763 1279Q791 1306 791 1345Q791 1383 763 1411Q736 1438 697 1438L204 1438Q165 1438 137 1411Q110 1383 110 1345L110 94Q110 55 137 27Q165 0 204 0L697 0Q736 0 763 27Q791 55 791 94Q791 132 763 160Q736 187 697 187L297 187Z"  horiz-adv-x="871" vert-adv-y="2048"  />

      
      <glyph glyph-name="uni46" unicode="&#x46;" d="M697 1251Q736 1251 763 1279Q791 1306 791 1345Q791 1383 763 1411Q736 1438 697 1438L204 1438Q165 1438 137 1411Q110 1383 110 1345L110 94Q110 55 137 27Q165 0 204 0Q242 0 270 27Q297 55 297 94L297 676L637 676Q676 676 704 704Q731 731 731 770Q731 809 704 836Q676 863 637 863L297 863L297 1251L697 1251Z"  horiz-adv-x="841" vert-adv-y="2048"  />

      
      <glyph glyph-name="uni47" unicode="&#x47;" d="M465 883L465 883Q427 882 400 855Q374 828 374 790Q374 752 400 725Q427 697 465 696L465 696Q544 696 600 640Q656 584 656 505L656 379Q656 299 600 243Q544 187 465 187L459 187Q379 187 323 243Q267 299 267 379L267 1095Q267 1174 323 1230Q379 1286 459 1286L465 1286Q527 1286 577 1250Q627 1214 646 1156Q667 1095 734 1095Q781 1095 810 1133Q838 1172 823 1216Q785 1330 687 1401Q588 1473 465 1473L459 1473Q302 1473 191 1362Q80 1251 80 1095L80 379Q80 222 191 111Q302 0 459 0L465 0Q621 0 732 111Q843 222 843 379L843 505Q843 661 733 771Q623 882 467 883L465 883Z"  horiz-adv-x="923" vert-adv-y="2048"  />

      
      <glyph glyph-name="uni48" unicode="&#x48;" d="M770 1473Q731 1473 704 1446Q676 1419 676 1380L676 881L297 881L297 1380Q297 1419 270 1446Q242 1473 204 1473Q165 1473 137 1446Q110 1419 110 1380L110 94Q110 55 137 27Q165 0 204 0Q242 0 270 27Q297 55 297 94L297 694L676 694L676 94Q676 55 704 27Q731 0 770 0Q809 0 836 27Q863 55 863 94L863 1380Q863 1419 836 1446Q809 1473 770 1473Z"  horiz-adv-x="973" vert-adv-y="2048"  />

      
      <glyph glyph-name="uni49" unicode="&#x49;" d="M204 0Q165 0 137 27Q110 55 110 94L110 1380Q110 1419 137 1446Q165 1473 204 1473Q242 1473 270 1446Q297 1419 297 1380L297 94Q297 55 270 27Q242 0 204 0Z"  horiz-adv-x="407" vert-adv-y="2048"  />

      
      <glyph glyph-name="uni4a" unicode="&#x4a;" d="M675 1473Q636 1473 609 1446Q581 1419 581 1380L581 379Q581 299 525 243Q469 187 390 187L384 187Q322 187 271 224Q222 260 202 317Q182 379 115 379Q67 379 39 340Q10 302 25 257Q64 144 161 73Q261 0 384 0L390 0Q546 0 657 111Q768 222 768 379L768 1380Q768 1419 741 1446Q714 1473 675 1473Z"  horiz-adv-x="848" vert-adv-y="2048"  />

      
      <glyph glyph-name="uni4b" unicode="&#x4b;" d="M417 775L875 1321Q900 1350 897 1388Q894 1426 865 1451Q836 1476 797 1473Q759 1470 734 1441L297 919L297 1380Q297 1419 270 1446Q242 1473 204 1473Q165 1473 137 1446Q110 1419 110 1380L110 94Q110 55 137 28Q165 0 204 0Q242 0 270 28Q297 55 297 94L297 625L730 38Q753 7 791 1Q829-5 860 18Q890 41 896 79Q902 117 879 148L417 775Z"  horiz-adv-x="982" vert-adv-y="2048"  />

      
      <glyph glyph-name="uni4c" unicode="&#x4c;" d="M297 187L297 1362Q297 1401 270 1428Q242 1456 204 1456Q165 1456 137 1428Q110 1401 110 1362L110 94Q110 55 137 27Q165 0 204 0L744 0Q783 0 810 27Q838 55 838 94Q838 132 810 160Q783 187 744 187L297 187Z"  horiz-adv-x="888" vert-adv-y="2048"  />

      
      <glyph glyph-name="uni4d" unicode="&#x4d;" d="M1102 1469Q1060 1469 1032 1436Q1029 1433 1025 1428Q1026 1429 1023 1425Q1019 1417 1019 1418L652 702L287 1418Q286 1419 286 1419Q285 1420 285 1421Q258 1469 204 1469Q165 1469 137 1441Q110 1414 110 1375L110 94Q110 55 137 27Q165 0 204 0Q242 0 270 27Q297 55 297 94L297 986L569 453Q587 418 623 407Q660 395 695 412Q712 421 724 438Q730 444 735 453L1009 988L1009 94Q1009 55 1036 27Q1064 0 1102 0Q1141 0 1169 27Q1196 55 1196 94L1196 1375Q1196 1414 1169 1441Q1141 1469 1102 1469Z"  horiz-adv-x="1306" vert-adv-y="2048"  />

      
      <glyph glyph-name="uni4e" unicode="&#x4e;" d="M938 89Q939 97 939 94L939 1380Q939 1419 911 1446Q884 1474 845 1474Q806 1474 779 1446Q752 1419 752 1380L752 491L287 1423Q286 1423 286 1425Q285 1426 284 1426Q281 1433 277 1437L277 1437L277 1438Q248 1474 204 1474Q165 1474 137 1446Q110 1419 110 1380L110 94Q110 55 137 28Q165 0 204 0Q242 0 270 28Q297 55 297 94L297 983L762 51Q780 17 817 5Q853-7 888 11Q928 31 937 76Q937 76 937 78Q938 83 938 89Z"  horiz-adv-x="1049" vert-adv-y="2048"  />

      
      <glyph glyph-name="uni4f" unicode="&#x4f;" d="M505 1286Q406 1286 337 1217Q267 1147 267 1049L267 425Q267 327 337 257Q406 187 505 187Q603 187 673 257Q743 327 743 425L743 1049Q743 1147 673 1217Q603 1286 505 1286M505 0Q329 0 205 125Q80 249 80 425L80 1049Q80 1224 205 1349Q329 1473 505 1473Q681 1473 805 1349Q930 1224 930 1049L930 425Q930 249 805 125Q681 0 505 0Z"  horiz-adv-x="1010" vert-adv-y="2048"  />

      
      <glyph glyph-name="uni50" unicode="&#x50;" d="M702 1073Q702 993 645 937Q589 881 510 881L297 881L297 1270L510 1270Q589 1270 645 1214Q702 1158 702 1079L702 1073M204 1457Q165 1457 137 1430Q110 1403 110 1364L110 94Q110 55 137 27Q165 0 204 0Q242 0 270 27Q297 55 297 94L297 694L510 694Q667 694 778 805Q889 916 889 1073L889 1079Q889 1235 778 1346Q667 1457 510 1457L204 1457Z"  horiz-adv-x="969" vert-adv-y="2048"  />

      
      <glyph glyph-name="uni51" unicode="&#x51;" d="M505 185Q406 185 337 255Q267 324 267 423L267 1047Q267 1145 337 1215Q406 1285 505 1285Q603 1285 673 1215Q743 1145 743 1047L743 423Q743 324 673 255Q603 185 505 185M834 155Q930 272 930 423L930 1047Q930 1223 805 1347Q681 1472 505 1472Q329 1472 205 1347Q80 1223 80 1047L80 423Q80 247 205 123Q329-2 505-2Q599-2 686 39L786-62Q814-89 852-89Q891-89 919-62Q946-34 946 5Q946 43 919 71L834 155Z"  horiz-adv-x="1026" vert-adv-y="2048"  />

      
      <glyph glyph-name="uni52" unicode="&#x52;" d="M297 1270L510 1270Q589 1270 645 1214Q702 1158 702 1079L702 1073Q702 993 645 937Q589 881 510 881L297 881L297 1270M889 1079Q889 1235 778 1346Q667 1457 510 1457L204 1457Q165 1457 137 1430Q110 1403 110 1364L110 94Q110 55 137 27Q165 0 204 0Q242 0 270 27Q297 55 297 94L297 694L510 694Q589 694 645 638Q702 582 702 503L702 94Q702 55 729 27Q756 0 795 0Q834 0 861 27Q889 55 889 94L889 503Q889 674 758 788Q889 901 889 1073L889 1079Z"  horiz-adv-x="969" vert-adv-y="2048"  />

      
      <glyph glyph-name="uni53" unicode="&#x53;" d="M470 862Q389 862 332 918Q274 974 274 1055L274 1086Q274 1168 331 1225Q387 1283 468 1283L474 1283Q537 1283 588 1245Q638 1208 658 1149Q679 1086 746 1086L747 1086Q795 1086 823 1125Q852 1165 837 1211Q798 1327 699 1400Q599 1474 474 1474L468 1474Q309 1474 197 1361Q84 1247 84 1086L84 1058Q84 897 198 785Q311 673 473 670Q586 667 655 576Q726 483 696 366Q675 289 610 240Q546 192 465 192L461 192Q381 192 318 241Q256 289 234 364Q215 431 144 431Q96 431 68 392Q40 353 54 306Q94 172 205 87Q319 0 461 0L462 0Q615 0 734 95Q854 191 884 340Q926 545 797 704Q670 861 470 862Z"  horiz-adv-x="966" vert-adv-y="2048"  />

      
      <glyph glyph-name="uni54" unicode="&#x54;" d="M134 1460Q95 1460 67 1433Q40 1405 40 1367Q40 1328 67 1301Q95 1273 134 1273L383 1273L383 94Q383 55 411 27Q438 0 477 0Q515 0 543 27Q570 55 570 94L570 1273L820 1273Q859 1273 886 1301Q913 1328 913 1367Q913 1405 886 1433Q859 1460 820 1460L134 1460M134 1460Q95 1460 67 1433Q40 1405 40 1367Q40 1328 67 1301Q95 1273 134 1273L383 1273L383 94Q383 55 411 27Q438 0 477 0Q515 0 543 27Q570 55 570 94L570 1273L820 1273Q859 1273 886 1301Q913 1328 913 1367Q913 1405 886 1433Q859 1460 820 1460L134 1460Z"  horiz-adv-x="953" vert-adv-y="2048"  />

      
      <glyph glyph-name="uni55" unicode="&#x55;" d="M485 1Q314 9 196 138Q80 265 80 438L80 1380Q80 1419 107 1447Q135 1474 174 1474Q212 1474 240 1447Q267 1419 267 1380L267 434Q267 342 326 272Q385 200 475 189Q582 176 663 247Q743 318 743 425L743 1380Q743 1419 770 1447Q797 1474 836 1474Q875 1474 902 1447Q930 1419 930 1380L930 425Q930 244 798 118Q667-8 485 1Z"  horiz-adv-x="1010" vert-adv-y="2048"  />

      
      <glyph glyph-name="uni56" unicode="&#x56;" d="M923 1472Q884 1483 848 1464Q813 1445 801 1406L515 442L228 1407Q217 1445 181 1465Q146 1484 107 1472Q68 1461 49 1425Q30 1390 41 1351L422 70Q433 31 469 12Q504-7 543 4Q598 21 610 77L988 1350Q1000 1389 981 1425Q961 1460 923 1472Z"  horiz-adv-x="1030" vert-adv-y="2048"  />

      
      <glyph glyph-name="uni57" unicode="&#x57;" d="M1326 1366Q1332 1404 1310 1436Q1287 1467 1249 1474Q1211 1480 1179 1458Q1148 1436 1141 1397L975 386L774 779Q748 830 691 830Q634 830 608 779L408 386L241 1397Q234 1436 203 1458Q171 1480 133 1474Q95 1467 72 1436Q50 1404 56 1366L270 78Q277 40 308 17Q340-5 378 2Q420 9 443 47Q445 50 691 530L935 51Q953 17 990 5Q1027-7 1061 11Q1099 30 1110 69Q1111 72 1326 1366Z"  horiz-adv-x="1382" vert-adv-y="2048"  />

      
      <glyph glyph-name="uni58" unicode="&#x58;" d="M619 740L929 1341Q947 1376 935 1413Q924 1450 889 1469Q855 1487 818 1475Q781 1463 763 1428L513 944L264 1428Q246 1463 209 1475Q172 1487 138 1469Q103 1450 92 1413Q80 1376 98 1341L408 740L98 139Q80 104 92 67Q103 29 138 11Q172-7 209 5Q246 16 264 51L513 535L763 51Q781 16 818 5Q855-7 889 11Q924 29 935 67Q947 104 929 139L619 740Z"  horiz-adv-x="1027" vert-adv-y="2048"  />

      
      <glyph glyph-name="uni59" unicode="&#x59;" d="M859 1463Q825 1481 788 1469Q751 1457 733 1423L483 945L234 1423Q216 1457 179 1469Q142 1481 108 1463Q73 1445 62 1408Q50 1371 68 1337L390 720L390 94Q390 55 417 27Q445 0 483 0Q522 0 550 27Q577 55 577 94L577 720L899 1337Q917 1371 905 1408Q894 1445 859 1463Z"  horiz-adv-x="967" vert-adv-y="2048"  />

      
      <glyph glyph-name="uni5a" unicode="&#x5a;" d="M335 197L876 1303L879 1310Q881 1314 882 1316.50Q883 1319 884 1323Q887 1336 887 1351Q887 1390 863 1417Q838 1444 800 1444L187 1444Q148 1444 121 1417Q93 1389 93 1351Q93 1312 121 1284Q148 1257 187 1257L645 1257L97 135Q80 100 92 64Q105 27 139 10Q158 0 181 0L794 0Q833 0 860 27Q888 55 888 94Q888 132 860 161Q834 189 794 197L335 197Z"  horiz-adv-x="968" vert-adv-y="2048"  />

      
      <glyph glyph-name="uni5b" unicode="&#x5b;" d="M297-10L297 1480L527 1480Q566 1480 593 1508Q621 1535 621 1574Q621 1612 593 1640Q566 1667 527 1667L204 1667Q165 1667 137 1640Q110 1612 110 1574L110-103Q110-142 137-170Q165-197 204-197L527-197Q566-197 593-170Q621-142 621-103Q621-65 593-37Q566-10 527-10L297-10Z"  horiz-adv-x="641" vert-adv-y="2048"  />

      
      <glyph glyph-name="uni5c" unicode="&#x5c;" d="M657 7Q621-7 586 8Q550 24 536 60L34 1367Q20 1403 35 1439Q51 1474 87 1488Q123 1502 159 1486Q194 1470 208 1434L711 127Q725 91 709 56Q693 20 657 7Z"  horiz-adv-x="745" vert-adv-y="2048"  />

      
      <glyph glyph-name="uni5d" unicode="&#x5d;" d="M114-10Q75-10 47-37Q20-65 20-103Q20-142 47-170Q75-197 114-197L437-197Q476-197 503-170Q531-142 531-103L531 1574Q531 1612 503 1640Q476 1667 437 1667L114 1667Q75 1667 47 1640Q20 1612 20 1574Q20 1535 47 1508Q75 1480 114 1480L344 1480L344-10L114-10Z"  horiz-adv-x="641" vert-adv-y="2048"  />

      
      <glyph glyph-name="uni5e" unicode="&#x5e;" d="M511 1290L800 903Q823 872 861 867Q899 861 930 884Q962 908 967 946Q973 984 949 1015L587 1501Q567 1527 535 1535Q512 1541 489 1535Q455 1527 436 1501L73 1015Q50 984 56 946Q61 908 92 884Q123 861 162 867Q200 872 223 903L511 1290Z"  horiz-adv-x="1023" vert-adv-y="2048"  />

      
      <glyph glyph-name="uni5f" unicode="&#x5f;" d="M843-128Q843-167 816-195Q788-222 749-222L144-222Q105-222 77-195Q50-167 50-128Q50-90 77-62Q105-35 144-35L749-35Q788-35 816-62Q843-90 843-128Z"  horiz-adv-x="893" vert-adv-y="2048"  />

      
      <glyph glyph-name="uni60" unicode="&#x60;" d="M107 1515Q142 1533 179 1521Q216 1510 234 1476L336 1281Q354 1247 342 1210Q330 1173 296 1155Q262 1137 225 1149Q188 1160 170 1194L68 1389Q50 1423 62 1460Q73 1497 107 1515Z"  horiz-adv-x="404" vert-adv-y="2048"  />

      
      <glyph glyph-name="uni61" unicode="&#x61;" d="M702 416Q702 321 634 254Q567 187 473 187L466 187Q371 187 304 254Q237 321 237 416L237 607Q237 702 304 769Q371 836 466 836L473 836Q567 836 634 769Q702 702 702 607L702 416M795 1023Q722 1023 705 952Q599 1023 473 1023L466 1023Q294 1023 172 901Q50 779 50 607L50 416Q50 244 172 122Q294 0 466 0L473 0Q600 0 705 71Q722 0 795 0Q834 0 861 27Q889 55 889 94L889 930Q889 968 861 996Q834 1023 795 1023Z"  horiz-adv-x="979" vert-adv-y="2048"  />

      
      <glyph glyph-name="uni62" unicode="&#x62;" d="M277 607Q277 702 344 769Q411 836 506 836L513 836Q607 836 674 769Q742 702 742 607L742 416Q742 321 674 254Q607 187 513 187L506 187Q411 187 344 254Q277 321 277 416L277 607M90 94Q90 55 117 27Q145 0 184 0Q256 0 274 71Q379 0 506 0L513 0Q685 0 807 122Q929 244 929 416L929 607Q929 779 807 901Q685 1023 513 1023L506 1023Q381 1023 277 954L277 1321Q277 1359 250 1387Q222 1414 184 1414Q145 1414 117 1387Q90 1359 90 1321L90 94Z"  horiz-adv-x="999" vert-adv-y="2048"  />

      
      <glyph glyph-name="uni63" unicode="&#x63;" d="M724 379Q657 379 636 317Q617 260 567 224Q517 187 455 187L449 187Q369 187 313 243Q257 299 257 379L257 642Q257 721 313 777Q369 833 449 833L455 833Q517 833 567 797Q617 761 636 703Q657 642 724 642Q771 642 800 680Q828 719 813 763Q775 877 677 948Q578 1020 455 1020L449 1020Q292 1020 181 909Q70 798 70 642L70 379Q70 222 181 111Q292 0 449 0L455 0Q578 0 677 73Q775 144 813 257Q828 302 800 340Q771 379 724 379Z"  horiz-adv-x="898" vert-adv-y="2048"  />

      
      <glyph glyph-name="uni64" unicode="&#x64;" d="M722 416Q722 321 654 254Q587 187 493 187L486 187Q391 187 324 254Q257 321 257 416L257 607Q257 702 324 769Q391 836 486 836L493 836Q587 836 654 769Q722 702 722 607L722 416M815 1414Q776 1414 749 1387Q722 1359 722 1321L722 954Q617 1023 493 1023L486 1023Q314 1023 192 901Q70 779 70 607L70 416Q70 244 192 122Q314 0 486 0L493 0Q620 0 725 71Q742 0 815 0Q854 0 881 27Q909 55 909 94L909 1321Q909 1359 881 1387Q854 1414 815 1414Z"  horiz-adv-x="999" vert-adv-y="2048"  />

      
      <glyph glyph-name="uni65" unicode="&#x65;" d="M257 604Q257 698 324 765Q391 832 486 832L493 832Q586 832 654 765Q720 697 721 603L257 603L257 604M909 604Q909 640 902 675Q895 719 878 760Q847 836 789 895Q667 1019 493 1019L486 1019Q314 1019 192 897Q70 776 70 604L70 412L70 412Q72 241 193 121Q315 0 486 0L493 0Q703 0 828 170Q856 208 842 254Q828 299 783 314Q718 337 678 282Q609 187 493 187L486 187Q391 187 324 254Q257 321 257 416L722 417Q829 417 883 510Q909 553 909 604Z"  horiz-adv-x="979" vert-adv-y="2048"  />

      
      <glyph glyph-name="uni66" unicode="&#x66;" d="M507 1223Q546 1223 573 1250Q601 1278 601 1317Q601 1355 573 1383Q546 1410 507 1410L506 1410Q334 1410 212 1288Q90 1166 90 994L90 94Q90 55 117 27Q145 0 184 0Q222 0 250 27Q277 55 277 94L277 820L428 820Q467 820 494 848Q521 875 521 914Q521 953 494 980Q467 1008 428 1008L278 1008Q283 1098 349 1160Q415 1223 506 1223L507 1223Z"  horiz-adv-x="601" vert-adv-y="2048"  />

      
      <glyph glyph-name="uni67" unicode="&#x67;" d="M486 177Q391 177 324 244Q257 312 257 406L257 598Q257 692 324 759Q391 826 486 826L493 826Q587 826 654 759Q722 692 722 598L722 406Q722 312 654 244Q587 177 493 177L486 177M909 84L909 920Q909 959 881 986Q854 1014 815 1014Q742 1014 725 943Q619 1014 493 1014L486 1014Q314 1014 192 892Q70 770 70 598L70 406Q70 234 192 112Q314-10 486-10L493-10Q617-10 721 59L721-1L722-1Q722-96 654-163Q587-230 493-230L486-230Q391-230 324-162Q276-113 214-147Q173-169 166-216Q159-262 193-296Q314-417 486-417L493-417Q665-417 787-295Q909-173 909-1L908-1L909 84Z"  horiz-adv-x="979" vert-adv-y="2048"  />

      
      <glyph glyph-name="uni68" unicode="&#x68;" d="M506 1023Q381 1023 277 954L277 1317Q277 1351 256 1378Q235 1406 202 1412Q158 1421 124 1392Q90 1364 90 1321L90 99Q90 60 115 31Q141 2 179 0Q219-2 248 26Q277 53 277 94L277 607Q277 702 344 769Q411 836 506 836L513 836Q608 836 675 769Q742 702 742 607L742 94Q742 55 769 27Q796 0 835 0Q874 0 901 27Q929 55 929 94L929 607Q929 780 807 901Q685 1023 513 1023L506 1023Z"  horiz-adv-x="999" vert-adv-y="2048"  />

      
      <glyph glyph-name="uni69" unicode="&#x69;" d="M196 0Q157 0 129 27Q102 55 102 94L102 927Q102 966 129 993Q157 1020 196 1020Q234 1020 262 993Q289 966 289 927L289 94Q289 55 262 27Q234 0 196 0M301 1216Q301 1173 270 1142Q239 1111 196 1111Q152 1111 121 1142Q90 1173 90 1216Q90 1260 121 1291Q152 1322 196 1322Q239 1322 270 1291Q301 1260 301 1216Z"  horiz-adv-x="391" vert-adv-y="2048"  />

      
      <glyph glyph-name="uni6a" unicode="&#x6a;" d="M287 1021Q248 1021 221 994Q194 967 194 928L194 18Q194-77 127-144Q60-211-35-211L-36-211Q-75-211-103-238Q-130-266-130-304Q-130-343-103-371Q-75-398-36-398L-35-398Q137-398 259-276Q381-154 381 18L381 928Q381 967 353 994Q326 1021 287 1021M393 1215Q393 1171 362 1140Q331 1109 287 1109Q244 1109 213 1140Q182 1171 182 1215Q182 1258 213 1289Q244 1320 287 1320Q331 1320 362 1289Q393 1258 393 1215Z"  horiz-adv-x="483" vert-adv-y="2048"  />

      
      <glyph glyph-name="uni6b" unicode="&#x6b;" d="M390 564L677 852Q704 879 704 917Q704 955 677 982Q650 1009 612 1009Q573 1009 546 982L277 713L277 1320Q277 1359 250 1386Q222 1414 184 1414Q145 1414 117 1386Q90 1359 90 1320L90 94Q90 55 117 27Q145 0 184 0Q222 0 250 27Q277 55 277 94L277 407L558 37Q581 6 619 1Q657-4 687 19Q718 42 723 80Q728 118 705 148L390 564Z"  horiz-adv-x="798" vert-adv-y="2048"  />

      
      <glyph glyph-name="uni6c" unicode="&#x6c;" d="M164 1410Q202 1410 230 1383Q257 1355 257 1317L257 416Q257 321 324 254Q391 187 486 187L487 187Q526 187 553 160Q581 132 581 94Q581 55 553 27Q526 0 487 0L486 0Q314 0 192 122Q70 244 70 416L70 1317Q70 1355 97 1383Q125 1410 164 1410Z"  horiz-adv-x="581" vert-adv-y="2048"  />

      
      <glyph glyph-name="uni6d" unicode="&#x6d;" d="M1158 1023Q968 1023 843 878Q842 877 841 876Q841 875 840 875Q840 874 839 873Q837 872 837 871Q837 871 836 870Q836 870 835 870Q710 1023 513 1023L506 1023Q381 1023 277 954L271 950Q252 1000 202 1010Q158 1018 124 990Q90 962 90 918L90 99Q90 60 115 31Q141 2 179 0Q219-2 248 26Q277 53 277 94L277 607Q277 702 344 769Q411 836 506 836L513 836Q608 836 675 769Q742 702 742 607L742 94Q742 55 769 27Q796 0 835 0Q874 0 901 27Q929 55 929 94L929 605L929 607Q929 702 996 769Q1063 836 1158 836L1165 836Q1260 836 1327 769Q1394 702 1394 607L1394 94Q1394 55 1421 28Q1448 0 1487 0Q1526 0 1553 28Q1581 55 1581 94L1581 607Q1581 779 1459 901Q1337 1023 1165 1023L1158 1023Z"  horiz-adv-x="1651" vert-adv-y="2048"  />

      
      <glyph glyph-name="uni6e" unicode="&#x6e;" d="M506 1023Q379 1023 274 952Q256 1023 184 1023Q145 1023 117 996Q90 968 90 930L90 94Q90 55 117 27Q145 0 184 0Q222 0 250 27Q277 55 277 94L277 607Q277 702 344 769Q411 836 506 836L513 836Q607 836 674 769Q742 702 742 607L742 94Q742 55 769 27Q796 0 835 0Q874 0 901 27Q929 55 929 94L929 607Q929 779 807 901Q685 1023 513 1023L506 1023Z"  horiz-adv-x="999" vert-adv-y="2048"  />

      
      <glyph glyph-name="uni6f" unicode="&#x6f;" d="M722 416Q722 321 654 254Q587 187 493 187L486 187Q391 187 324 254Q257 321 257 416L257 607Q257 702 324 769Q391 836 486 836L493 836Q587 836 654 769Q722 702 722 607L722 416M486 1023Q314 1023 192 901Q70 779 70 607L70 416Q70 244 192 122Q314 0 486 0L493 0Q665 0 787 122Q909 244 909 416L909 607Q909 779 787 901Q665 1023 493 1023L486 1023Z"  horiz-adv-x="979" vert-adv-y="2048"  />

      
      <glyph glyph-name="uni70" unicode="&#x70;" d="M277 605Q277 700 344 767Q411 834 506 834L513 834Q607 834 674 767Q742 700 742 605L742 414Q742 319 674 252Q607 185 513 185L506 185Q411 185 344 252Q277 319 277 414L277 605M184-393Q222-393 250-366Q277-338 277-299L277 67Q381-2 506-2L513-2Q685-2 807 120Q929 242 929 414L929 605Q929 777 807 899Q685 1021 513 1021L506 1021Q379 1021 274 950Q256 1021 184 1021Q145 1021 117 994Q90 966 90 928L90-299Q90-338 117-366Q145-393 184-393Z"  horiz-adv-x="999" vert-adv-y="2048"  />

      
      <glyph glyph-name="uni71" unicode="&#x71;" d="M722 404Q722 309 654 242Q587 175 493 175L486 175Q391 175 324 242Q257 309 257 404L257 595Q257 690 324 757Q391 824 486 824L493 824Q587 824 654 757Q722 690 722 595L722 404M815-403Q854-403 881-376Q909-348 909-309L909 918Q909 956 881 984Q854 1011 815 1011Q742 1011 725 940Q620 1011 493 1011L486 1011Q314 1011 192 889Q70 767 70 595L70 404Q70 232 192 110Q314-12 486-12L493-12Q617-12 722 57L722-309Q722-348 749-376Q776-403 815-403Z"  horiz-adv-x="999" vert-adv-y="2048"  />

      
      <glyph glyph-name="uni72" unicode="&#x72;" d="M506 1020Q379 1020 275 949Q267 981 242 1001Q217 1022 184 1022Q145 1022 117 994Q90 967 90 928L90 94Q90 55 117 27Q145 0 184 0Q222 0 250 27Q277 55 277 94L277 604Q277 698 344 765Q411 833 506 833L507 833Q546 833 573 860Q601 887 601 926Q601 965 573 992Q546 1020 507 1020L506 1020Z"  horiz-adv-x="651" vert-adv-y="2048"  />

      
      <glyph glyph-name="uni73" unicode="&#x73;" d="M401 636Q348 636 314 674Q279 711 290 760Q298 796 331 819Q363 841 404 841L406 841Q471 841 504 790Q537 739 596 739Q655 739 685 785Q715 831 686 878Q594 1028 406 1028L403 1028Q295 1028 208 971Q121 912 93 820Q50 678 146 564Q240 452 395 449Q452 448 494 417Q538 384 545 335Q553 276 510 231Q466 187 401 187L396 187Q305 187 266 261Q235 318 170 318Q114 318 83 275Q53 231 77 185Q119 102 204 51Q291 0 396 0L398 0Q519 0 616 66Q714 133 742 238Q784 393 677 516Q571 636 401 636Z"  horiz-adv-x="834" vert-adv-y="2048"  />

      
      <glyph glyph-name="uni74" unicode="&#x74;" d="M486 187Q391 187 324 254Q257 321 257 416L257 820L408 820Q447 820 474 848Q502 875 502 914Q502 953 474 980Q447 1007 408 1007L257 1007L257 1317Q257 1355 230 1383Q202 1410 164 1410Q125 1410 97 1383Q70 1355 70 1317L70 416Q70 244 192 122Q314 0 486 0L487 0Q526 0 553 27Q581 55 581 94Q581 132 553 160Q526 187 487 187L486 187Z"  horiz-adv-x="631" vert-adv-y="2048"  />

      
      <glyph glyph-name="uni75" unicode="&#x75;" d="M815 1023Q776 1023 749 996Q722 968 722 930L722 416Q722 321 654 254Q587 187 493 187L486 187Q391 187 324 254Q257 321 257 416L257 930Q257 968 230 996Q202 1023 164 1023Q125 1023 97 996Q70 968 70 930L70 416Q70 244 192 122Q314 0 486 0L493 0Q620 0 725 71Q742 0 815 0Q854 0 881 27Q909 55 909 94L909 930Q909 968 881 996Q854 1023 815 1023Z"  horiz-adv-x="999" vert-adv-y="2048"  />

      
      <glyph glyph-name="uni76" unicode="&#x76;" d="M801 1006Q765 1020 730 1004Q695 988 681 952L455 356L228 952Q215 988 179 1004Q144 1020 108 1006Q71 992 56 957Q40 922 53 885L367 60Q382 21 421 6Q422 6 422 6Q422 6 423 6Q423 5 424 5Q431 3 438 2Q439 1 444 1Q450 0 455 0Q459 0 465 1Q470 1 471 2Q478 3 485 5Q486 5 486 6Q487 6 487 6L488 6Q528 21 542 60L856 885Q869 922 854 957Q838 992 801 1006Z"  horiz-adv-x="909" vert-adv-y="2048"  />

      
      <glyph glyph-name="uni77" unicode="&#x77;" d="M1429 1006Q1393 1020 1358 1004Q1322 988 1309 952L1082 356L856 952Q842 988 807 1004Q772 1020 735 1006Q702 993 686 961Q682 956 681 952L455 356L228 952Q214 988 179 1004Q144 1020 108 1006Q71 992 56 957Q40 922 53 885L367 60Q381 21 421 6Q422 6 422 6Q422 6 423 6Q423 5 424 5Q431 3 438 2Q439 1 444 1Q450 0 455 0Q459 0 465 1Q470 1 472 2Q478 3 485 5Q486 5 486 6Q487 6 487 6Q487 6 488 6Q528 21 542 60L768 655L995 60Q1009 21 1049 6Q1049 6 1049 6Q1050 6 1051 6Q1051 5 1052 5Q1059 3 1065 2Q1067 1 1072 1Q1078 0 1082 0Q1087 0 1093 1Q1098 1 1099 2Q1106 3 1113 5Q1113 5 1114 6Q1115 6 1115 6L1116 6Q1155 21 1170 60L1484 885Q1497 922 1481 957Q1465 992 1429 1006Z"  horiz-adv-x="1537" vert-adv-y="2048"  />

      
      <glyph glyph-name="uni78" unicode="&#x78;" d="M538 509L780 872Q801 904 794 942Q786 980 754 1001Q721 1023 683 1015Q645 1007 624 975L426 677L228 975Q206 1007 168 1015Q130 1023 98 1001Q66 980 58 942Q50 904 72 872L313 509L72 146Q50 113 58 75Q66 37 98 16Q130-6 168 2Q206 10 228 42L426 340L624 42Q645 10 683 2Q721-6 754 16Q786 37 794 75Q801 113 780 146L538 509Z"  horiz-adv-x="851" vert-adv-y="2048"  />

      
      <glyph glyph-name="uni79" unicode="&#x79;" d="M811 1009Q775 1023 740 1007Q705 991 691 955L465 359L238 955Q225 991 189 1007Q154 1023 118 1009Q81 995 66 960Q50 924 63 888L364 97L220-276Q206-312 222-347Q238-383 274-396Q310-410 345-395Q381-379 395-343L866 888Q879 924 864 960Q848 995 811 1009Z"  horiz-adv-x="919" vert-adv-y="2048"  />

      
      <glyph glyph-name="uni7a" unicode="&#x7a;" d="M324 187L780 871Q801 904 793 942Q786 980 754 1001Q731 1016 703 1017L150 1017Q111 1017 84 989Q56 962 56 923Q56 885 84 857Q111 830 150 830L527 830L72 145Q50 113 58 75Q66 37 98 16Q116 3 140 1Q145 0 150 0L702 0Q741 0 768 27Q795 55 795 94Q795 132 768 160Q741 187 702 187L324 187Z"  horiz-adv-x="851" vert-adv-y="2048"  />

      
      <glyph glyph-name="uni7b" unicode="&#x7b;" d="M759-11Q665-11 598 56Q531 123 531 218L531 411Q531 607 378 733Q531 858 531 1054L531 1250Q531 1345 598 1412Q665 1479 759 1479L761 1479Q799 1479 827 1507Q854 1534 854 1573Q854 1611 827 1639Q799 1666 761 1666L759 1666Q587 1666 465 1544Q344 1422 344 1250L344 1054L344 1054Q344 961 278 895Q213 829 121 826Q119 826 115 826L115 826L114 826Q75 826 47 798Q20 771 20 732Q20 693 47 666Q75 639 114 639L115 639Q116 639 118 639L121 639Q213 637 278 570Q344 504 344 411L344 411L344 218Q344 46 465-76Q587-198 759-198L761-198Q799-198 827-171Q854-143 854-104Q854-66 827-38Q799-11 761-11L759-11Z"  horiz-adv-x="874" vert-adv-y="2048"  />

      
      <glyph glyph-name="uni7c" unicode="&#x7c;" d="M204-197Q165-197 137-170Q110-142 110-103L110 1598Q110 1637 137 1664Q165 1691 204 1691Q242 1691 270 1664Q297 1637 297 1598L297-103Q297-142 270-170Q242-197 204-197Z"  horiz-adv-x="407" vert-adv-y="2048"  />

      
      <glyph glyph-name="uni7d" unicode="&#x7d;" d="M114-11Q75-11 47-38Q20-66 20-104Q20-143 47-171Q75-198 114-198L115-198Q287-198 409-76Q531 46 531 218L531 411L531 411Q531 504 596 570Q661 637 754 639L757 639Q758 639 759 639L761 639Q799 639 827 666Q854 693 854 732Q854 771 827 798Q799 826 761 826L760 826L759 826Q755 826 754 826Q661 829 596 895Q531 961 531 1054L531 1054L531 1250Q531 1422 409 1544Q287 1666 115 1666L114 1666Q75 1666 47 1639Q20 1611 20 1573Q20 1534 47 1507Q75 1479 114 1479L115 1479Q210 1479 277 1412Q344 1345 344 1250L344 1054Q344 858 496 733Q344 607 344 411L344 218Q344 123 277 56Q210-11 115-11L114-11Z"  horiz-adv-x="874" vert-adv-y="2048"  />

      
      <glyph glyph-name="uni7e" unicode="&#x7e;" d="M1106 881Q986 1001 816 1003Q647 1004 525 888L524 888Q457 828 366 830Q275 832 211 897L210 898Q182 925 144 925Q105 925 77 898Q50 870 50 832Q50 793 77 765L78 764Q198 645 368 643Q537 641 660 758L660 758Q727 818 818 816Q909 813 973 749L974 748Q1002 721 1041 721Q1079 721 1107 748Q1134 776 1134 814Q1134 853 1107 880L1106 881Z"  horiz-adv-x="1184" vert-adv-y="2048"  />

      
      <glyph glyph-name="unia1" unicode="&#xa1;" d="M216 0Q177 0 149 27Q122 55 122 94L122 1078Q122 1117 149 1145Q177 1172 216 1172Q254 1172 282 1145Q309 1117 309 1078L309 94Q309 55 282 27Q254 0 216 0M110 1368Q110 1412 141 1442Q172 1473 216 1473Q259 1473 290 1442Q321 1412 321 1368Q321 1324 290 1293Q259 1262 216 1262Q172 1262 141 1293Q110 1324 110 1368Z"  horiz-adv-x="431" vert-adv-y="2048"  />

      
      <glyph glyph-name="unia2" unicode="&#xa2;" d="M724 610Q657 610 636 549Q617 492 567 456Q517 419 455 419L449 419Q369 419 313 475Q257 531 257 610L257 874Q257 953 313 1009Q369 1065 449 1065L455 1065Q517 1065 567 1029Q617 993 636 935Q657 874 724 874Q771 874 800 912Q828 951 813 995Q745 1195 538 1242L538 1379Q538 1418 510 1445Q483 1473 444 1473Q405 1473 378 1445Q350 1418 350 1379L350 1239Q228 1206 150 1106Q70 1003 70 874L70 610Q70 481 150 379Q228 278 350 245L350 79Q350 40 378 12Q405-15 444-15Q483-15 510 12Q538 40 538 79L538 242Q745 289 813 489Q828 534 800 572Q771 610 724 610Z"  horiz-adv-x="898" vert-adv-y="2048"  />

      
      <glyph glyph-name="unia3" unicode="&#xa3;" d="M470 1282Q533 1282 584 1244Q634 1208 653 1149Q674 1086 742 1086L742 1086Q790 1086 819 1125Q848 1164 833 1210Q794 1327 695 1399Q594 1474 470 1474L463 1474Q305 1474 192 1360Q80 1246 80 1086L81 1086Q80 1077 80 1079L80 94Q80 55 107 27Q135 0 174 0L688 0Q727 0 754 27Q782 55 782 94Q782 132 754 160Q727 187 688 187L267 187L267 635L460 635Q499 635 527 662Q554 690 554 729Q554 767 527 795Q499 822 460 822L267 822L267 1079Q267 1161 325 1221Q383 1282 463 1282L470 1282Z"  horiz-adv-x="898" vert-adv-y="2048"  />

      
      <glyph glyph-name="unia4" unicode="&#xa4;" d="M470 462Q426 462 384 479Q290 517 255 615Q241 654 241 691L241 711Q241 747 255 787Q290 884 384 922Q426 939 470 939L477 939Q521 939 563 922Q657 884 692 787Q706 747 706 711L706 691Q706 654 692 615Q657 517 563 479Q521 462 477 462L470 462M832 475Q893 575 893 691L893 711Q893 826 832 927L870 965Q897 992 897 1031Q897 1069 870 1097Q842 1124 803 1124Q765 1124 737 1097L701 1060Q598 1126 477 1126L470 1126Q349 1126 246 1060L210 1097Q182 1124 144 1124Q105 1124 77 1097Q50 1069 50 1031Q50 992 77 965L115 927Q54 826 54 711L54 691Q54 575 115 475L77 437Q50 409 50 371Q50 332 77 305Q105 277 144 277Q182 277 210 305L246 341Q349 275 470 275L477 275Q598 275 701 341L737 305Q765 277 803 277Q842 277 870 305Q897 332 897 371Q897 409 870 437L832 475Z"  horiz-adv-x="947" vert-adv-y="2048"  />

      
      <glyph glyph-name="unia5" unicode="&#xa5;" d="M859 1463Q825 1481 788 1469Q751 1457 733 1423L483 945L234 1423Q216 1457 179 1469Q142 1481 108 1463Q73 1445 62 1408Q50 1371 68 1337L302 889L180 889Q142 889 114 861Q87 834 87 795Q87 756 114 729Q142 702 180 702L390 702L390 516L182 516Q143 516 116 489Q89 461 89 423Q89 384 116 357Q143 329 182 329L390 329L390 94Q390 55 417 27Q445 0 483 0Q522 0 550 27Q577 55 577 94L577 329L788 329Q827 329 854 357Q882 384 882 423Q882 461 854 489Q827 516 788 516L577 516L577 702L786 702Q825 702 853 729Q880 756 880 795Q880 834 853 861Q825 889 786 889L665 889L899 1337Q917 1371 905 1408Q894 1445 859 1463Z"  horiz-adv-x="967" vert-adv-y="2048"  />

      
      <glyph glyph-name="unia6" unicode="&#xa6;" d="M194 849Q155 849 127 876Q100 904 100 943L100 1598Q100 1637 127 1664Q155 1691 194 1691Q232 1691 260 1664Q287 1637 287 1598L287 943Q287 904 260 876Q232 849 194 849M194-239Q155-239 127-212Q100-184 100-145L100 506Q100 545 127 572Q155 599 194 599Q232 599 260 572Q287 545 287 506L287-145Q287-184 260-212Q232-239 194-239Z"  horiz-adv-x="387" vert-adv-y="2048"  />

      
      <glyph glyph-name="unia8" unicode="&#xa8;" d="M261 1411Q261 1367 230 1336Q199 1305 156 1305Q112 1305 81 1336Q50 1367 50 1411Q50 1454 81 1485Q112 1516 156 1516Q199 1516 230 1485Q261 1454 261 1411M652 1411Q652 1367 621 1336Q590 1305 547 1305Q503 1305 472 1336Q441 1367 441 1411Q441 1454 472 1485Q503 1516 547 1516Q590 1516 621 1485Q652 1454 652 1411Z"  horiz-adv-x="702" vert-adv-y="2048"  />

      
      <glyph glyph-name="unia9" unicode="&#xa9;" d="M1189 654Q1122 654 1102 592Q1082 535 1033 499Q983 462 920 462L914 462Q835 462 779 519Q723 575 723 654L723 823Q723 902 779 959Q835 1015 914 1015L920 1015Q983 1015 1033 978Q1082 942 1102 885Q1122 823 1189 823Q1237 823 1265 862Q1294 900 1279 945Q1240 1058 1143 1129Q1043 1202 920 1202L914 1202Q758 1202 647 1091Q536 980 536 823L536 654Q536 497 647 386Q758 275 914 275L920 275Q1043 275 1143 348Q1240 419 1279 532Q1294 577 1265 616Q1237 654 1189 654M910 1379Q645 1379 457 1191Q269 1004 269 739Q269 474 457 286Q645 98 910 98Q1174 98 1362 286Q1550 474 1550 739Q1550 1004 1362 1191Q1174 1379 910 1379M910-91Q567-91 323 152Q80 396 80 739Q80 1082 323 1325Q566 1568 910 1568Q1253 1568 1496 1325Q1739 1082 1739 739Q1739 396 1496 152Q1253-91 910-91Z"  horiz-adv-x="1819" vert-adv-y="2048"  />

      
      <glyph glyph-name="uniab" unicode="&#xab;" d="M301 659L687 947Q718 970 723 1009Q729 1047 706 1078Q683 1109 644 1115Q606 1120 575 1097L89 735Q63 715 55 682Q50 660 55 636Q63 603 89 583L575 221Q606 198 644 203Q683 209 706 240Q729 271 723 309Q718 347 687 371L301 659M812 659L1198 947Q1229 970 1234 1009Q1240 1047 1217 1078Q1194 1109 1155 1115Q1117 1120 1086 1097L600 735Q574 715 566 682Q561 660 566 636Q574 603 600 583L1086 221Q1117 198 1155 203Q1194 209 1217 240Q1240 271 1234 309Q1229 347 1198 371L812 659Z"  horiz-adv-x="1290" vert-adv-y="2048"  />

      
      <glyph glyph-name="uniad" unicode="&#xad;" d="M843 728Q843 689 816 661Q788 634 749 634L144 634Q105 634 77 661Q50 689 50 728Q50 766 77 794Q105 821 144 821L749 821Q788 821 816 794Q843 766 843 728Z"  horiz-adv-x="893" vert-adv-y="2048"  />

      
      <glyph glyph-name="uniae" unicode="&#xae;" d="M796 1033L905 1033Q984 1033 1040 977Q1096 921 1096 842L1096 836Q1096 757 1040 701Q984 644 905 644L796 644L796 1033M1284 842Q1284 998 1173 1109Q1062 1220 905 1221L703 1221Q664 1221 637 1193Q609 1166 609 1127L609 292Q609 253 637 226Q664 199 703 199Q742 199 769 226Q796 253 796 292L796 457L905 457Q1096 457 1096 326L1096 292Q1096 253 1124 226Q1151 199 1190 199Q1229 199 1256 226Q1284 253 1284 292L1284 326Q1284 403 1248 455Q1227 487 1153 551Q1284 664 1284 836L1284 842M910 1350Q645 1350 457 1162Q269 975 269 710Q269 445 457 257Q645 69 910 69Q1174 69 1362 257Q1550 445 1550 710Q1550 975 1362 1162Q1174 1350 910 1350M910-120Q567-120 323 123Q80 367 80 710Q80 1053 323 1296Q566 1539 910 1539Q1253 1539 1496 1296Q1739 1053 1739 710Q1739 367 1496 123Q1253-120 910-120Z"  horiz-adv-x="1819" vert-adv-y="2048"  />

      
      <glyph glyph-name="uniaf" unicode="&#xaf;" d="M843 1633Q843 1594 816 1566Q788 1539 749 1539L144 1539Q105 1539 77 1566Q50 1594 50 1633Q50 1671 77 1699Q105 1726 144 1726L749 1726Q788 1726 816 1699Q843 1671 843 1633Z"  horiz-adv-x="893" vert-adv-y="2048"  />

      
      <glyph glyph-name="unib0" unicode="&#xb0;" d="M50 1137Q50 1229 96 1309Q142 1389 222 1436Q302 1483 396 1483Q488 1483 568.50 1437Q649 1391 695.50 1310Q742 1229 742 1137Q742 1044 695.50 963.50Q649 883 569 838Q489 793 396 793Q251 793 150.50 892.50Q50 992 50 1137M241 1137Q241 1073 285.50 1028Q330 983 396 983Q462 983 507 1029Q552 1075 552 1137Q552 1200 506.50 1247Q461 1294 396 1294Q332 1294 286.50 1248Q241 1202 241 1137Z"  horiz-adv-x="792" vert-adv-y="2048"  />

      
      <glyph glyph-name="unib1" unicode="&#xb1;" d="M843 238Q843 199 816 171Q788 144 749 144L144 144Q105 144 77 171Q50 199 50 238Q50 276 77 304Q105 331 144 331L749 331Q788 331 816 304Q843 276 843 238M540 901L540 1110Q540 1149 513 1177Q485 1204 447 1204Q408 1204 380 1177Q353 1149 353 1110L353 901L144 901Q105 901 77 874Q50 846 50 808Q50 769 77 741Q105 714 144 714L353 714L353 505Q353 466 380 438Q408 411 447 411Q485 411 513 438Q540 466 540 505L540 714L749 714Q788 714 816 741Q843 769 843 808Q843 846 816 874Q788 901 749 901L540 901Z"  horiz-adv-x="893" vert-adv-y="2048"  />

      
      <glyph glyph-name="unib4" unicode="&#xb4;" d="M296 1515Q330 1497 342 1460Q354 1423 336 1389L234 1194Q216 1160 179 1149Q142 1137 107 1155Q73 1173 62 1210Q50 1247 68 1281L170 1476Q188 1510 225 1521Q262 1533 296 1515Z"  horiz-adv-x="404" vert-adv-y="2048"  />

      
      <glyph glyph-name="unib5" unicode="&#xb5;" d="M184 1013Q145 1013 117 985Q90 958 90 919L90-316Q90-355 117-383Q145-410 184-410Q222-410 250-383Q277-355 277-316L277 59Q381-10 506-10L513-10Q685-10 807 112Q929 234 929 406L929 919Q929 958 901 985Q874 1013 835 1013Q796 1013 769 985Q742 958 742 919L742 406Q742 311 674 244Q607 177 513 177L506 177Q411 177 344 244Q277 311 277 406L277 919Q277 958 250 985Q222 1013 184 1013Z"  horiz-adv-x="999" vert-adv-y="2048"  />

      
      <glyph glyph-name="unib7" unicode="&#xb7;" d="M261 707Q261 663 230 632Q199 601 156 601Q112 601 81 632Q50 663 50 707Q50 750 81 781Q112 812 156 812Q199 812 230 781Q261 750 261 707Z"  horiz-adv-x="311" vert-adv-y="2048"  />

      
      <glyph glyph-name="unibb" unicode="&#xbb;" d="M603 371Q572 347 566 309Q561 271 584 240Q607 209 645 203Q684 198 715 221L1200 583Q1227 603 1235 636Q1240 660 1235 682Q1227 715 1200 735L715 1097Q684 1120 645 1115Q607 1109 584 1078Q561 1047 566 1009Q572 970 603 947L989 659L603 371M92 371Q61 347 55 309Q50 271 73 240Q96 209 134 203Q173 198 204 221L689 583Q716 603 724 636Q729 660 724 682Q716 715 689 735L204 1097Q173 1120 134 1115Q96 1109 73 1078Q50 1047 55 1009Q61 970 92 947L478 659L92 371Z"  horiz-adv-x="1290" vert-adv-y="2048"  />

      
      <glyph glyph-name="unibf" unicode="&#xbf;" d="M370 1058Q370 1102 401 1133Q432 1164 475 1164Q519 1164 550 1133Q581 1102 581 1058Q581 1015 550 984Q519 953 475 953Q432 953 401 984Q370 1015 370 1058M469-310Q594-310 695-235Q794-163 833-46Q848 0 819 39Q790 78 742 78L742 78Q674 78 653 15Q633-44 584-80Q533-118 469-118L463-118Q383-118 326-61Q269-3 269 78L269 109Q269 213 356 270Q452 326 510 422Q571 522 571 634L571 779Q571 818 544 846Q516 873 477 873Q439 873 411 846Q384 818 384 779L384 634Q384 505 274 438Q80 326 80 106L80 78Q80-82 192-196Q304-310 463-310L469-310Z"  horiz-adv-x="928" vert-adv-y="2048"  />

      
      <glyph glyph-name="unic0" unicode="&#xc0;" d="M267 881L267 1095Q267 1133 282 1168Q283 1171 283 1170Q293 1195 310 1216Q311 1216 312 1217Q312 1218 313 1219Q322 1229 333 1239Q338 1244 339 1244Q345 1249 351 1253Q356 1257 364 1261Q369 1264 378 1268Q384 1271 391 1274L401 1277Q412 1281 424 1283Q426 1283 432 1284Q446 1286 457 1286L466 1286Q477 1286 491 1284Q497 1283 499 1283Q511 1281 522 1277Q523 1277 531 1274Q538 1271 545 1268Q553 1264 559 1261Q566 1257 572 1253Q578 1249 584 1244Q586 1242 590 1239Q601 1229 610 1219Q613 1215 612 1216Q629 1195 640 1170L641 1168Q656 1133 656 1095L656 881L267 881M824 1213Q824 1215 823 1216Q761 1399 577 1456Q576 1456 575 1457Q560 1461 544 1465L540 1465Q538 1466 537 1466Q523 1469 508 1471L500 1472Q481 1473 465 1473L458 1473Q442 1473 422 1472L415 1471Q400 1469 386 1466Q385 1466 382 1465L379 1465Q363 1461 348 1457Q346 1456 345 1456Q161 1399 99 1216Q101 1221 98 1211Q80 1154 80 1095L80 94Q80 55 107 27Q135 0 174 0Q212 0 240 27Q267 55 267 94L267 694L656 694L656 94Q656 55 683 27Q710 0 749 0Q788 0 815 27Q843 55 843 94L843 1095Q843 1154 824 1211L824 1213M334 1978Q369 1996 406 1984Q443 1973 461 1939L563 1744Q581 1710 569 1673Q557 1636 523 1618Q489 1600 452 1612Q415 1623 397 1657L295 1852Q277 1886 289 1923Q300 1960 334 1978Z"  horiz-adv-x="923" vert-adv-y="2048"  />

      
      <glyph glyph-name="unic1" unicode="&#xc1;" d="M267 881L267 1095Q267 1133 282 1168Q283 1171 283 1170Q293 1195 310 1216Q311 1216 312 1217Q312 1218 313 1219Q322 1229 333 1239Q338 1244 339 1244Q345 1249 351 1253Q356 1257 364 1261Q369 1264 378 1268Q384 1271 391 1274L401 1277Q412 1281 424 1283Q426 1283 432 1284Q446 1286 457 1286L466 1286Q477 1286 491 1284Q497 1283 499 1283Q511 1281 522 1277Q523 1277 531 1274Q538 1271 545 1268Q553 1264 559 1261Q566 1257 572 1253Q578 1249 584 1244Q586 1242 590 1239Q601 1229 610 1219Q613 1215 612 1216Q629 1195 640 1170L641 1168Q656 1133 656 1095L656 881L267 881M824 1213Q824 1215 823 1216Q761 1399 577 1456Q576 1456 575 1457Q560 1461 544 1465L540 1465Q538 1466 537 1466Q523 1469 508 1471L500 1472Q481 1473 465 1473L458 1473Q442 1473 422 1472L415 1471Q400 1469 386 1466Q385 1466 382 1465L379 1465Q363 1461 348 1457Q346 1456 345 1456Q161 1399 99 1216Q101 1221 98 1211Q80 1154 80 1095L80 94Q80 55 107 27Q135 0 174 0Q212 0 240 27Q267 55 267 94L267 694L656 694L656 94Q656 55 683 27Q710 0 749 0Q788 0 815 27Q843 55 843 94L843 1095Q843 1154 824 1211L824 1213M533 1967Q567 1949 579 1912Q591 1875 573 1841L471 1646Q453 1612 416 1601Q379 1589 344 1607Q310 1625 299 1662Q287 1699 305 1733L407 1928Q425 1962 462 1973Q499 1985 533 1967Z"  horiz-adv-x="923" vert-adv-y="2048"  />

      
      <glyph glyph-name="unic2" unicode="&#xc2;" d="M267 881L267 1095Q267 1133 282 1168Q283 1171 283 1170Q293 1195 310 1216Q311 1216 312 1217Q312 1218 313 1219Q322 1229 333 1239Q338 1244 339 1244Q345 1249 351 1253Q356 1257 364 1261Q369 1264 378 1268Q384 1271 391 1274L401 1277Q412 1281 424 1283Q426 1283 432 1284Q446 1286 457 1286L466 1286Q477 1286 491 1284Q497 1283 499 1283Q511 1281 522 1277Q523 1277 531 1274Q538 1271 545 1268Q553 1264 559 1261Q566 1257 572 1253Q578 1249 584 1244Q586 1242 590 1239Q601 1229 610 1219Q613 1215 612 1216Q629 1195 640 1170L641 1168Q656 1133 656 1095L656 881L267 881M824 1213Q824 1215 823 1216Q761 1399 577 1456Q576 1456 575 1457Q560 1461 544 1465L540 1465Q538 1466 537 1466Q523 1469 508 1471L500 1472Q481 1473 465 1473L458 1473Q442 1473 422 1472L415 1471Q400 1469 386 1466Q385 1466 382 1465L379 1465Q363 1461 348 1457Q346 1456 345 1456Q161 1399 99 1216Q101 1221 98 1211Q80 1154 80 1095L80 94Q80 55 107 27Q135 0 174 0Q212 0 240 27Q267 55 267 94L267 694L656 694L656 94Q656 55 683 27Q710 0 749 0Q788 0 815 27Q843 55 843 94L843 1095Q843 1154 824 1211L824 1213M527 1961Q500 1989 461 1989Q422 1989 395 1961L182 1749Q155 1721 155 1683Q155 1644 182 1616Q210 1589 249 1589Q287 1589 315 1616L461 1763L608 1616Q635 1589 674 1589Q713 1589 740 1616Q767 1644 767 1683Q767 1721 740 1749L527 1961Z"  horiz-adv-x="923" vert-adv-y="2048"  />

      
      <glyph glyph-name="unic3" unicode="&#xc3;" d="M281 881L281 1095Q281 1133 296 1168Q297 1171 297 1170Q307 1195 324 1216Q325 1216 326 1217Q326 1218 327 1219Q336 1229 347 1239Q352 1244 353 1244Q359 1249 365 1253Q370 1257 378 1261Q383 1264 392 1268Q398 1271 405 1274L415 1277Q426 1281 438 1283Q440 1283 446 1284Q460 1286 471 1286L480 1286Q491 1286 505 1284Q511 1283 513 1283Q525 1281 536 1277Q537 1277 545 1274Q552 1271 559 1268Q567 1264 573 1261Q580 1257 586 1253Q592 1249 598 1244Q600 1242 604 1239Q615 1229 624 1219Q627 1215 626 1216Q643 1195 654 1170L655 1168Q670 1133 670 1095L670 881L281 881M838 1213Q838 1215 837 1216Q775 1399 591 1456Q590 1456 589 1457Q574 1461 558 1465L554 1465Q552 1466 551 1466Q537 1469 522 1471L514 1472Q495 1473 479 1473L472 1473Q456 1473 436 1472L429 1471Q414 1469 400 1466Q399 1466 396 1465L393 1465Q377 1461 362 1457Q360 1456 359 1456Q175 1399 113 1216Q115 1221 112 1211Q94 1154 94 1095L94 94Q94 55 121 27Q149 0 188 0Q226 0 254 27Q281 55 281 94L281 694L670 694L670 94Q670 55 697 27Q724 0 763 0Q802 0 829 27Q857 55 857 94L857 1095Q857 1154 838 1211L838 1213M795 1905Q740 1922 695 1876Q643 1824 571 1844L441 1886Q353 1913 264 1889Q177 1865 116 1800Q80 1761 94 1711Q107 1660 157 1645Q211 1628 257 1674Q311 1728 384 1705L384 1705L511 1664L515 1663L515 1663Q602 1637 690 1661Q775 1685 836 1750Q871 1788 858 1839Q845 1889 795 1905Z"  horiz-adv-x="951" vert-adv-y="2048"  />

      
      <glyph glyph-name="unic4" unicode="&#xc4;" d="M267 881L267 1095Q267 1133 282 1168Q283 1171 283 1170Q293 1195 310 1216Q311 1216 312 1217Q312 1218 313 1219Q322 1229 333 1239Q338 1244 339 1244Q345 1249 351 1253Q356 1257 364 1261Q369 1264 378 1268Q384 1271 391 1274L401 1277Q412 1281 424 1283Q426 1283 432 1284Q446 1286 457 1286L466 1286Q477 1286 491 1284Q497 1283 499 1283Q511 1281 522 1277Q523 1277 531 1274Q538 1271 545 1268Q553 1264 559 1261Q566 1257 572 1253Q578 1249 584 1244Q586 1242 590 1239Q601 1229 610 1219Q613 1215 612 1216Q629 1195 640 1170L641 1168Q656 1133 656 1095L656 881L267 881M824 1213Q824 1215 823 1216Q761 1399 577 1456Q576 1456 575 1457Q560 1461 544 1465L540 1465Q538 1466 537 1466Q523 1469 508 1471L500 1472Q481 1473 465 1473L458 1473Q442 1473 422 1472L415 1471Q400 1469 386 1466Q385 1466 382 1465L379 1465Q363 1461 348 1457Q346 1456 345 1456Q161 1399 99 1216Q101 1221 98 1211Q80 1154 80 1095L80 94Q80 55 107 27Q135 0 174 0Q212 0 240 27Q267 55 267 94L267 694L656 694L656 94Q656 55 683 27Q710 0 749 0Q788 0 815 27Q843 55 843 94L843 1095Q843 1154 824 1211L824 1213M358 1709Q358 1665 327 1634Q296 1603 253 1603Q209 1603 178 1634Q147 1665 147 1709Q147 1752 178 1783Q209 1814 253 1814Q296 1814 327 1783Q358 1752 358 1709M749 1709Q749 1665 718 1634Q687 1603 644 1603Q600 1603 569 1634Q538 1665 538 1709Q538 1752 569 1783Q600 1814 644 1814Q687 1814 718 1783Q749 1752 749 1709Z"  horiz-adv-x="923" vert-adv-y="2048"  />

      
      <glyph glyph-name="unic5" unicode="&#xc5;" d="M267 881L267 1095Q267 1133 282 1168Q283 1171 283 1170Q293 1195 310 1216Q311 1216 312 1217Q312 1218 313 1219Q322 1229 333 1239Q338 1244 339 1244Q345 1249 351 1253Q356 1257 364 1261Q369 1264 378 1268Q384 1271 391 1274L401 1277Q412 1281 424 1283Q426 1283 432 1284Q446 1286 457 1286L466 1286Q477 1286 491 1284Q497 1283 499 1283Q511 1281 522 1277Q523 1277 531 1274Q538 1271 545 1268Q553 1264 559 1261Q566 1257 572 1253Q578 1249 584 1244Q586 1242 590 1239Q601 1229 610 1219Q613 1215 612 1216Q629 1195 640 1170L641 1168Q656 1133 656 1095L656 881L267 881M824 1213Q824 1215 823 1216Q761 1399 577 1456Q576 1456 575 1457Q560 1461 544 1465L540 1465Q538 1466 537 1466Q523 1469 508 1471L500 1472Q481 1473 465 1473L458 1473Q442 1473 422 1472L415 1471Q400 1469 386 1466Q385 1466 382 1465L379 1465Q363 1461 348 1457Q346 1456 345 1456Q161 1399 99 1216Q101 1221 98 1211Q80 1154 80 1095L80 94Q80 55 107 27Q135 0 174 0Q212 0 240 27Q267 55 267 94L267 694L656 694L656 94Q656 55 683 27Q710 0 749 0Q788 0 815 27Q843 55 843 94L843 1095Q843 1154 824 1211L824 1213M454 1907Q413 1907 384 1878Q354 1848 354 1807Q354 1766 384 1737Q413 1707 454 1707Q495 1707 525 1737Q554 1766 554 1807Q554 1848 525 1878Q495 1907 454 1907M454 1583Q361 1583 296 1649Q230 1714 230 1807Q230 1900 296 1965Q361 2031 454 2031Q547 2031 612 1965Q678 1900 678 1807Q678 1714 612 1649Q547 1583 454 1583Z"  horiz-adv-x="923" vert-adv-y="2048"  />

      
      <glyph glyph-name="unic6" unicode="&#xc6;" d="M656 881L267 881L267 1095Q267 1133 282 1168Q282 1169 283 1170Q293 1195 310 1216Q311 1216 312 1217Q312 1218 313 1219Q322 1229 333 1239Q338 1244 339 1244Q345 1249 351 1253Q356 1257 364 1261Q370 1265 378 1268Q384 1271 391 1274Q400 1277 401 1277Q411 1281 424 1283Q426 1283 432 1284Q446 1286 457 1286L466 1286Q477 1286 491 1284Q497 1283 499 1283Q511 1281 522 1277Q523 1277 531 1274Q538 1271 545 1268Q553 1264 559 1261Q566 1257 572 1253Q578 1249 584 1244Q586 1242 590 1239Q601 1229 610 1219Q612 1216 612 1216Q629 1195 640 1170Q641 1168 641 1168Q656 1133 656 1095L656 881M843 187L843 696L1183 696Q1222 696 1249 723Q1277 750 1277 789Q1277 828 1249 855Q1222 883 1183 883L843 883L843 1286L1243 1286Q1282 1286 1309 1314Q1336 1341 1336 1380Q1336 1419 1309 1446Q1282 1473 1243 1473L749 1473Q684 1473 660 1418Q621 1442 577 1456Q576 1456 575 1457Q560 1461 544 1465Q543 1465 540 1465Q538 1466 537 1466Q523 1469 508 1471L500 1472Q481 1473 465 1473L458 1473Q442 1473 422 1472L415 1471Q400 1469 386 1466Q385 1466 382 1465Q380 1465 379 1465Q363 1461 348 1457Q346 1456 345 1456Q161 1399 99 1216Q101 1221 98 1211Q80 1154 80 1095L80 94Q80 55 107 27Q135 0 174 0Q212 0 240 27Q267 55 267 94L267 694L656 694L656 165Q656 165 656 164L656 113Q656 61 683 30Q709 0 749 0L1243 0Q1282 0 1309 27Q1336 55 1336 94Q1336 132 1309 160Q1282 187 1243 187L843 187Z"  horiz-adv-x="1416" vert-adv-y="2048"  />

      
      <glyph glyph-name="unic8" unicode="&#xc8;" d="M297 187L297 676L637 676Q676 676 704 704Q731 731 731 770Q731 809 704 836Q676 863 637 863L297 863L297 1251L697 1251Q736 1251 763 1279Q791 1306 791 1345Q791 1383 763 1411Q736 1438 697 1438L204 1438Q165 1438 137 1411Q110 1383 110 1345L110 94Q110 55 137 27Q165 0 204 0L697 0Q736 0 763 27Q791 55 791 94Q791 132 763 160Q736 187 697 187L297 187M347 1933Q382 1951 419 1939Q456 1928 474 1894L576 1699Q594 1665 582 1628Q570 1591 536 1573Q502 1555 465 1567Q428 1578 410 1612L308 1807Q290 1841 302 1878Q313 1915 347 1933Z"  horiz-adv-x="871" vert-adv-y="2048"  />

      
      <glyph glyph-name="unic9" unicode="&#xc9;" d="M297 187L297 676L637 676Q676 676 704 704Q731 731 731 770Q731 809 704 836Q676 863 637 863L297 863L297 1251L697 1251Q736 1251 763 1279Q791 1306 791 1345Q791 1383 763 1411Q736 1438 697 1438L204 1438Q165 1438 137 1411Q110 1383 110 1345L110 94Q110 55 137 27Q165 0 204 0L697 0Q736 0 763 27Q791 55 791 94Q791 132 763 160Q736 187 697 187L297 187M552 1936Q586 1918 598 1881Q610 1844 592 1810L490 1615Q472 1581 435 1570Q398 1558 363 1576Q329 1594 318 1631Q306 1668 324 1702L426 1897Q444 1931 481 1942Q518 1954 552 1936Z"  horiz-adv-x="871" vert-adv-y="2048"  />

      
      <glyph glyph-name="unica" unicode="&#xca;" d="M297 187L297 676L637 676Q676 676 704 704Q731 731 731 770Q731 809 704 836Q676 863 637 863L297 863L297 1251L697 1251Q736 1251 763 1279Q791 1306 791 1345Q791 1383 763 1411Q736 1438 697 1438L204 1438Q165 1438 137 1411Q110 1383 110 1345L110 94Q110 55 137 27Q165 0 204 0L697 0Q736 0 763 27Q791 55 791 94Q791 132 763 160Q736 187 697 187L297 187M505 1961Q478 1989 439 1989Q400 1989 373 1961L160 1749Q133 1721 133 1683Q133 1644 160 1616Q188 1589 227 1589Q265 1589 293 1616L439 1763L586 1616Q613 1589 652 1589Q691 1589 718 1616Q745 1644 745 1683Q745 1721 718 1749L505 1961Z"  horiz-adv-x="871" vert-adv-y="2048"  />

      
      <glyph glyph-name="unicb" unicode="&#xcb;" d="M297 187L297 676L637 676Q676 676 704 704Q731 731 731 770Q731 809 704 836Q676 863 637 863L297 863L297 1251L697 1251Q736 1251 763 1279Q791 1306 791 1345Q791 1383 763 1411Q736 1438 697 1438L204 1438Q165 1438 137 1411Q110 1383 110 1345L110 94Q110 55 137 27Q165 0 204 0L697 0Q736 0 763 27Q791 55 791 94Q791 132 763 160Q736 187 697 187L297 187M344 1695Q344 1651 313 1620Q282 1589 239 1589Q195 1589 164 1620Q133 1651 133 1695Q133 1738 164 1769Q195 1800 239 1800Q282 1800 313 1769Q344 1738 344 1695M735 1695Q735 1651 704 1620Q673 1589 630 1589Q586 1589 555 1620Q524 1651 524 1695Q524 1738 555 1769Q586 1800 630 1800Q673 1800 704 1769Q735 1738 735 1695Z"  horiz-adv-x="871" vert-adv-y="2048"  />

      
      <glyph glyph-name="unicc" unicode="&#xcc;" d="M227 0Q188 0 160 27Q133 55 133 94L133 1380Q133 1419 160 1446Q188 1473 227 1473Q265 1473 293 1446Q320 1419 320 1380L320 94Q320 55 293 27Q265 0 227 0M137 1942Q172 1960 209 1948Q246 1937 264 1903L366 1708Q384 1674 372 1637Q360 1600 326 1582Q292 1564 255 1576Q218 1587 200 1621L98 1816Q80 1850 92 1887Q103 1924 137 1942Z"  horiz-adv-x="464" vert-adv-y="2048"  />

      
      <glyph glyph-name="unicd" unicode="&#xcd;" d="M242 0Q203 0 175 27Q148 55 148 94L148 1380Q148 1419 175 1446Q203 1473 242 1473Q280 1473 308 1446Q335 1419 335 1380L335 94Q335 55 308 27Q280 0 242 0M326 1958Q360 1940 372 1903Q384 1866 366 1832L264 1637Q246 1603 209 1592Q172 1580 137 1598Q103 1616 92 1653Q80 1690 98 1724L200 1919Q218 1953 255 1964Q292 1976 326 1958Z"  horiz-adv-x="464" vert-adv-y="2048"  />

      
      <glyph glyph-name="unice" unicode="&#xce;" d="M352 0Q313 0 285 27Q258 55 258 94L258 1380Q258 1419 285 1446Q313 1473 352 1473Q390 1473 418 1446Q445 1419 445 1380L445 94Q445 55 418 27Q390 0 352 0M422 1953Q395 1981 356 1981Q317 1981 290 1953L77 1741Q50 1713 50 1675Q50 1636 77 1608Q105 1581 144 1581Q182 1581 210 1608L356 1755L503 1608Q530 1581 569 1581Q608 1581 635 1608Q662 1636 662 1675Q662 1713 635 1741L422 1953Z"  horiz-adv-x="712" vert-adv-y="2048"  />

      
      <glyph glyph-name="unicf" unicode="&#xcf;" d="M353 0Q314 0 286 27Q259 55 259 94L259 1380Q259 1419 286 1446Q314 1473 353 1473Q391 1473 419 1446Q446 1419 446 1380L446 94Q446 55 419 27Q391 0 353 0M261 1691Q261 1647 230 1616Q199 1585 156 1585Q112 1585 81 1616Q50 1647 50 1691Q50 1734 81 1765Q112 1796 156 1796Q199 1796 230 1765Q261 1734 261 1691M652 1691Q652 1647 621 1616Q590 1585 547 1585Q503 1585 472 1616Q441 1647 441 1691Q441 1734 472 1765Q503 1796 547 1796Q590 1796 621 1765Q652 1734 652 1691Z"  horiz-adv-x="702" vert-adv-y="2048"  />

      
      <glyph glyph-name="unid0" unicode="&#xd0;" d="M775 379Q775 299 719 243Q663 187 584 187L371 187L371 676L479 676Q518 676 545 704Q573 731 573 770Q573 809 545 836Q518 864 479 864L371 864L371 1251L584 1251Q663 1251 719 1195Q775 1139 775 1060L775 379M277 1438Q238 1438 211 1411Q183 1383 183 1345L183 864L174 864Q135 864 107 836Q80 809 80 770Q80 731 107 704Q135 676 174 676L183 676L183 94Q183 55 211 27Q238 0 277 0L584 0Q740 0 851 111Q962 222 962 379L962 1060Q962 1216 851 1327Q740 1438 584 1438L277 1438Z"  horiz-adv-x="1042" vert-adv-y="2048"  />

      
      <glyph glyph-name="unid1" unicode="&#xd1;" d="M938 89Q939 97 939 94L939 1380Q939 1419 911 1446Q884 1474 845 1474Q806 1474 779 1446Q752 1419 752 1380L752 491L287 1423Q286 1423 286 1425Q285 1426 284 1426Q281 1433 277 1437L277 1437L277 1438Q248 1474 204 1474Q165 1474 137 1446Q110 1419 110 1380L110 94Q110 55 137 28Q165 0 204 0Q242 0 270 28Q297 55 297 94L297 983L762 51Q780 17 817 5Q853-7 888 11Q928 31 937 76Q937 76 937 78Q938 83 938 89M836 1867Q781 1884 736 1838Q684 1786 612 1806L482 1848Q394 1875 305 1851Q218 1827 157 1762Q121 1723 135 1673Q148 1622 198 1607Q252 1590 298 1636Q352 1690 425 1667L425 1667L552 1626L556 1625L556 1625Q643 1599 731 1623Q816 1647 877 1712Q912 1750 899 1801Q886 1851 836 1867Z"  horiz-adv-x="1049" vert-adv-y="2048"  />

      
      <glyph glyph-name="unid2" unicode="&#xd2;" d="M505 1286Q406 1286 337 1217Q267 1147 267 1049L267 425Q267 327 337 257Q406 187 505 187Q603 187 673 257Q743 327 743 425L743 1049Q743 1147 673 1217Q603 1286 505 1286M505 0Q329 0 205 125Q80 249 80 425L80 1049Q80 1224 205 1349Q329 1473 505 1473Q681 1473 805 1349Q930 1224 930 1049L930 425Q930 249 805 125Q681 0 505 0M378 1956Q413 1974 450 1962Q487 1951 505 1917L607 1722Q625 1688 613 1651Q601 1614 567 1596Q533 1578 496 1590Q459 1601 441 1635L339 1830Q321 1864 333 1901Q344 1938 378 1956Z"  horiz-adv-x="1010" vert-adv-y="2048"  />

      
      <glyph glyph-name="unid3" unicode="&#xd3;" d="M505 1286Q406 1286 337 1217Q267 1147 267 1049L267 425Q267 327 337 257Q406 187 505 187Q603 187 673 257Q743 327 743 425L743 1049Q743 1147 673 1217Q603 1286 505 1286M505 0Q329 0 205 125Q80 249 80 425L80 1049Q80 1224 205 1349Q329 1473 505 1473Q681 1473 805 1349Q930 1224 930 1049L930 425Q930 249 805 125Q681 0 505 0M590 1963Q624 1945 636 1908Q648 1871 630 1837L528 1642Q510 1608 473 1597Q436 1585 401 1603Q367 1621 356 1658Q344 1695 362 1729L464 1924Q482 1958 519 1969Q556 1981 590 1963Z"  horiz-adv-x="1010" vert-adv-y="2048"  />

      
      <glyph glyph-name="unid4" unicode="&#xd4;" d="M505 1286Q406 1286 337 1217Q267 1147 267 1049L267 425Q267 327 337 257Q406 187 505 187Q603 187 673 257Q743 327 743 425L743 1049Q743 1147 673 1217Q603 1286 505 1286M505 0Q329 0 205 125Q80 249 80 425L80 1049Q80 1224 205 1349Q329 1473 505 1473Q681 1473 805 1349Q930 1224 930 1049L930 425Q930 249 805 125Q681 0 505 0M574 1950Q547 1978 508 1978Q469 1978 442 1950L229 1738Q202 1710 202 1672Q202 1633 229 1605Q257 1578 296 1578Q334 1578 362 1605L508 1752L655 1605Q682 1578 721 1578Q760 1578 787 1605Q814 1633 814 1672Q814 1710 787 1738L574 1950Z"  horiz-adv-x="1010" vert-adv-y="2048"  />

      
      <glyph glyph-name="unid5" unicode="&#xd5;" d="M505 1286Q406 1286 337 1217Q267 1147 267 1049L267 425Q267 327 337 257Q406 187 505 187Q603 187 673 257Q743 327 743 425L743 1049Q743 1147 673 1217Q603 1286 505 1286M505 0Q329 0 205 125Q80 249 80 425L80 1049Q80 1224 205 1349Q329 1473 505 1473Q681 1473 805 1349Q930 1224 930 1049L930 425Q930 249 805 125Q681 0 505 0M844 1854Q789 1871 744 1825Q692 1773 620 1793L490 1835Q402 1862 313 1838Q226 1814 165 1749Q129 1710 143 1660Q156 1609 206 1594Q260 1577 306 1623Q360 1677 433 1654L433 1654L560 1613L564 1612L564 1612Q651 1586 739 1610Q824 1634 885 1699Q920 1737 907 1788Q894 1838 844 1854Z"  horiz-adv-x="1010" vert-adv-y="2048"  />

      
      <glyph glyph-name="unid6" unicode="&#xd6;" d="M505 1286Q406 1286 337 1217Q267 1147 267 1049L267 425Q267 327 337 257Q406 187 505 187Q603 187 673 257Q743 327 743 425L743 1049Q743 1147 673 1217Q603 1286 505 1286M505 0Q329 0 205 125Q80 249 80 425L80 1049Q80 1224 205 1349Q329 1473 505 1473Q681 1473 805 1349Q930 1224 930 1049L930 425Q930 249 805 125Q681 0 505 0M412 1700Q412 1656 381 1625Q350 1594 307 1594Q263 1594 232 1625Q201 1656 201 1700Q201 1743 232 1774Q263 1805 307 1805Q350 1805 381 1774Q412 1743 412 1700M803 1700Q803 1656 772 1625Q741 1594 698 1594Q654 1594 623 1625Q592 1656 592 1700Q592 1743 623 1774Q654 1805 698 1805Q741 1805 772 1774Q803 1743 803 1700Z"  horiz-adv-x="1010" vert-adv-y="2048"  />

      
      <glyph glyph-name="unid7" unicode="&#xd7;" d="M490 730L638 878Q666 905 666 944Q666 983 638 1010Q611 1038 572 1038Q533 1038 506 1010L358 862L210 1010Q182 1038 144 1038Q105 1038 77 1010Q50 983 50 944Q50 905 77 878L226 730L77 582Q50 554 50 516Q50 477 77 449Q105 422 144 422Q182 422 210 449L358 597L506 449Q533 422 572 422Q611 422 638 449Q666 477 666 516Q666 554 638 582L490 730Z"  horiz-adv-x="716" vert-adv-y="2048"  />

      
      <glyph glyph-name="unid8" unicode="&#xd8;" d="M743 418Q743 320 673 250Q603 180 505 180Q453 180 403 204L739 1078Q743 1054 743 1042L743 418M267 1042Q267 1140 337 1210Q407 1279 505 1279Q557 1279 607 1256L271 382Q267 405 267 418L267 1042M868 1413Q882 1449 866 1485Q850 1520 814 1534Q778 1548 743 1532Q707 1516 693 1480L674 1431Q593 1466 505 1466Q329 1466 205 1342Q80 1217 80 1042L80 418Q80 264 180 145L142 46Q128 10 144-25Q159-61 196-74Q232-88 267-73Q302-57 316-21L335 29Q417-7 505-7Q681-7 805 118Q930 242 930 418L930 1042Q930 1196 830 1315L868 1413Z"  horiz-adv-x="1010" vert-adv-y="2048"  />

      
      <glyph glyph-name="unid9" unicode="&#xd9;" d="M485 1Q314 9 196 138Q80 265 80 438L80 1380Q80 1419 107 1447Q135 1474 174 1474Q212 1474 240 1447Q267 1419 267 1380L267 434Q267 342 326 272Q385 200 475 189Q582 176 663 247Q743 318 743 425L743 1380Q743 1419 770 1447Q797 1474 836 1474Q875 1474 902 1447Q930 1419 930 1380L930 425Q930 244 798 118Q667-8 485 1M383 1959Q418 1977 455 1965Q492 1954 510 1920L612 1725Q630 1691 618 1654Q606 1617 572 1599Q538 1581 501 1593Q464 1604 446 1638L344 1833Q326 1867 338 1904Q349 1941 383 1959Z"  horiz-adv-x="1010" vert-adv-y="2048"  />

      
      <glyph glyph-name="unida" unicode="&#xda;" d="M485 1Q314 9 196 138Q80 265 80 438L80 1380Q80 1419 107 1447Q135 1474 174 1474Q212 1474 240 1447Q267 1419 267 1380L267 434Q267 342 326 272Q385 200 475 189Q582 176 663 247Q743 318 743 425L743 1380Q743 1419 770 1447Q797 1474 836 1474Q875 1474 902 1447Q930 1419 930 1380L930 425Q930 244 798 118Q667-8 485 1M591 1948Q625 1930 637 1893Q649 1856 631 1822L529 1627Q511 1593 474 1582Q437 1570 402 1588Q368 1606 357 1643Q345 1680 363 1714L465 1909Q483 1943 520 1954Q557 1966 591 1948Z"  horiz-adv-x="1010" vert-adv-y="2048"  />

      
      <glyph glyph-name="unidb" unicode="&#xdb;" d="M485 1Q314 9 196 138Q80 265 80 438L80 1380Q80 1419 107 1447Q135 1474 174 1474Q212 1474 240 1447Q267 1419 267 1380L267 434Q267 342 326 272Q385 200 475 189Q582 176 663 247Q743 318 743 425L743 1380Q743 1419 770 1447Q797 1474 836 1474Q875 1474 902 1447Q930 1419 930 1380L930 425Q930 244 798 118Q667-8 485 1M582 1971Q555 1999 516 1999Q477 1999 450 1971L237 1759Q210 1731 210 1693Q210 1654 237 1626Q265 1599 304 1599Q342 1599 370 1626L516 1773L663 1626Q690 1599 729 1599Q768 1599 795 1626Q822 1654 822 1693Q822 1731 795 1759L582 1971Z"  horiz-adv-x="1010" vert-adv-y="2048"  />

      
      <glyph glyph-name="unidc" unicode="&#xdc;" d="M485 1Q314 9 196 138Q80 265 80 438L80 1380Q80 1419 107 1447Q135 1474 174 1474Q212 1474 240 1447Q267 1419 267 1380L267 434Q267 342 326 272Q385 200 475 189Q582 176 663 247Q743 318 743 425L743 1380Q743 1419 770 1447Q797 1474 836 1474Q875 1474 902 1447Q930 1419 930 1380L930 425Q930 244 798 118Q667-8 485 1M413 1711Q413 1667 382 1636Q351 1605 308 1605Q264 1605 233 1636Q202 1667 202 1711Q202 1754 233 1785Q264 1816 308 1816Q351 1816 382 1785Q413 1754 413 1711M804 1711Q804 1667 773 1636Q742 1605 699 1605Q655 1605 624 1636Q593 1667 593 1711Q593 1754 624 1785Q655 1816 699 1816Q742 1816 773 1785Q804 1754 804 1711Z"  horiz-adv-x="1010" vert-adv-y="2048"  />

      
      <glyph glyph-name="unidd" unicode="&#xdd;" d="M859 1463Q825 1481 788 1469Q751 1457 733 1423L483 945L234 1423Q216 1457 179 1469Q142 1481 108 1463Q73 1445 62 1408Q50 1371 68 1337L390 720L390 94Q390 55 417 27Q445 0 483 0Q522 0 550 27Q577 55 577 94L577 720L899 1337Q917 1371 905 1408Q894 1445 859 1463M597 1967Q631 1949 643 1912Q655 1875 637 1841L535 1646Q517 1612 480 1601Q443 1589 408 1607Q374 1625 363 1662Q351 1699 369 1733L471 1928Q489 1962 526 1973Q563 1985 597 1967Z"  horiz-adv-x="967" vert-adv-y="2048"  />

      
      <glyph glyph-name="unide" unicode="&#xde;" d="M297 473L297 949L392 949Q491 949 561 879Q630 809 630 711Q630 612 561 543Q491 473 392 473L297 473M297 1149L297 1368Q297 1406 270 1434Q242 1461 204 1461Q165 1461 137 1434Q110 1406 110 1368L110 95Q110 56 137 28Q165 1 204 1Q242 1 270 28Q297 56 297 95L297 299L392 299Q568 299 693 424Q817 548 817 724Q817 899 693 1024Q568 1149 392 1149L297 1149Z"  horiz-adv-x="867" vert-adv-y="2048"  />

      
      <glyph glyph-name="unidf" unicode="&#xdf;" d="M740 777Q872 893 872 1067L872 1073Q872 1224 769 1335Q666 1445 517 1458Q501 1461 483 1459Q315 1454 198 1334Q80 1213 80 1044L80 36Q80-3 107-31Q135-58 174-58Q212-58 240-31Q267-3 267 36L268 1058Q273 1146 337 1209Q402 1271 491 1273Q572 1270 628 1212Q684 1154 684 1073L684 1067Q684 1005 649 954Q615 904 559 881Q485 852 485 776L485 773Q485 695 563 666Q627 642 668 585Q709 527 709 456L709 420Q709 325 641 258Q574 191 480 191L478 191Q440 191 412 164Q385 136 385 98Q385 59 412 31Q440 4 478 4L480 4Q651 4 773 125Q894 246 895 417L896 418L896 456Q896 653 740 777Z"  horiz-adv-x="976" vert-adv-y="2048"  />

      
      <glyph glyph-name="unie0" unicode="&#xe0;" d="M702 416Q702 321 634 254Q567 187 473 187L466 187Q371 187 304 254Q237 321 237 416L237 607Q237 702 304 769Q371 836 466 836L473 836Q567 836 634 769Q702 702 702 607L702 416M795 1023Q722 1023 705 952Q599 1023 473 1023L466 1023Q294 1023 172 901Q50 779 50 607L50 416Q50 244 172 122Q294 0 466 0L473 0Q600 0 705 71Q722 0 795 0Q834 0 861 27Q889 55 889 94L889 930Q889 968 861 996Q834 1023 795 1023M384 1538Q419 1556 456 1544Q493 1533 511 1499L613 1304Q631 1270 619 1233Q607 1196 573 1178Q539 1160 502 1172Q465 1183 447 1217L345 1412Q327 1446 339 1483Q350 1520 384 1538Z"  horiz-adv-x="979" vert-adv-y="2048"  />

      
      <glyph glyph-name="unie1" unicode="&#xe1;" d="M702 416Q702 321 634 254Q567 187 473 187L466 187Q371 187 304 254Q237 321 237 416L237 607Q237 702 304 769Q371 836 466 836L473 836Q567 836 634 769Q702 702 702 607L702 416M795 1023Q722 1023 705 952Q599 1023 473 1023L466 1023Q294 1023 172 901Q50 779 50 607L50 416Q50 244 172 122Q294 0 466 0L473 0Q600 0 705 71Q722 0 795 0Q834 0 861 27Q889 55 889 94L889 930Q889 968 861 996Q834 1023 795 1023M604 1564Q638 1546 650 1509Q662 1472 644 1438L542 1243Q524 1209 487 1198Q450 1186 415 1204Q381 1222 370 1259Q358 1296 376 1330L478 1525Q496 1559 533 1570Q570 1582 604 1564Z"  horiz-adv-x="979" vert-adv-y="2048"  />

      
      <glyph glyph-name="unie2" unicode="&#xe2;" d="M702 416Q702 321 634 254Q567 187 473 187L466 187Q371 187 304 254Q237 321 237 416L237 607Q237 702 304 769Q371 836 466 836L473 836Q567 836 634 769Q702 702 702 607L702 416M795 1023Q722 1023 705 952Q599 1023 473 1023L466 1023Q294 1023 172 901Q50 779 50 607L50 416Q50 244 172 122Q294 0 466 0L473 0Q600 0 705 71Q722 0 795 0Q834 0 861 27Q889 55 889 94L889 930Q889 968 861 996Q834 1023 795 1023M550 1553Q523 1581 484 1581Q445 1581 418 1553L205 1341Q178 1313 178 1275Q178 1236 205 1208Q233 1181 272 1181Q310 1181 338 1208L484 1355L631 1208Q658 1181 697 1181Q736 1181 763 1208Q790 1236 790 1275Q790 1313 763 1341L550 1553Z"  horiz-adv-x="979" vert-adv-y="2048"  />

      
      <glyph glyph-name="unie3" unicode="&#xe3;" d="M702 416Q702 321 634 254Q567 187 473 187L466 187Q371 187 304 254Q237 321 237 416L237 607Q237 702 304 769Q371 836 466 836L473 836Q567 836 634 769Q702 702 702 607L702 416M795 1023Q722 1023 705 952Q599 1023 473 1023L466 1023Q294 1023 172 901Q50 779 50 607L50 416Q50 244 172 122Q294 0 466 0L473 0Q600 0 705 71Q722 0 795 0Q834 0 861 27Q889 55 889 94L889 930Q889 968 861 996Q834 1023 795 1023M806 1454Q751 1471 706 1425Q654 1373 582 1393L452 1435Q364 1462 275 1438Q188 1414 127 1349Q91 1310 105 1260Q118 1209 168 1194Q222 1177 268 1223Q322 1277 395 1254L395 1254L522 1213L526 1212L526 1212Q613 1186 701 1210Q786 1234 847 1299Q882 1337 869 1388Q856 1438 806 1454Z"  horiz-adv-x="979" vert-adv-y="2048"  />

      
      <glyph glyph-name="unie4" unicode="&#xe4;" d="M702 416Q702 321 634 254Q567 187 473 187L466 187Q371 187 304 254Q237 321 237 416L237 607Q237 702 304 769Q371 836 466 836L473 836Q567 836 634 769Q702 702 702 607L702 416M795 1023Q722 1023 705 952Q599 1023 473 1023L466 1023Q294 1023 172 901Q50 779 50 607L50 416Q50 244 172 122Q294 0 466 0L473 0Q600 0 705 71Q722 0 795 0Q834 0 861 27Q889 55 889 94L889 930Q889 968 861 996Q834 1023 795 1023M392 1308Q392 1264 361 1233Q330 1202 287 1202Q243 1202 212 1233Q181 1264 181 1308Q181 1351 212 1382Q243 1413 287 1413Q330 1413 361 1382Q392 1351 392 1308M783 1308Q783 1264 752 1233Q721 1202 678 1202Q634 1202 603 1233Q572 1264 572 1308Q572 1351 603 1382Q634 1413 678 1413Q721 1413 752 1382Q783 1351 783 1308Z"  horiz-adv-x="979" vert-adv-y="2048"  />

      
      <glyph glyph-name="unie5" unicode="&#xe5;" d="M702 416Q702 321 634 254Q567 187 473 187L466 187Q371 187 304 254Q237 321 237 416L237 607Q237 702 304 769Q371 836 466 836L473 836Q567 836 634 769Q702 702 702 607L702 416M795 1023Q722 1023 705 952Q599 1023 473 1023L466 1023Q294 1023 172 901Q50 779 50 607L50 416Q50 244 172 122Q294 0 466 0L473 0Q600 0 705 71Q722 0 795 0Q834 0 861 27Q889 55 889 94L889 930Q889 968 861 996Q834 1023 795 1023M469 1519Q428 1519 399 1490Q369 1460 369 1419Q369 1378 399 1349Q428 1319 469 1319Q510 1319 540 1349Q569 1378 569 1419Q569 1460 540 1490Q510 1519 469 1519M469 1195Q376 1195 311 1261Q245 1326 245 1419Q245 1512 311 1577Q376 1643 469 1643Q562 1643 627 1577Q693 1512 693 1419Q693 1326 627 1261Q562 1195 469 1195Z"  horiz-adv-x="979" vert-adv-y="2048"  />

      
      <glyph glyph-name="unie8" unicode="&#xe8;" d="M257 604Q257 698 324 765Q391 832 486 832L493 832Q586 832 654 765Q720 697 721 603L257 603L257 604M909 604Q909 640 902 675Q895 719 878 760Q847 836 789 895Q667 1019 493 1019L486 1019Q314 1019 192 897Q70 776 70 604L70 412L70 412Q72 241 193 121Q315 0 486 0L493 0Q703 0 828 170Q856 208 842 254Q828 299 783 314Q718 337 678 282Q609 187 493 187L486 187Q391 187 324 254Q257 321 257 416L722 417Q829 417 883 510Q909 553 909 604M368 1549Q403 1567 440 1555Q477 1544 495 1510L597 1315Q615 1281 603 1244Q591 1207 557 1189Q523 1171 486 1183Q449 1194 431 1228L329 1423Q311 1457 323 1494Q334 1531 368 1549Z"  horiz-adv-x="979" vert-adv-y="2048"  />

      
      <glyph glyph-name="unie9" unicode="&#xe9;" d="M257 604Q257 698 324 765Q391 832 486 832L493 832Q586 832 654 765Q720 697 721 603L257 603L257 604M909 604Q909 640 902 675Q895 719 878 760Q847 836 789 895Q667 1019 493 1019L486 1019Q314 1019 192 897Q70 776 70 604L70 412L70 412Q72 241 193 121Q315 0 486 0L493 0Q703 0 828 170Q856 208 842 254Q828 299 783 314Q718 337 678 282Q609 187 493 187L486 187Q391 187 324 254Q257 321 257 416L722 417Q829 417 883 510Q909 553 909 604M558 1526Q592 1508 604 1471Q616 1434 598 1400L496 1205Q478 1171 441 1160Q404 1148 369 1166Q335 1184 324 1221Q312 1258 330 1292L432 1487Q450 1521 487 1532Q524 1544 558 1526Z"  horiz-adv-x="979" vert-adv-y="2048"  />

      
      <glyph glyph-name="uniea" unicode="&#xea;" d="M257 604Q257 698 324 765Q391 832 486 832L493 832Q586 832 654 765Q720 697 721 603L257 603L257 604M909 604Q909 640 902 675Q895 719 878 760Q847 836 789 895Q667 1019 493 1019L486 1019Q314 1019 192 897Q70 776 70 604L70 412L70 412Q72 241 193 121Q315 0 486 0L493 0Q703 0 828 170Q856 208 842 254Q828 299 783 314Q718 337 678 282Q609 187 493 187L486 187Q391 187 324 254Q257 321 257 416L722 417Q829 417 883 510Q909 553 909 604M559 1533Q532 1561 493 1561Q454 1561 427 1533L214 1321Q187 1293 187 1255Q187 1216 214 1188Q242 1161 281 1161Q319 1161 347 1188L493 1335L640 1188Q667 1161 706 1161Q745 1161 772 1188Q799 1216 799 1255Q799 1293 772 1321L559 1533Z"  horiz-adv-x="979" vert-adv-y="2048"  />

      
      <glyph glyph-name="unieb" unicode="&#xeb;" d="M257 604Q257 698 324 765Q391 832 486 832L493 832Q586 832 654 765Q720 697 721 603L257 603L257 604M909 604Q909 640 902 675Q895 719 878 760Q847 836 789 895Q667 1019 493 1019L486 1019Q314 1019 192 897Q70 776 70 604L70 412L70 412Q72 241 193 121Q315 0 486 0L493 0Q703 0 828 170Q856 208 842 254Q828 299 783 314Q718 337 678 282Q609 187 493 187L486 187Q391 187 324 254Q257 321 257 416L722 417Q829 417 883 510Q909 553 909 604M374 1285Q374 1241 343 1210Q312 1179 269 1179Q225 1179 194 1210Q163 1241 163 1285Q163 1328 194 1359Q225 1390 269 1390Q312 1390 343 1359Q374 1328 374 1285M765 1285Q765 1241 734 1210Q703 1179 660 1179Q616 1179 585 1210Q554 1241 554 1285Q554 1328 585 1359Q616 1390 660 1390Q703 1390 734 1359Q765 1328 765 1285Z"  horiz-adv-x="979" vert-adv-y="2048"  />

      
      <glyph glyph-name="uniec" unicode="&#xec;" d="M227 0Q188 0 160 27Q133 55 133 94L133 927Q133 966 160 993Q188 1020 227 1020Q265 1020 293 993Q320 966 320 927L320 94Q320 55 293 27Q265 0 227 0M127 1564Q162 1582 199 1570Q236 1559 254 1525L356 1330Q374 1296 362 1259Q350 1222 316 1204Q282 1186 245 1198Q208 1209 190 1243L88 1438Q70 1472 82 1509Q93 1546 127 1564Z"  horiz-adv-x="444" vert-adv-y="2048"  />

      
      <glyph glyph-name="unied" unicode="&#xed;" d="M223 0Q184 0 156 27Q129 55 129 94L129 927Q129 966 156 993Q184 1020 223 1020Q261 1020 289 993Q316 966 316 927L316 94Q316 55 289 27Q261 0 223 0M316 1557Q350 1539 362 1502Q374 1465 356 1431L254 1236Q236 1202 199 1191Q162 1179 127 1197Q93 1215 82 1252Q70 1289 88 1323L190 1518Q208 1552 245 1563Q282 1575 316 1557Z"  horiz-adv-x="444" vert-adv-y="2048"  />

      
      <glyph glyph-name="uniee" unicode="&#xee;" d="M365 0Q326 0 298 27Q271 55 271 94L271 927Q271 966 298 993Q326 1020 365 1020Q403 1020 431 993Q458 966 458 927L458 94Q458 55 431 27Q403 0 365 0M422 1551Q395 1579 356 1579Q317 1579 290 1551L77 1339Q50 1311 50 1273Q50 1234 77 1206Q105 1179 144 1179Q182 1179 210 1206L356 1353L503 1206Q530 1179 569 1179Q608 1179 635 1206Q662 1234 662 1273Q662 1311 635 1339L422 1551Z"  horiz-adv-x="712" vert-adv-y="2048"  />

      
      <glyph glyph-name="unief" unicode="&#xef;" d="M357 0Q318 0 290 27Q263 55 263 94L263 927Q263 966 290 993Q318 1020 357 1020Q395 1020 423 993Q450 966 450 927L450 94Q450 55 423 27Q395 0 357 0M261 1302Q261 1258 230 1227Q199 1196 156 1196Q112 1196 81 1227Q50 1258 50 1302Q50 1345 81 1376Q112 1407 156 1407Q199 1407 230 1376Q261 1345 261 1302M652 1302Q652 1258 621 1227Q590 1196 547 1196Q503 1196 472 1227Q441 1258 441 1302Q441 1345 472 1376Q503 1407 547 1407Q590 1407 621 1376Q652 1345 652 1302Z"  horiz-adv-x="702" vert-adv-y="2048"  />

      
      <glyph glyph-name="unif0" unicode="&#xf0;" d="M257 523Q257 618 324 685Q391 752 486 752L493 752Q587 752 654 685Q722 618 722 523L722 416Q722 321 654 254Q587 187 493 187L486 187Q391 187 324 254Q257 321 257 416L257 523M486 939Q314 939 192 817Q70 695 70 523L70 416Q70 244 192 122Q314 0 486 0L493 0Q620 0 725 71Q742 0 815 0Q854 0 881 27Q909 55 909 94L909 986L908 990Q908 1124 828 1234L881 1287Q909 1315 909 1353Q909 1392 881 1420Q854 1447 815 1447Q776 1447 749 1420L686 1357Q596 1405 495 1406Q456 1406 429 1378Q401 1351 401 1312Q401 1273 429 1246Q456 1219 495 1218Q518 1218 542 1213L518 1189Q491 1161 491 1122Q491 1084 518 1056Q545 1029 584 1029Q623 1029 650 1056L693 1099Q722 1045 722 988L722 870Q617 939 493 939L486 939Z"  horiz-adv-x="999" vert-adv-y="2048"  />

      
      <glyph glyph-name="unif1" unicode="&#xf1;" d="M506 1023Q379 1023 274 952Q256 1023 184 1023Q145 1023 117 996Q90 968 90 930L90 94Q90 55 117 27Q145 0 184 0Q222 0 250 27Q277 55 277 94L277 607Q277 702 344 769Q411 836 506 836L513 836Q607 836 674 769Q742 702 742 607L742 94Q742 55 769 27Q796 0 835 0Q874 0 901 27Q929 55 929 94L929 607Q929 779 807 901Q685 1023 513 1023L506 1023M846 1453Q791 1470 746 1424Q694 1372 622 1392L492 1434Q404 1461 315 1437Q228 1413 167 1348Q131 1309 145 1259Q158 1208 208 1193Q262 1176 308 1222Q362 1276 435 1253L435 1253L562 1212L566 1211L566 1211Q653 1185 741 1209Q826 1233 887 1298Q922 1336 909 1387Q896 1437 846 1453Z"  horiz-adv-x="999" vert-adv-y="2048"  />

      
      <glyph glyph-name="unif2" unicode="&#xf2;" d="M722 416Q722 321 654 254Q587 187 493 187L486 187Q391 187 324 254Q257 321 257 416L257 607Q257 702 324 769Q391 836 486 836L493 836Q587 836 654 769Q722 702 722 607L722 416M486 1023Q314 1023 192 901Q70 779 70 607L70 416Q70 244 192 122Q314 0 486 0L493 0Q665 0 787 122Q909 244 909 416L909 607Q909 779 787 901Q665 1023 493 1023L486 1023M390 1538Q425 1556 462 1544Q499 1533 517 1499L619 1304Q637 1270 625 1233Q613 1196 579 1178Q545 1160 508 1172Q471 1183 453 1217L351 1412Q333 1446 345 1483Q356 1520 390 1538Z"  horiz-adv-x="979" vert-adv-y="2048"  />

      
      <glyph glyph-name="unif3" unicode="&#xf3;" d="M722 416Q722 321 654 254Q587 187 493 187L486 187Q391 187 324 254Q257 321 257 416L257 607Q257 702 324 769Q391 836 486 836L493 836Q587 836 654 769Q722 702 722 607L722 416M486 1023Q314 1023 192 901Q70 779 70 607L70 416Q70 244 192 122Q314 0 486 0L493 0Q665 0 787 122Q909 244 909 416L909 607Q909 779 787 901Q665 1023 493 1023L486 1023M578 1541Q612 1523 624 1486Q636 1449 618 1415L516 1220Q498 1186 461 1175Q424 1163 389 1181Q355 1199 344 1236Q332 1273 350 1307L452 1502Q470 1536 507 1547Q544 1559 578 1541Z"  horiz-adv-x="979" vert-adv-y="2048"  />

      
      <glyph glyph-name="unif4" unicode="&#xf4;" d="M722 416Q722 321 654 254Q587 187 493 187L486 187Q391 187 324 254Q257 321 257 416L257 607Q257 702 324 769Q391 836 486 836L493 836Q587 836 654 769Q722 702 722 607L722 416M486 1023Q314 1023 192 901Q70 779 70 607L70 416Q70 244 192 122Q314 0 486 0L493 0Q665 0 787 122Q909 244 909 416L909 607Q909 779 787 901Q665 1023 493 1023L486 1023M541 1551Q514 1579 475 1579Q436 1579 409 1551L196 1339Q169 1311 169 1273Q169 1234 196 1206Q224 1179 263 1179Q301 1179 329 1206L475 1353L622 1206Q649 1179 688 1179Q727 1179 754 1206Q781 1234 781 1273Q781 1311 754 1339L541 1551Z"  horiz-adv-x="979" vert-adv-y="2048"  />

      
      <glyph glyph-name="unif5" unicode="&#xf5;" d="M722 416Q722 321 654 254Q587 187 493 187L486 187Q391 187 324 254Q257 321 257 416L257 607Q257 702 324 769Q391 836 486 836L493 836Q587 836 654 769Q722 702 722 607L722 416M486 1023Q314 1023 192 901Q70 779 70 607L70 416Q70 244 192 122Q314 0 486 0L493 0Q665 0 787 122Q909 244 909 416L909 607Q909 779 787 901Q665 1023 493 1023L486 1023M795 1450Q740 1467 695 1421Q643 1369 571 1389L441 1431Q353 1458 264 1434Q177 1410 116 1345Q80 1306 94 1256Q107 1205 157 1190Q211 1173 257 1219Q311 1273 384 1250L384 1250L511 1209L515 1208L515 1208Q602 1182 690 1206Q775 1230 836 1295Q871 1333 858 1384Q845 1434 795 1450Z"  horiz-adv-x="979" vert-adv-y="2048"  />

      
      <glyph glyph-name="unif6" unicode="&#xf6;" d="M722 416Q722 321 654 254Q587 187 493 187L486 187Q391 187 324 254Q257 321 257 416L257 607Q257 702 324 769Q391 836 486 836L493 836Q587 836 654 769Q722 702 722 607L722 416M486 1023Q314 1023 192 901Q70 779 70 607L70 416Q70 244 192 122Q314 0 486 0L493 0Q665 0 787 122Q909 244 909 416L909 607Q909 779 787 901Q665 1023 493 1023L486 1023M395 1297Q395 1253 364 1222Q333 1191 290 1191Q246 1191 215 1222Q184 1253 184 1297Q184 1340 215 1371Q246 1402 290 1402Q333 1402 364 1371Q395 1340 395 1297M786 1297Q786 1253 755 1222Q724 1191 681 1191Q637 1191 606 1222Q575 1253 575 1297Q575 1340 606 1371Q637 1402 681 1402Q724 1402 755 1371Q786 1340 786 1297Z"  horiz-adv-x="979" vert-adv-y="2048"  />

      
      <glyph glyph-name="unif7" unicode="&#xf7;" d="M843 728Q843 689 816 661Q788 634 749 634L144 634Q105 634 77 661Q50 689 50 728Q50 766 77 794Q105 821 144 821L749 821Q788 821 816 794Q843 766 843 728M551 1013Q551 969 520 938Q489 907 446 907Q402 907 371 938Q340 969 340 1013Q340 1056 371 1087Q402 1118 446 1118Q489 1118 520 1087Q551 1056 551 1013M551 434Q551 390 520 359Q489 328 446 328Q402 328 371 359Q340 390 340 434Q340 477 371 508Q402 539 446 539Q489 539 520 508Q551 477 551 434Z"  horiz-adv-x="893" vert-adv-y="2048"  />

      
      <glyph glyph-name="unif8" unicode="&#xf8;" d="M734 416Q734 321 667 254Q600 187 505 187L498 187Q421 187 359 236L734 611Q734 610 734 609Q734 608 734 607L734 416M270 607Q270 702 337 769Q404 836 498 836L505 836Q582 836 645 787L270 412Q270 413 270 414Q270 415 270 416L270 607M906 784Q933 811 933 850Q933 888 906 916Q880 942 843 943Q806 944 779 920Q661 1023 505 1023L498 1023Q326 1023 204 901Q82 779 82 607L82 416Q82 333 114 256L97 239Q70 212 70 173Q70 135 97 107Q124 81 161 80Q197 79 225 103Q343 0 498 0L505 0Q677 0 799 122Q921 244 921 416L921 607Q921 690 889 767L906 784Z"  horiz-adv-x="1003" vert-adv-y="2048"  />

      
      <glyph glyph-name="unif9" unicode="&#xf9;" d="M815 1023Q776 1023 749 996Q722 968 722 930L722 416Q722 321 654 254Q587 187 493 187L486 187Q391 187 324 254Q257 321 257 416L257 930Q257 968 230 996Q202 1023 164 1023Q125 1023 97 996Q70 968 70 930L70 416Q70 244 192 122Q314 0 486 0L493 0Q620 0 725 71Q742 0 815 0Q854 0 881 27Q909 55 909 94L909 930Q909 968 881 996Q854 1023 815 1023M364 1549Q399 1567 436 1555Q473 1544 491 1510L593 1315Q611 1281 599 1244Q587 1207 553 1189Q519 1171 482 1183Q445 1194 427 1228L325 1423Q307 1457 319 1494Q330 1531 364 1549Z"  horiz-adv-x="999" vert-adv-y="2048"  />

      
      <glyph glyph-name="unifa" unicode="&#xfa;" d="M815 1023Q776 1023 749 996Q722 968 722 930L722 416Q722 321 654 254Q587 187 493 187L486 187Q391 187 324 254Q257 321 257 416L257 930Q257 968 230 996Q202 1023 164 1023Q125 1023 97 996Q70 968 70 930L70 416Q70 244 192 122Q314 0 486 0L493 0Q620 0 725 71Q742 0 815 0Q854 0 881 27Q909 55 909 94L909 930Q909 968 881 996Q854 1023 815 1023M587 1542Q621 1524 633 1487Q645 1450 627 1416L525 1221Q507 1187 470 1176Q433 1164 398 1182Q364 1200 353 1237Q341 1274 359 1308L461 1503Q479 1537 516 1548Q553 1560 587 1542Z"  horiz-adv-x="999" vert-adv-y="2048"  />

      
      <glyph glyph-name="unifb" unicode="&#xfb;" d="M815 1023Q776 1023 749 996Q722 968 722 930L722 416Q722 321 654 254Q587 187 493 187L486 187Q391 187 324 254Q257 321 257 416L257 930Q257 968 230 996Q202 1023 164 1023Q125 1023 97 996Q70 968 70 930L70 416Q70 244 192 122Q314 0 486 0L493 0Q620 0 725 71Q742 0 815 0Q854 0 881 27Q909 55 909 94L909 930Q909 968 881 996Q854 1023 815 1023M553 1559Q526 1587 487 1587Q448 1587 421 1559L208 1347Q181 1319 181 1281Q181 1242 208 1214Q236 1187 275 1187Q313 1187 341 1214L487 1361L634 1214Q661 1187 700 1187Q739 1187 766 1214Q793 1242 793 1281Q793 1319 766 1347L553 1559Z"  horiz-adv-x="999" vert-adv-y="2048"  />

      
      <glyph glyph-name="unifc" unicode="&#xfc;" d="M815 1023Q776 1023 749 996Q722 968 722 930L722 416Q722 321 654 254Q587 187 493 187L486 187Q391 187 324 254Q257 321 257 416L257 930Q257 968 230 996Q202 1023 164 1023Q125 1023 97 996Q70 968 70 930L70 416Q70 244 192 122Q314 0 486 0L493 0Q620 0 725 71Q742 0 815 0Q854 0 881 27Q909 55 909 94L909 930Q909 968 881 996Q854 1023 815 1023M411 1309Q411 1265 380 1234Q349 1203 306 1203Q262 1203 231 1234Q200 1265 200 1309Q200 1352 231 1383Q262 1414 306 1414Q349 1414 380 1383Q411 1352 411 1309M802 1309Q802 1265 771 1234Q740 1203 697 1203Q653 1203 622 1234Q591 1265 591 1309Q591 1352 622 1383Q653 1414 697 1414Q740 1414 771 1383Q802 1352 802 1309Z"  horiz-adv-x="999" vert-adv-y="2048"  />

      
      <glyph glyph-name="unifd" unicode="&#xfd;" d="M831 1009Q795 1023 760 1007Q725 991 711 955L485 359L258 955Q245 991 209 1007Q174 1023 138 1009Q101 995 86 960Q70 924 83 888L384 97L240-276Q226-312 242-347Q258-383 294-396Q330-410 365-395Q401-379 415-343L886 888Q899 924 884 960Q868 995 831 1009M602 1541Q636 1523 648 1486Q660 1449 642 1415L540 1220Q522 1186 485 1175Q448 1163 413 1181Q379 1199 368 1236Q356 1273 374 1307L476 1502Q494 1536 531 1547Q568 1559 602 1541Z"  horiz-adv-x="969" vert-adv-y="2048"  />

      
      <glyph glyph-name="unife" unicode="&#xfe;" d="M277 473L277 949L372 949Q471 949 541 879Q610 809 610 711Q610 612 541 543Q471 473 372 473L277 473M277 1149L277 1368Q277 1406 250 1434Q222 1461 184 1461Q145 1461 117 1434Q90 1406 90 1368L90 95Q90 56 117 28Q145 1 184 1Q222 1 250 28Q277 56 277 95L277 299L372 299Q548 299 673 424Q797 548 797 724Q797 899 673 1024Q548 1149 372 1149L277 1149Z"  horiz-adv-x="847" vert-adv-y="2048"  />

      
      <glyph glyph-name="uniff" unicode="&#xff;" d="M811 1009Q775 1023 740 1007Q705 991 691 955L465 359L238 955Q225 991 189 1007Q154 1023 118 1009Q81 995 66 960Q50 924 63 888L364 97L220-276Q206-312 222-347Q238-383 274-396Q310-410 345-395Q381-379 395-343L866 888Q879 924 864 960Q848 995 811 1009M368 1301Q368 1257 337 1226Q306 1195 263 1195Q219 1195 188 1226Q157 1257 157 1301Q157 1344 188 1375Q219 1406 263 1406Q306 1406 337 1375Q368 1344 368 1301M759 1301Q759 1257 728 1226Q697 1195 654 1195Q610 1195 579 1226Q548 1257 548 1301Q548 1344 579 1375Q610 1406 654 1406Q697 1406 728 1375Q759 1344 759 1301Z"  horiz-adv-x="929" vert-adv-y="2048"  />

      
      <glyph glyph-name="uni0100" unicode="&#x0100;" d="M267 881L267 1095Q267 1133 282 1168Q283 1171 283 1170Q293 1195 310 1216Q311 1216 312 1217Q312 1218 313 1219Q322 1229 333 1239Q338 1244 339 1244Q345 1249 351 1253Q356 1257 364 1261Q369 1264 378 1268Q384 1271 391 1274L401 1277Q412 1281 424 1283Q426 1283 432 1284Q446 1286 457 1286L466 1286Q477 1286 491 1284Q497 1283 499 1283Q511 1281 522 1277Q523 1277 531 1274Q538 1271 545 1268Q553 1264 559 1261Q566 1257 572 1253Q578 1249 584 1244Q586 1242 590 1239Q601 1229 610 1219Q613 1215 612 1216Q629 1195 640 1170L641 1168Q656 1133 656 1095L656 881L267 881M824 1213Q824 1215 823 1216Q761 1399 577 1456Q576 1456 575 1457Q560 1461 544 1465L540 1465Q538 1466 537 1466Q523 1469 508 1471L500 1472Q481 1473 465 1473L458 1473Q442 1473 422 1472L415 1471Q400 1469 386 1466Q385 1466 382 1465L379 1465Q363 1461 348 1457Q346 1456 345 1456Q161 1399 99 1216Q101 1221 98 1211Q80 1154 80 1095L80 94Q80 55 107 27Q135 0 174 0Q212 0 240 27Q267 55 267 94L267 694L656 694L656 94Q656 55 683 27Q710 0 749 0Q788 0 815 27Q843 55 843 94L843 1095Q843 1154 824 1211L824 1213M796 1704Q796 1665 769 1637Q741 1610 702 1610L229 1610Q190 1610 162 1637Q135 1665 135 1704Q135 1742 162 1770Q190 1797 229 1797L702 1797Q741 1797 769 1770Q796 1742 796 1704Z"  horiz-adv-x="923" vert-adv-y="2048"  />

      
      </font>
</defs>
</svg>
